<svg width="564" height="405" viewBox="0 0 564 405" fill="none" xmlns="http://www.w3.org/2000/svg">
<rect y="238" width="564" height="167" fill="#422A07"/>
<path d="M198 136.616C198 128.908 202.43 121.886 209.386 118.566L277.629 86L347.432 118.611C354.469 121.899 358.966 128.964 358.966 136.731V238H198V136.616Z" fill="#606356"/>
<g filter="url(#filter0_i_61_448)">
<path d="M211.236 145.293C211.236 137.323 215.968 130.113 223.281 126.943L277.843 103.292L333.558 126.988C340.939 130.127 345.73 137.372 345.73 145.392V238H211.236V145.293Z" fill="#3A3C2F"/>
</g>
<ellipse cx="323.742" cy="199.36" rx="5.76404" ry="13.0225" fill="#F08607"/>
<circle cx="314.989" cy="210.674" r="1.70787" fill="#F08607"/>
<circle cx="332.494" cy="210.674" r="1.70787" fill="#F08607"/>
<line x1="277.916" y1="103.506" x2="277.916" y2="238" stroke="#191513"/>
<line x1="310.792" y1="117.595" x2="310.792" y2="238" stroke="#191513"/>
<line x1="245.893" y1="117.595" x2="245.893" y2="238" stroke="#191513"/>
<path d="M313.476 166.756C313.606 164.093 315.803 162 318.47 162H328.255C330.883 162 333.062 164.034 333.243 166.655L336.181 209.172C336.381 212.062 334.09 214.517 331.193 214.517H316.396C313.539 214.517 311.263 212.127 311.402 209.273L313.476 166.756Z" fill="#DA7100"/>
<ellipse cx="323.955" cy="213.023" rx="6.40449" ry="5.76404" fill="#DA7100"/>
<circle cx="313.281" cy="162" r="2.98876" fill="#FD8D05"/>
<circle cx="332.921" cy="162" r="2.98876" fill="#FD8D05"/>
<ellipse cx="318.434" cy="161.951" rx="6.86462" ry="2.44714" transform="rotate(-20 318.434 161.951)" fill="#FD8D05"/>
<ellipse cx="327.708" cy="162.131" rx="7.01569" ry="2.58421" transform="rotate(20 327.708 162.131)" fill="#FD8D05"/>
<circle cx="323.955" cy="186.764" r="12.809" fill="url(#paint0_linear_61_448)"/>
<path d="M211.236 147.483L250.562 152.156C252.728 152.413 254.359 154.249 254.359 156.431V156.431C254.359 158.628 252.705 160.472 250.521 160.71L211.236 164.989V147.483Z" fill="#A4620F"/>
<circle cx="247.741" cy="151.112" r="2.34831" fill="#A4620F"/>
<circle cx="223.618" cy="156.45" r="0.780899" fill="#A4620F" stroke="#542100"/>
<circle cx="231.73" cy="156.45" r="0.780899" fill="#A4620F" stroke="#542100"/>
<circle cx="247.741" cy="161.36" r="2.34831" fill="#A4620F"/>
<g filter="url(#filter1_d_61_448)">
<rect x="211.236" y="146.202" width="2.13483" height="20.0674" rx="1.06742" fill="#A4620F"/>
</g>
<path d="M211.236 191.888L250.562 196.56C252.728 196.817 254.359 198.654 254.359 200.835V200.835C254.359 203.032 252.705 204.877 250.521 205.115L211.236 209.393V191.888Z" fill="#A4620F"/>
<circle cx="247.741" cy="195.517" r="2.34831" fill="#A4620F"/>
<circle cx="223.618" cy="200.854" r="0.780899" fill="#A4620F" stroke="#542100"/>
<circle cx="231.73" cy="200.854" r="0.780899" fill="#A4620F" stroke="#542100"/>
<circle cx="247.741" cy="205.764" r="2.34831" fill="#A4620F"/>
<g filter="url(#filter2_d_61_448)">
<rect x="211.236" y="190.607" width="2.13483" height="20.0674" rx="1.06742" fill="#A4620F"/>
</g>
<g filter="url(#filter3_d_61_448)">
<rect x="14" y="5" width="536" height="12" rx="6" fill="url(#paint1_linear_61_448)"/>
</g>
<rect x="79" y="17" width="100" height="206" fill="#541029"/>
<circle cx="89" cy="223" r="10" fill="#9E1823"/>
<circle cx="129" cy="223" r="10" fill="#9E1823"/>
<circle cx="169" cy="223" r="10" fill="#9E1823"/>
<path d="M99 17H119V223C119 228.523 114.523 233 109 233V233C103.477 233 99 228.523 99 223V17Z" fill="url(#paint2_linear_61_448)"/>
<path d="M139 17H159V223C159 228.523 154.523 233 149 233V233C143.477 233 139 228.523 139 223V17Z" fill="url(#paint3_linear_61_448)"/>
<path d="M59 17H79V223C79 228.523 74.5228 233 69 233V233C63.4772 233 59 228.523 59 223V17Z" fill="url(#paint4_linear_61_448)"/>
<rect x="377" y="17" width="100" height="206" fill="#541029"/>
<circle cx="387" cy="223" r="10" fill="#9E1823"/>
<circle cx="427" cy="223" r="10" fill="#9E1823"/>
<circle cx="467" cy="223" r="10" fill="#9E1823"/>
<path d="M397 17H417V223C417 228.523 412.523 233 407 233V233C401.477 233 397 228.523 397 223V17Z" fill="url(#paint5_linear_61_448)"/>
<path d="M437 17H457V223C457 228.523 452.523 233 447 233V233C441.477 233 437 228.523 437 223V17Z" fill="url(#paint6_linear_61_448)"/>
<path d="M477 17H497V223C497 228.523 492.523 233 487 233V233C481.477 233 477 228.523 477 223V17Z" fill="url(#paint7_linear_61_448)"/>
<g filter="url(#filter4_d_61_448)">
<path d="M28 10.5C28 16.299 36.299 21 30.5 21C24.701 21 20 16.299 20 10.5C20 4.70101 24.701 0 30.5 0C36.299 0 28 4.70101 28 10.5Z" fill="url(#paint8_linear_61_448)"/>
</g>
<g filter="url(#filter5_d_61_448)">
<path d="M62 10.5C62 16.299 70.299 21 64.5 21C58.701 21 54 16.299 54 10.5C54 4.70101 58.701 0 64.5 0C70.299 0 62 4.70101 62 10.5Z" fill="url(#paint9_linear_61_448)"/>
</g>
<g filter="url(#filter6_d_61_448)">
<path d="M107 10.5C107 16.299 115.299 21 109.5 21C103.701 21 99 16.299 99 10.5C99 4.70101 103.701 0 109.5 0C115.299 0 107 4.70101 107 10.5Z" fill="url(#paint10_linear_61_448)"/>
</g>
<g filter="url(#filter7_d_61_448)">
<path d="M141 10.5C141 16.299 149.299 21 143.5 21C137.701 21 133 16.299 133 10.5C133 4.70101 137.701 0 143.5 0C149.299 0 141 4.70101 141 10.5Z" fill="url(#paint11_linear_61_448)"/>
</g>
<g filter="url(#filter8_d_61_448)">
<path d="M167 10.5C167 16.299 175.299 21 169.5 21C163.701 21 159 16.299 159 10.5C159 4.70101 163.701 0 169.5 0C175.299 0 167 4.70101 167 10.5Z" fill="url(#paint12_linear_61_448)"/>
</g>
<g filter="url(#filter9_d_61_448)">
<path d="M530.558 10.5C530.558 4.70101 522.259 0 528.058 0C533.857 0 538.558 4.70101 538.558 10.5C538.558 16.299 533.857 21 528.058 21C522.259 21 530.558 16.299 530.558 10.5Z" fill="url(#paint13_linear_61_448)"/>
</g>
<g filter="url(#filter10_d_61_448)">
<path d="M384.558 10.5C384.558 4.70101 376.259 0 382.058 0C387.857 0 392.558 4.70101 392.558 10.5C392.558 16.299 387.857 21 382.058 21C376.259 21 384.558 16.299 384.558 10.5Z" fill="url(#paint14_linear_61_448)"/>
</g>
<g filter="url(#filter11_d_61_448)">
<path d="M410.558 10.5C410.558 4.70101 402.259 0 408.058 0C413.857 0 418.558 4.70101 418.558 10.5C418.558 16.299 413.857 21 408.058 21C402.259 21 410.558 16.299 410.558 10.5Z" fill="url(#paint15_linear_61_448)"/>
</g>
<g filter="url(#filter12_d_61_448)">
<path d="M447.558 10.5C447.558 4.70101 439.259 0 445.058 0C450.857 0 455.558 4.70101 455.558 10.5C455.558 16.299 450.857 21 445.058 21C439.259 21 447.558 16.299 447.558 10.5Z" fill="url(#paint16_linear_61_448)"/>
</g>
<g filter="url(#filter13_d_61_448)">
<path d="M487.558 10.5C487.558 4.70101 479.259 0 485.058 0C490.857 0 495.558 4.70101 495.558 10.5C495.558 16.299 490.857 21 485.058 21C479.259 21 487.558 16.299 487.558 10.5Z" fill="url(#paint17_linear_61_448)"/>
</g>
<defs>
<filter id="filter0_i_61_448" x="211.236" y="103.292" width="134.495" height="140.708" filterUnits="userSpaceOnUse" color-interpolation-filters="sRGB">
<feFlood flood-opacity="0" result="BackgroundImageFix"/>
<feBlend mode="normal" in="SourceGraphic" in2="BackgroundImageFix" result="shape"/>
<feColorMatrix in="SourceAlpha" type="matrix" values="0 0 0 0 0 0 0 0 0 0 0 0 0 0 0 0 0 0 127 0" result="hardAlpha"/>
<feOffset dy="6"/>
<feGaussianBlur stdDeviation="4"/>
<feComposite in2="hardAlpha" operator="arithmetic" k2="-1" k3="1"/>
<feColorMatrix type="matrix" values="0 0 0 0 0 0 0 0 0 0 0 0 0 0 0 0 0 0 0.25 0"/>
<feBlend mode="normal" in2="shape" result="effect1_innerShadow_61_448"/>
</filter>
<filter id="filter1_d_61_448" x="207.236" y="146.202" width="10.1348" height="28.0674" filterUnits="userSpaceOnUse" color-interpolation-filters="sRGB">
<feFlood flood-opacity="0" result="BackgroundImageFix"/>
<feColorMatrix in="SourceAlpha" type="matrix" values="0 0 0 0 0 0 0 0 0 0 0 0 0 0 0 0 0 0 127 0" result="hardAlpha"/>
<feOffset dy="4"/>
<feGaussianBlur stdDeviation="2"/>
<feComposite in2="hardAlpha" operator="out"/>
<feColorMatrix type="matrix" values="0 0 0 0 0 0 0 0 0 0 0 0 0 0 0 0 0 0 0.15 0"/>
<feBlend mode="normal" in2="BackgroundImageFix" result="effect1_dropShadow_61_448"/>
<feBlend mode="normal" in="SourceGraphic" in2="effect1_dropShadow_61_448" result="shape"/>
</filter>
<filter id="filter2_d_61_448" x="207.236" y="190.607" width="10.1348" height="28.0674" filterUnits="userSpaceOnUse" color-interpolation-filters="sRGB">
<feFlood flood-opacity="0" result="BackgroundImageFix"/>
<feColorMatrix in="SourceAlpha" type="matrix" values="0 0 0 0 0 0 0 0 0 0 0 0 0 0 0 0 0 0 127 0" result="hardAlpha"/>
<feOffset dy="4"/>
<feGaussianBlur stdDeviation="2"/>
<feComposite in2="hardAlpha" operator="out"/>
<feColorMatrix type="matrix" values="0 0 0 0 0 0 0 0 0 0 0 0 0 0 0 0 0 0 0.15 0"/>
<feBlend mode="normal" in2="BackgroundImageFix" result="effect1_dropShadow_61_448"/>
<feBlend mode="normal" in="SourceGraphic" in2="effect1_dropShadow_61_448" result="shape"/>
</filter>
<filter id="filter3_d_61_448" x="10" y="5" width="544" height="20" filterUnits="userSpaceOnUse" color-interpolation-filters="sRGB">
<feFlood flood-opacity="0" result="BackgroundImageFix"/>
<feColorMatrix in="SourceAlpha" type="matrix" values="0 0 0 0 0 0 0 0 0 0 0 0 0 0 0 0 0 0 127 0" result="hardAlpha"/>
<feOffset dy="4"/>
<feGaussianBlur stdDeviation="2"/>
<feComposite in2="hardAlpha" operator="out"/>
<feColorMatrix type="matrix" values="0 0 0 0 0 0 0 0 0 0 0 0 0 0 0 0 0 0 0.25 0"/>
<feBlend mode="normal" in2="BackgroundImageFix" result="effect1_dropShadow_61_448"/>
<feBlend mode="normal" in="SourceGraphic" in2="effect1_dropShadow_61_448" result="shape"/>
</filter>
<filter id="filter4_d_61_448" x="16" y="0" width="20.5576" height="29" filterUnits="userSpaceOnUse" color-interpolation-filters="sRGB">
<feFlood flood-opacity="0" result="BackgroundImageFix"/>
<feColorMatrix in="SourceAlpha" type="matrix" values="0 0 0 0 0 0 0 0 0 0 0 0 0 0 0 0 0 0 127 0" result="hardAlpha"/>
<feOffset dy="4"/>
<feGaussianBlur stdDeviation="2"/>
<feComposite in2="hardAlpha" operator="out"/>
<feColorMatrix type="matrix" values="0 0 0 0 0 0 0 0 0 0 0 0 0 0 0 0 0 0 0.09 0"/>
<feBlend mode="normal" in2="BackgroundImageFix" result="effect1_dropShadow_61_448"/>
<feBlend mode="normal" in="SourceGraphic" in2="effect1_dropShadow_61_448" result="shape"/>
</filter>
<filter id="filter5_d_61_448" x="50" y="0" width="20.5576" height="29" filterUnits="userSpaceOnUse" color-interpolation-filters="sRGB">
<feFlood flood-opacity="0" result="BackgroundImageFix"/>
<feColorMatrix in="SourceAlpha" type="matrix" values="0 0 0 0 0 0 0 0 0 0 0 0 0 0 0 0 0 0 127 0" result="hardAlpha"/>
<feOffset dy="4"/>
<feGaussianBlur stdDeviation="2"/>
<feComposite in2="hardAlpha" operator="out"/>
<feColorMatrix type="matrix" values="0 0 0 0 0 0 0 0 0 0 0 0 0 0 0 0 0 0 0.09 0"/>
<feBlend mode="normal" in2="BackgroundImageFix" result="effect1_dropShadow_61_448"/>
<feBlend mode="normal" in="SourceGraphic" in2="effect1_dropShadow_61_448" result="shape"/>
</filter>
<filter id="filter6_d_61_448" x="95" y="0" width="20.5576" height="29" filterUnits="userSpaceOnUse" color-interpolation-filters="sRGB">
<feFlood flood-opacity="0" result="BackgroundImageFix"/>
<feColorMatrix in="SourceAlpha" type="matrix" values="0 0 0 0 0 0 0 0 0 0 0 0 0 0 0 0 0 0 127 0" result="hardAlpha"/>
<feOffset dy="4"/>
<feGaussianBlur stdDeviation="2"/>
<feComposite in2="hardAlpha" operator="out"/>
<feColorMatrix type="matrix" values="0 0 0 0 0 0 0 0 0 0 0 0 0 0 0 0 0 0 0.09 0"/>
<feBlend mode="normal" in2="BackgroundImageFix" result="effect1_dropShadow_61_448"/>
<feBlend mode="normal" in="SourceGraphic" in2="effect1_dropShadow_61_448" result="shape"/>
</filter>
<filter id="filter7_d_61_448" x="129" y="0" width="20.5576" height="29" filterUnits="userSpaceOnUse" color-interpolation-filters="sRGB">
<feFlood flood-opacity="0" result="BackgroundImageFix"/>
<feColorMatrix in="SourceAlpha" type="matrix" values="0 0 0 0 0 0 0 0 0 0 0 0 0 0 0 0 0 0 127 0" result="hardAlpha"/>
<feOffset dy="4"/>
<feGaussianBlur stdDeviation="2"/>
<feComposite in2="hardAlpha" operator="out"/>
<feColorMatrix type="matrix" values="0 0 0 0 0 0 0 0 0 0 0 0 0 0 0 0 0 0 0.09 0"/>
<feBlend mode="normal" in2="BackgroundImageFix" result="effect1_dropShadow_61_448"/>
<feBlend mode="normal" in="SourceGraphic" in2="effect1_dropShadow_61_448" result="shape"/>
</filter>
<filter id="filter8_d_61_448" x="155" y="0" width="20.5576" height="29" filterUnits="userSpaceOnUse" color-interpolation-filters="sRGB">
<feFlood flood-opacity="0" result="BackgroundImageFix"/>
<feColorMatrix in="SourceAlpha" type="matrix" values="0 0 0 0 0 0 0 0 0 0 0 0 0 0 0 0 0 0 127 0" result="hardAlpha"/>
<feOffset dy="4"/>
<feGaussianBlur stdDeviation="2"/>
<feComposite in2="hardAlpha" operator="out"/>
<feColorMatrix type="matrix" values="0 0 0 0 0 0 0 0 0 0 0 0 0 0 0 0 0 0 0.09 0"/>
<feBlend mode="normal" in2="BackgroundImageFix" result="effect1_dropShadow_61_448"/>
<feBlend mode="normal" in="SourceGraphic" in2="effect1_dropShadow_61_448" result="shape"/>
</filter>
<filter id="filter9_d_61_448" x="522" y="0" width="20.5576" height="29" filterUnits="userSpaceOnUse" color-interpolation-filters="sRGB">
<feFlood flood-opacity="0" result="BackgroundImageFix"/>
<feColorMatrix in="SourceAlpha" type="matrix" values="0 0 0 0 0 0 0 0 0 0 0 0 0 0 0 0 0 0 127 0" result="hardAlpha"/>
<feOffset dy="4"/>
<feGaussianBlur stdDeviation="2"/>
<feComposite in2="hardAlpha" operator="out"/>
<feColorMatrix type="matrix" values="0 0 0 0 0 0 0 0 0 0 0 0 0 0 0 0 0 0 0.09 0"/>
<feBlend mode="normal" in2="BackgroundImageFix" result="effect1_dropShadow_61_448"/>
<feBlend mode="normal" in="SourceGraphic" in2="effect1_dropShadow_61_448" result="shape"/>
</filter>
<filter id="filter10_d_61_448" x="376" y="0" width="20.5576" height="29" filterUnits="userSpaceOnUse" color-interpolation-filters="sRGB">
<feFlood flood-opacity="0" result="BackgroundImageFix"/>
<feColorMatrix in="SourceAlpha" type="matrix" values="0 0 0 0 0 0 0 0 0 0 0 0 0 0 0 0 0 0 127 0" result="hardAlpha"/>
<feOffset dy="4"/>
<feGaussianBlur stdDeviation="2"/>
<feComposite in2="hardAlpha" operator="out"/>
<feColorMatrix type="matrix" values="0 0 0 0 0 0 0 0 0 0 0 0 0 0 0 0 0 0 0.09 0"/>
<feBlend mode="normal" in2="BackgroundImageFix" result="effect1_dropShadow_61_448"/>
<feBlend mode="normal" in="SourceGraphic" in2="effect1_dropShadow_61_448" result="shape"/>
</filter>
<filter id="filter11_d_61_448" x="402" y="0" width="20.5576" height="29" filterUnits="userSpaceOnUse" color-interpolation-filters="sRGB">
<feFlood flood-opacity="0" result="BackgroundImageFix"/>
<feColorMatrix in="SourceAlpha" type="matrix" values="0 0 0 0 0 0 0 0 0 0 0 0 0 0 0 0 0 0 127 0" result="hardAlpha"/>
<feOffset dy="4"/>
<feGaussianBlur stdDeviation="2"/>
<feComposite in2="hardAlpha" operator="out"/>
<feColorMatrix type="matrix" values="0 0 0 0 0 0 0 0 0 0 0 0 0 0 0 0 0 0 0.09 0"/>
<feBlend mode="normal" in2="BackgroundImageFix" result="effect1_dropShadow_61_448"/>
<feBlend mode="normal" in="SourceGraphic" in2="effect1_dropShadow_61_448" result="shape"/>
</filter>
<filter id="filter12_d_61_448" x="439" y="0" width="20.5576" height="29" filterUnits="userSpaceOnUse" color-interpolation-filters="sRGB">
<feFlood flood-opacity="0" result="BackgroundImageFix"/>
<feColorMatrix in="SourceAlpha" type="matrix" values="0 0 0 0 0 0 0 0 0 0 0 0 0 0 0 0 0 0 127 0" result="hardAlpha"/>
<feOffset dy="4"/>
<feGaussianBlur stdDeviation="2"/>
<feComposite in2="hardAlpha" operator="out"/>
<feColorMatrix type="matrix" values="0 0 0 0 0 0 0 0 0 0 0 0 0 0 0 0 0 0 0.09 0"/>
<feBlend mode="normal" in2="BackgroundImageFix" result="effect1_dropShadow_61_448"/>
<feBlend mode="normal" in="SourceGraphic" in2="effect1_dropShadow_61_448" result="shape"/>
</filter>
<filter id="filter13_d_61_448" x="479" y="0" width="20.5576" height="29" filterUnits="userSpaceOnUse" color-interpolation-filters="sRGB">
<feFlood flood-opacity="0" result="BackgroundImageFix"/>
<feColorMatrix in="SourceAlpha" type="matrix" values="0 0 0 0 0 0 0 0 0 0 0 0 0 0 0 0 0 0 127 0" result="hardAlpha"/>
<feOffset dy="4"/>
<feGaussianBlur stdDeviation="2"/>
<feComposite in2="hardAlpha" operator="out"/>
<feColorMatrix type="matrix" values="0 0 0 0 0 0 0 0 0 0 0 0 0 0 0 0 0 0 0.09 0"/>
<feBlend mode="normal" in2="BackgroundImageFix" result="effect1_dropShadow_61_448"/>
<feBlend mode="normal" in="SourceGraphic" in2="effect1_dropShadow_61_448" result="shape"/>
</filter>
<linearGradient id="paint0_linear_61_448" x1="311.146" y1="186.764" x2="336.764" y2="186.764" gradientUnits="userSpaceOnUse">
<stop stop-color="#FEB302"/>
<stop offset="1" stop-color="#9B6E02"/>
</linearGradient>
<linearGradient id="paint1_linear_61_448" x1="282" y1="5" x2="282" y2="17" gradientUnits="userSpaceOnUse">
<stop stop-color="#DA7100"/>
<stop offset="1" stop-color="#743C00"/>
</linearGradient>
<linearGradient id="paint2_linear_61_448" x1="119" y1="125" x2="99" y2="125" gradientUnits="userSpaceOnUse">
<stop stop-color="#541029"/>
<stop offset="1" stop-color="#BA235B"/>
</linearGradient>
<linearGradient id="paint3_linear_61_448" x1="159" y1="125" x2="139" y2="125" gradientUnits="userSpaceOnUse">
<stop stop-color="#541029"/>
<stop offset="1" stop-color="#BA235B"/>
</linearGradient>
<linearGradient id="paint4_linear_61_448" x1="79" y1="125" x2="59" y2="125" gradientUnits="userSpaceOnUse">
<stop stop-color="#541029"/>
<stop offset="1" stop-color="#BA235B"/>
</linearGradient>
<linearGradient id="paint5_linear_61_448" x1="417" y1="125" x2="397" y2="125" gradientUnits="userSpaceOnUse">
<stop stop-color="#541029"/>
<stop offset="1" stop-color="#BA235B"/>
</linearGradient>
<linearGradient id="paint6_linear_61_448" x1="457" y1="125" x2="437" y2="125" gradientUnits="userSpaceOnUse">
<stop stop-color="#541029"/>
<stop offset="1" stop-color="#BA235B"/>
</linearGradient>
<linearGradient id="paint7_linear_61_448" x1="497" y1="125" x2="477" y2="125" gradientUnits="userSpaceOnUse">
<stop stop-color="#541029"/>
<stop offset="1" stop-color="#BA235B"/>
</linearGradient>
<linearGradient id="paint8_linear_61_448" x1="26.2789" y1="0" x2="26.2789" y2="21" gradientUnits="userSpaceOnUse">
<stop stop-color="#DA7100"/>
<stop offset="1" stop-color="#743C00"/>
</linearGradient>
<linearGradient id="paint9_linear_61_448" x1="60.2789" y1="0" x2="60.2789" y2="21" gradientUnits="userSpaceOnUse">
<stop stop-color="#DA7100"/>
<stop offset="1" stop-color="#743C00"/>
</linearGradient>
<linearGradient id="paint10_linear_61_448" x1="105.279" y1="0" x2="105.279" y2="21" gradientUnits="userSpaceOnUse">
<stop stop-color="#DA7100"/>
<stop offset="1" stop-color="#743C00"/>
</linearGradient>
<linearGradient id="paint11_linear_61_448" x1="139.279" y1="0" x2="139.279" y2="21" gradientUnits="userSpaceOnUse">
<stop stop-color="#DA7100"/>
<stop offset="1" stop-color="#743C00"/>
</linearGradient>
<linearGradient id="paint12_linear_61_448" x1="165.279" y1="0" x2="165.279" y2="21" gradientUnits="userSpaceOnUse">
<stop stop-color="#DA7100"/>
<stop offset="1" stop-color="#743C00"/>
</linearGradient>
<linearGradient id="paint13_linear_61_448" x1="532.279" y1="1.2517e-06" x2="532.279" y2="21" gradientUnits="userSpaceOnUse">
<stop stop-color="#DA7100"/>
<stop offset="1" stop-color="#743C00"/>
</linearGradient>
<linearGradient id="paint14_linear_61_448" x1="386.279" y1="1.2517e-06" x2="386.279" y2="21" gradientUnits="userSpaceOnUse">
<stop stop-color="#DA7100"/>
<stop offset="1" stop-color="#743C00"/>
</linearGradient>
<linearGradient id="paint15_linear_61_448" x1="412.279" y1="1.2517e-06" x2="412.279" y2="21" gradientUnits="userSpaceOnUse">
<stop stop-color="#DA7100"/>
<stop offset="1" stop-color="#743C00"/>
</linearGradient>
<linearGradient id="paint16_linear_61_448" x1="449.279" y1="1.2517e-06" x2="449.279" y2="21" gradientUnits="userSpaceOnUse">
<stop stop-color="#DA7100"/>
<stop offset="1" stop-color="#743C00"/>
</linearGradient>
<linearGradient id="paint17_linear_61_448" x1="489.279" y1="1.2517e-06" x2="489.279" y2="21" gradientUnits="userSpaceOnUse">
<stop stop-color="#DA7100"/>
<stop offset="1" stop-color="#743C00"/>
</linearGradient>
</defs>
</svg>
