<svg width="219" height="79" viewBox="0 0 219 79" fill="none" xmlns="http://www.w3.org/2000/svg">
<g filter="url(#filter0_d_55_1178)">
<line x1="139.502" y1="9.87147" x2="162.837" y2="0.535824" stroke="#FF0000"/>
<path d="M55.362 4.62381L55.8716 1.7336L79.777 5.94876L79.2686 13.3286L55.362 4.62381Z" fill="#D9D9D9"/>
<path d="M76.8369 51.3882L77.3465 48.498L98.7456 50.1637C100.164 50.2741 101.207 51.5393 101.045 52.9525C100.881 54.3898 99.5394 55.3912 98.1147 55.14L76.8369 51.3882Z" fill="#D9D9D9"/>
<rect x="40.9219" y="4.724" width="2.99291" height="14.9645" transform="rotate(-90 40.9219 4.724)" fill="#D9D9D9"/>
<path d="M132.319 53.2686C134.662 53.0636 136.795 53.3018 138.346 53.8325C139.122 54.098 139.729 54.429 140.143 54.7938C140.556 55.1562 140.756 55.5301 140.788 55.8981C140.82 56.266 140.688 56.669 140.345 57.0975C140 57.5288 139.46 57.9601 138.742 58.3564C137.307 59.1482 135.247 59.7533 132.904 59.9582C130.572 60.1622 128.393 59.8909 126.6 59.3454C125.014 58.8632 123.761 58.1766 122.965 57.444C125.07 54.9889 127.834 53.661 132.319 53.2686Z" fill="#FF0000" stroke="#FF0000"/>
<rect x="219" y="46.2506" width="211" height="5.98582" rx="2.99291" transform="rotate(-180 219 46.2506)" fill="#68440F"/>
<rect x="219" y="18.1921" width="211" height="5.98582" rx="2.99291" transform="rotate(-180 219 18.1921)" fill="#68440F"/>
<rect x="199.172" y="42.4811" width="3.74113" height="29.555" transform="rotate(170 199.172 42.4811)" fill="#68440F"/>
<rect x="178.428" y="43.6318" width="3.74113" height="29.555" transform="rotate(-170 178.428 43.6318)" fill="#68440F"/>
<rect x="141.765" y="45.8766" width="3.74113" height="29.555" transform="rotate(-170 141.765 45.8766)" fill="#68440F"/>
<rect x="105.102" y="46.2507" width="3.74113" height="29.555" transform="rotate(-170 105.102 46.2507)" fill="#68440F"/>
<rect x="68.4385" y="46.2507" width="3.74113" height="29.555" transform="rotate(-170 68.4385 46.2507)" fill="#68440F"/>
<rect x="31.7754" y="46.2507" width="3.74113" height="29.555" transform="rotate(-170 31.7754 46.2507)" fill="#68440F"/>
<rect x="162.61" y="42.5276" width="3.74113" height="29.555" transform="rotate(170 162.61 42.5276)" fill="#68440F"/>
<rect x="125.947" y="43.65" width="3.74113" height="29.555" transform="rotate(170 125.947 43.65)" fill="#68440F"/>
<rect x="89.2837" y="41.4053" width="3.74113" height="29.555" transform="rotate(170 89.2837 41.4053)" fill="#68440F"/>
<rect x="52.6201" y="43.65" width="3.74113" height="29.555" transform="rotate(170 52.6201 43.65)" fill="#68440F"/>
<path d="M81.1371 51.0323C78.4371 51.3894 75.9479 49.5198 75.5384 46.8273L69.7591 8.82853C69.2691 5.607 71.9423 2.78514 75.1856 3.10015L164.289 11.7541C168.095 12.1237 170.094 16.4551 167.906 19.5913L141.969 56.7735C141.306 57.7229 139.856 57.5643 139.415 56.4941C136.378 49.1312 128.767 44.7329 120.871 45.7772L81.1371 51.0323Z" fill="white"/>
<path d="M83.8213 48.2514C80.9555 48.6866 78.3213 46.6014 78.087 43.7121L75.6283 13.3884C75.3793 10.3171 77.9408 7.75365 81.0123 8.00036L159.702 14.3208C163.532 14.6285 165.598 18.9629 163.425 22.1324L143.037 51.8646C142.178 53.1171 140.385 53.2628 139.335 52.1653C132.872 45.4086 123.524 42.2225 114.28 43.6263L83.8213 48.2514Z" fill="#A88F2F"/>
<path d="M76.9961 51.0453C76.7279 51.0823 76.48 50.8961 76.4408 50.6282L73.2952 29.1329C78.9696 28.9201 84.0026 33.0232 84.8054 38.6895L85.0449 40.3803C85.7773 45.5506 82.169 50.3318 76.9961 51.0453Z" fill="#FF0000" stroke="#FF0000"/>
<path d="M82.8839 14.9354C83.299 21.1106 79.1674 26.6726 73.136 28.0591L69.5575 4.20224C69.4687 3.61008 69.9594 3.09182 70.5555 3.14821L71.4998 3.23753C77.6489 3.8192 82.4696 8.77278 82.8839 14.9354Z" fill="#FF0000" stroke="#FF0000"/>
<path d="M90.7403 29.9848L74.8228 28.377L90.7403 22.1064V29.9848Z" fill="#FF0000" stroke="#FF0000"/>
<path d="M60.8467 21.1614C65.7496 19.3769 71.0834 21.7617 72.7848 26.4363C74.4863 31.1109 71.9333 36.3663 67.0304 38.1508C65.8409 38.5837 64.5547 38.6378 63.205 38.5039C62.0512 38.3895 60.8833 38.1422 59.7069 37.8931C59.5005 37.8494 59.2939 37.8056 59.087 37.7625C57.72 37.4777 56.3407 37.221 55.0526 37.248C53.9544 37.2711 52.8984 37.5006 51.9546 38.1058C51.6655 37.2879 51.6484 36.1322 51.9057 34.7344C52.2156 33.051 52.9044 31.1212 53.8332 29.2398C54.7613 27.3596 55.9193 25.5478 57.1539 24.0969C58.3973 22.6357 59.6801 21.586 60.8467 21.1614Z" fill="#FF0000" stroke="#FF0000"/>
<path d="M178.486 21.7287C178.342 21.9336 178.198 22.1508 178.074 22.3756C178.04 22.2552 178.009 22.1229 177.973 21.9682C177.945 21.8452 177.913 21.708 177.874 21.5515C177.648 20.6534 177.244 19.4995 175.957 18.2126L175.957 18.2126C174.807 17.0628 173.009 16.2364 171.648 15.6102C171.589 15.5832 171.531 15.5566 171.474 15.5303C170.753 15.1984 170.199 14.9353 169.877 14.7064C169.854 14.69 169.834 14.6748 169.816 14.6609C169.876 14.64 169.953 14.6193 170.047 14.6008C170.297 14.5518 170.631 14.5251 171.036 14.5262C171.845 14.5285 172.879 14.6409 173.968 14.8585C175.056 15.0758 176.183 15.3948 177.179 15.8028C178.182 16.2137 179.016 16.7006 179.552 17.2362C180.067 17.7509 180.207 18.2192 180.184 18.6524C180.159 19.1162 179.943 19.6093 179.607 20.1454C179.391 20.4915 179.154 20.8115 178.914 21.1378C178.772 21.3304 178.628 21.5251 178.486 21.7287Z" fill="#FF0000" stroke="#FF0000"/>
<path d="M39.2384 2.04404C39.9423 2.04404 40.4162 2.09965 40.7345 2.18778C41.0466 2.2742 41.1717 2.3811 41.2316 2.46154C41.2955 2.54731 41.3394 2.67462 41.356 2.90702C41.3676 3.06923 41.3647 3.2326 41.3612 3.42958C41.3593 3.53744 41.3572 3.65538 41.3572 3.78872C41.3572 3.95663 41.2799 4.15814 41.0577 4.3869C40.8338 4.61743 40.4877 4.84727 40.0273 5.05098C39.3505 5.35042 38.4755 5.57183 37.5061 5.66779C37.5252 5.5046 37.5046 5.34184 37.4534 5.18844C37.2846 4.68183 36.7887 4.26954 36.2797 3.98397C35.7445 3.68377 35.0785 3.45743 34.4102 3.38244C34.255 3.36503 34.0967 3.3555 33.9377 3.35569C34.2399 3.16771 34.6193 2.98459 35.0585 2.81692C36.2787 2.35108 37.8551 2.04404 39.2384 2.04404Z" fill="#FF0000" stroke="#FF0000"/>
<path d="M73.1475 44.2939C73.9626 44.7423 74.7627 45.5358 75.4122 46.462C75.8561 47.0951 76.2078 47.7603 76.4289 48.3603C76.6557 48.9755 76.7231 49.4631 76.6697 49.766C76.5561 50.4104 76.042 50.9877 75.172 51.3602C74.3069 51.7306 73.148 51.8663 71.9072 51.6475C70.7259 51.4392 69.185 50.4765 67.9552 49.3067C67.348 48.7291 66.8423 48.1248 66.5104 47.5761C66.3875 47.3728 66.2953 47.1885 66.2295 47.0244C67.99 47.6011 69.8673 47.5785 71.2213 47.0692C72.0044 46.7746 72.6793 46.29 72.9987 45.5898C73.1829 45.1857 73.2318 44.7485 73.1475 44.2939Z" fill="#FF0000" stroke="#FF0000"/>
<line x1="37.0006" y1="58.504" x2="74.786" y2="43.9136" stroke="#FF0000"/>
<path d="M37.1324 58.3183L37.0031 58.6622L37.2926 58.8883C37.9632 59.4121 38.4152 59.9234 38.6092 60.3773C38.7029 60.5966 38.7305 60.7886 38.7077 60.9592C38.6852 61.1273 38.6091 61.3099 38.4385 61.5065C38.2771 61.6925 37.9381 61.8187 37.3259 61.7963C36.7351 61.7747 36.0171 61.6187 35.2644 61.4025C34.6062 61.2134 33.948 60.9864 33.3525 60.781C33.2705 60.7528 33.1898 60.7249 33.1104 60.6976C32.8075 60.5936 32.5107 60.4925 32.2421 60.411C32.3722 60.1873 32.5135 59.9344 32.6612 59.6699C32.6789 59.6381 32.6967 59.6062 32.7146 59.5742C33.0598 58.9563 33.4568 58.2495 33.884 57.5825C34.3135 56.9116 34.7583 56.3057 35.1925 55.8802C35.6461 55.4357 35.9889 55.2858 36.2223 55.302C36.5909 55.3276 36.8343 55.4402 36.9994 55.5839C37.167 55.7299 37.2899 55.9394 37.3614 56.2162C37.5084 56.786 37.4152 57.566 37.1324 58.3183Z" fill="#FF0000" stroke="#FF0000"/>
<path d="M37.1685 58.7246L38.3462 57.3212L38.9728 59.0428L37.1685 58.7246Z" fill="#FF0000"/>
</g>
<defs>
<filter id="filter0_d_55_1178" x="0" y="0.0716553" width="227" height="78.2272" filterUnits="userSpaceOnUse" color-interpolation-filters="sRGB">
<feFlood flood-opacity="0" result="BackgroundImageFix"/>
<feColorMatrix in="SourceAlpha" type="matrix" values="0 0 0 0 0 0 0 0 0 0 0 0 0 0 0 0 0 0 127 0" result="hardAlpha"/>
<feOffset dy="8"/>
<feGaussianBlur stdDeviation="4"/>
<feComposite in2="hardAlpha" operator="out"/>
<feColorMatrix type="matrix" values="0 0 0 0 0 0 0 0 0 0 0 0 0 0 0 0 0 0 0.25 0"/>
<feBlend mode="normal" in2="BackgroundImageFix" result="effect1_dropShadow_55_1178"/>
<feBlend mode="normal" in="SourceGraphic" in2="effect1_dropShadow_55_1178" result="shape"/>
</filter>
</defs>
</svg>
