<svg width="121" height="338" viewBox="0 0 121 338" fill="none" xmlns="http://www.w3.org/2000/svg">
<g filter="url(#filter0_d_59_6)">
<path d="M92.1749 66.1405L42.4112 84.253L41.0584 83.1176C36.0782 78.9375 31.8105 73.9758 28.4223 68.4264L25.842 64.2004L20.0289 51.7204L14.0782 35.3711L81.3845 10.8736L87.3352 27.2229L90.8809 40.5281L92.0705 49.4068C92.5883 53.272 92.7281 57.1786 92.4878 61.071L92.1749 66.1405Z" fill="url(#paint0_linear_59_6)"/>
<rect x="84.2485" y="9.83093" width="77.7217" height="5.07985" rx="2.53992" transform="rotate(160 84.2485 9.83093)" fill="#AD394E"/>
<g filter="url(#filter1_d_59_6)">
<rect x="95.6377" y="70.8263" width="57.4023" height="5.58783" rx="2.79392" transform="rotate(160 95.6377 70.8263)" fill="#AD394E"/>
</g>
<path d="M76.5444 7.22913L70.3389 9.48776L69.8881 8.24937C69.3215 6.69243 70.1242 4.9709 71.6812 4.40423L72.2486 4.19771C73.8055 3.63104 75.527 4.4338 76.0937 5.99073L76.5444 7.22913Z" fill="#9D3347"/>
<path d="M22.1265 27.0355L15.9209 29.2942L15.4702 28.0558C14.9035 26.4988 15.7063 24.7773 17.2632 24.2106L17.8306 24.0041C19.3875 23.4374 21.109 24.2402 21.6757 25.7971L22.1265 27.0355Z" fill="#9D3347"/>
<rect x="88.7554" y="60.0868" width="51.3065" height="13.7156" rx="5" transform="rotate(160 88.7554 60.0868)" fill="#86465B"/>
<rect x="81.8926" y="41.2314" width="51.3065" height="24.3833" rx="5" transform="rotate(160 81.8926 41.2314)" fill="#86465B"/>
<circle cx="62.3147" cy="62.8182" r="2.66692" transform="rotate(160 62.3147 62.8182)" fill="#9B596C"/>
<circle cx="53.5408" cy="38.7122" r="2.66692" transform="rotate(160 53.5408 38.7122)" fill="#9B596C"/>
</g>
<g filter="url(#filter2_d_59_6)">
<ellipse cx="77.115" cy="103.111" rx="28.9551" ry="15.6205" transform="rotate(160 77.115 103.111)" fill="#A6364A"/>
<ellipse cx="77.1907" cy="102.947" rx="23.2403" ry="12.4456" transform="rotate(160 77.1907 102.947)" fill="url(#paint1_linear_59_6)"/>
<path d="M107.141 107.259C108.967 108.791 109.206 111.515 107.673 113.341C106.14 115.168 103.417 115.406 101.59 113.873L96.2119 109.36L101.762 102.746L107.141 107.259Z" fill="#A6364A"/>
<path d="M65.3405 127.068C64.9265 129.416 62.6872 130.984 60.3389 130.57C57.9906 130.156 56.4226 127.916 56.8367 125.568L58.0559 118.654L66.5597 120.153L65.3405 127.068Z" fill="#A6364A"/>
</g>
<path d="M60.0768 87.4021L58.2192 88.0782C57.8499 87.0634 56.9785 86.3145 55.9198 86.1019L54.6931 85.8556L55.9322 85.7261C56.2234 85.6957 56.4957 85.5675 56.7048 85.3625C56.9528 85.1193 57.2881 84.9858 57.6354 84.9921L57.701 84.9933C58.0484 84.9996 58.3866 84.8811 58.6541 84.6594L58.7574 84.5738C59.0307 84.3472 59.3787 84.2307 59.7333 84.2469C60.0682 84.2622 60.3978 84.1591 60.6643 83.9557L61.3493 83.4329L60.5679 84.4101C59.8936 85.2535 59.7074 86.3874 60.0768 87.4021Z" fill="url(#paint2_linear_59_6)"/>
<path d="M65.5407 90.2151C65.5403 90.2149 65.5452 90.2122 65.5567 90.2073C65.5468 90.2128 65.5411 90.2153 65.5407 90.2151Z" stroke="#71A1B6" stroke-width="3"/>
<path d="M55.4577 93.6625C55.4579 93.6621 55.4522 93.6632 55.44 93.667C55.4514 93.6647 55.4576 93.6629 55.4577 93.6625Z" stroke="#71A1B6" stroke-width="3"/>
<path d="M67.0372 91.3547C67.2641 91.978 67.0889 92.6767 66.5947 93.1193L64.3117 95.1638C63.1604 96.1949 61.6632 96.755 60.1178 96.7328L56.7466 96.6843C56.0855 96.6748 55.499 96.2578 55.2729 95.6365L67.0372 91.3547Z" fill="url(#paint3_linear_59_6)"/>
<g filter="url(#filter3_d_59_6)">
<circle cx="62.4367" cy="96.5354" r="0.658912" transform="rotate(160 62.4367 96.5354)" fill="#6C8B93"/>
</g>
<rect x="67.3611" y="91.763" width="12.6841" height="0.329456" rx="0.164728" transform="rotate(160 67.3611 91.763)" fill="#6C8B93" stroke="#575757" stroke-width="0.329456"/>
<path d="M67.0371 91.3549L55.2728 95.6367L55.2164 95.4819C54.034 92.2333 55.709 88.6412 58.9577 87.4588C62.2063 86.2764 65.7984 87.9514 66.9808 91.2001L67.0371 91.3549Z" fill="url(#paint4_linear_59_6)"/>
<rect x="98.8062" y="72.1052" width="17.0175" height="2.28593" rx="1.14297" transform="rotate(160 98.8062 72.1052)" fill="#3F3E46"/>
<path d="M93.0576 79.3333L91.6901 77.8038L91.9836 79.7242L90.7354 78.1513L90.9095 80.1151L89.9 78.4553L90.0742 80.4191L89.0646 78.7594L89.4775 80.6363L88.3486 79.02L88.6421 80.9404L87.5133 79.324L87.8068 81.2444L86.6779 79.6281L86.8521 81.5919L85.8425 79.9321L85.42 82.1131L84.4855 77.3177L90.6911 75.059L93.0576 79.3333Z" fill="#2D2F19"/>
<g filter="url(#filter4_d_59_6)">
<path d="M84.1931 319.154C84.7574 319.626 84.3313 320.541 83.6063 320.413L8.70212 307.206C7.95187 307.073 7.89398 306.019 8.62525 305.805C9.28287 305.613 9.77446 305.064 9.89343 304.39L9.96942 303.959C10.2096 302.596 11.5086 301.687 12.8708 301.927L81.5671 314.04C82.9669 314.287 83.9015 315.622 83.6547 317.021L83.5769 317.463C83.4652 318.096 83.7002 318.741 84.1931 319.154Z" fill="#4C1E11"/>
<path d="M83.0731 320.319L66.3268 321.608C63.8377 321.799 61.3972 322.399 59.1032 323.384L58.7787 323.523C50.6634 327.007 41.255 325.348 34.8206 319.299C32.8347 317.432 30.522 315.947 27.9982 314.918L9.37583 307.324L31.6259 181.138L105.323 194.132L83.0731 320.319Z" fill="url(#paint5_linear_59_6)"/>
<path d="M82.3292 318.335C82.3079 318.456 82.206 318.546 82.0836 318.552L65.8019 319.349C64.666 319.405 63.5367 319.554 62.4254 319.795L54.9786 321.412C48.8568 322.741 42.4597 321.338 37.4564 317.568L35.0903 315.785C33.4043 314.515 31.5465 313.491 29.5725 312.743L12.5117 306.279C12.3929 306.234 12.3229 306.11 12.345 305.985C12.3738 305.822 12.544 305.725 12.6991 305.784L30.5486 312.547C31.9375 313.073 33.2467 313.789 34.4389 314.675L37.5128 316.959C42.4887 320.656 48.8045 322.058 54.8772 320.812L63.1574 319.114C63.8439 318.973 64.5402 318.885 65.2402 318.851L82.0579 318.027C82.2261 318.019 82.3585 318.169 82.3292 318.335Z" fill="#2E1008"/>
<path d="M56.2577 307.633L63.4176 267.028L83.7162 270.607L77.028 308.538L70.5771 308.365L70.5272 308.363L70.4775 308.367L65.3357 308.742C63.5932 308.869 61.8646 309.143 60.1683 309.562L58.7062 309.922C57.3026 310.268 56.0067 309.057 56.2577 307.633Z" stroke="#2E1008" stroke-width="2"/>
<path d="M41.0336 304.948L48.1934 264.343L27.8948 260.764L21.2066 298.694L27.3276 300.738L27.3749 300.754L27.4204 300.774L32.1238 302.885C33.7177 303.601 35.2483 304.45 36.6992 305.423L37.9498 306.262C39.1504 307.067 40.7825 306.372 41.0336 304.948Z" stroke="#2E1008" stroke-width="2"/>
<rect x="84.8114" y="264.395" width="20.6118" height="65.2969" transform="rotate(-170 84.8114 264.395)" stroke="url(#paint6_linear_59_6)" stroke-width="2"/>
<rect x="49.2884" y="258.132" width="20.6118" height="65.2969" transform="rotate(-170 49.2884 258.132)" stroke="url(#paint7_linear_59_6)" stroke-width="2"/>
<line x1="45.3715" y1="321.871" x2="68.463" y2="190.913" stroke="#290E07" stroke-width="0.5"/>
<line x1="79.9263" y1="318.124" x2="101.607" y2="196.756" stroke="url(#paint8_linear_59_6)" stroke-width="0.5"/>
<line x1="13.6513" y1="306.438" x2="35.06" y2="185.023" stroke="url(#paint9_linear_59_6)" stroke-width="0.5"/>
<line x1="101.538" y1="196.999" x2="35.2631" y2="185.313" stroke="#633528" stroke-width="0.5"/>
<circle cx="59.2693" cy="263.094" r="2.1535" transform="rotate(-170 59.2693 263.094)" fill="url(#paint10_linear_59_6)"/>
<circle cx="52.9065" cy="261.972" r="2.1535" transform="rotate(-170 52.9065 261.972)" fill="url(#paint11_linear_59_6)"/>
<path d="M105.323 194.132L31.626 181.138L33.1218 172.654L36.8332 173.309C37.6851 176.941 40.6198 179.717 44.2942 180.365L94.3381 189.189C97.6263 189.768 100.862 187.929 102.047 184.808L106.819 185.649L105.323 194.132Z" fill="url(#paint12_linear_59_6)"/>
</g>
<defs>
<filter id="filter0_d_59_6" x="2.19141" y="0.0159912" width="100.66" height="101.657" filterUnits="userSpaceOnUse" color-interpolation-filters="sRGB">
<feFlood flood-opacity="0" result="BackgroundImageFix"/>
<feColorMatrix in="SourceAlpha" type="matrix" values="0 0 0 0 0 0 0 0 0 0 0 0 0 0 0 0 0 0 127 0" result="hardAlpha"/>
<feOffset dy="4"/>
<feGaussianBlur stdDeviation="4"/>
<feComposite in2="hardAlpha" operator="out"/>
<feColorMatrix type="matrix" values="0 0 0 0 0 0 0 0 0 0 0 0 0 0 0 0 0 0 0.25 0"/>
<feBlend mode="normal" in2="BackgroundImageFix" result="effect1_dropShadow_59_6"/>
<feBlend mode="normal" in="SourceGraphic" in2="effect1_dropShadow_59_6" result="shape"/>
</filter>
<filter id="filter1_d_59_6" x="32.5723" y="62.3618" width="70.2793" height="39.3109" filterUnits="userSpaceOnUse" color-interpolation-filters="sRGB">
<feFlood flood-opacity="0" result="BackgroundImageFix"/>
<feColorMatrix in="SourceAlpha" type="matrix" values="0 0 0 0 0 0 0 0 0 0 0 0 0 0 0 0 0 0 127 0" result="hardAlpha"/>
<feOffset dy="4"/>
<feGaussianBlur stdDeviation="4"/>
<feComposite in2="hardAlpha" operator="out"/>
<feColorMatrix type="matrix" values="0 0 0 0 0 0 0 0 0 0 0 0 0 0 0 0 0 0 0.25 0"/>
<feBlend mode="normal" in2="BackgroundImageFix" result="effect1_dropShadow_59_6"/>
<feBlend mode="normal" in="SourceGraphic" in2="effect1_dropShadow_59_6" result="shape"/>
</filter>
<filter id="filter2_d_59_6" x="41.3813" y="81.4021" width="75.3018" height="61.2339" filterUnits="userSpaceOnUse" color-interpolation-filters="sRGB">
<feFlood flood-opacity="0" result="BackgroundImageFix"/>
<feColorMatrix in="SourceAlpha" type="matrix" values="0 0 0 0 0 0 0 0 0 0 0 0 0 0 0 0 0 0 127 0" result="hardAlpha"/>
<feOffset dy="4"/>
<feGaussianBlur stdDeviation="4"/>
<feComposite in2="hardAlpha" operator="out"/>
<feColorMatrix type="matrix" values="0 0 0 0 0 0 0 0 0 0 0 0 0 0 0 0 0 0 0.25 0"/>
<feBlend mode="normal" in2="BackgroundImageFix" result="effect1_dropShadow_59_6"/>
<feBlend mode="normal" in="SourceGraphic" in2="effect1_dropShadow_59_6" result="shape"/>
</filter>
<filter id="filter3_d_59_6" x="53.7778" y="91.8763" width="17.3179" height="17.3181" filterUnits="userSpaceOnUse" color-interpolation-filters="sRGB">
<feFlood flood-opacity="0" result="BackgroundImageFix"/>
<feColorMatrix in="SourceAlpha" type="matrix" values="0 0 0 0 0 0 0 0 0 0 0 0 0 0 0 0 0 0 127 0" result="hardAlpha"/>
<feOffset dy="4"/>
<feGaussianBlur stdDeviation="4"/>
<feComposite in2="hardAlpha" operator="out"/>
<feColorMatrix type="matrix" values="0 0 0 0 0 0 0 0 0 0 0 0 0 0 0 0 0 0 0.18 0"/>
<feBlend mode="normal" in2="BackgroundImageFix" result="effect1_dropShadow_59_6"/>
<feBlend mode="normal" in="SourceGraphic" in2="effect1_dropShadow_59_6" result="shape"/>
</filter>
<filter id="filter4_d_59_6" x="0.106934" y="168.654" width="114.712" height="168.669" filterUnits="userSpaceOnUse" color-interpolation-filters="sRGB">
<feFlood flood-opacity="0" result="BackgroundImageFix"/>
<feColorMatrix in="SourceAlpha" type="matrix" values="0 0 0 0 0 0 0 0 0 0 0 0 0 0 0 0 0 0 127 0" result="hardAlpha"/>
<feOffset dy="4"/>
<feGaussianBlur stdDeviation="4"/>
<feComposite in2="hardAlpha" operator="out"/>
<feColorMatrix type="matrix" values="0 0 0 0 0 0 0 0 0 0 0 0 0 0 0 0 0 0 0.25 0"/>
<feBlend mode="normal" in2="BackgroundImageFix" result="effect1_dropShadow_59_6"/>
<feBlend mode="normal" in="SourceGraphic" in2="effect1_dropShadow_59_6" result="shape"/>
</filter>
<linearGradient id="paint0_linear_59_6" x1="66.756" y1="75.3922" x2="47.7314" y2="23.1224" gradientUnits="userSpaceOnUse">
<stop stop-color="#AD394E"/>
<stop offset="1" stop-color="#9D3447"/>
</linearGradient>
<linearGradient id="paint1_linear_59_6" x1="100.431" y1="102.947" x2="53.9504" y2="102.947" gradientUnits="userSpaceOnUse">
<stop stop-color="#A3AEBA"/>
<stop offset="1" stop-color="#7094BB"/>
</linearGradient>
<linearGradient id="paint2_linear_59_6" x1="58.0212" y1="84.6442" x2="59.148" y2="87.7401" gradientUnits="userSpaceOnUse">
<stop stop-color="#608A9C"/>
<stop offset="1" stop-color="#213036"/>
</linearGradient>
<linearGradient id="paint3_linear_59_6" x1="62.3664" y1="96.8237" x2="61.1551" y2="93.4956" gradientUnits="userSpaceOnUse">
<stop stop-color="#6C8B93"/>
<stop offset="1" stop-color="#546D74"/>
</linearGradient>
<linearGradient id="paint4_linear_59_6" x1="61.1549" y1="93.4958" x2="58.9577" y2="87.4588" gradientUnits="userSpaceOnUse">
<stop stop-color="#71A1B6"/>
<stop offset="1" stop-color="#496B7A"/>
</linearGradient>
<linearGradient id="paint5_linear_59_6" x1="43.5601" y1="328.932" x2="68.4746" y2="187.635" gradientUnits="userSpaceOnUse">
<stop stop-color="#461A0D"/>
<stop offset="1" stop-color="#753E2F"/>
</linearGradient>
<linearGradient id="paint6_linear_59_6" x1="96.9284" y1="265.554" x2="96.9284" y2="332.851" gradientUnits="userSpaceOnUse">
<stop stop-color="#2E1008"/>
<stop offset="1" stop-color="#643629"/>
</linearGradient>
<linearGradient id="paint7_linear_59_6" x1="61.4055" y1="259.29" x2="61.4055" y2="326.587" gradientUnits="userSpaceOnUse">
<stop stop-color="#2E1008"/>
<stop offset="1" stop-color="#643629"/>
</linearGradient>
<linearGradient id="paint8_linear_59_6" x1="80.6646" y1="318.255" x2="102.345" y2="196.888" gradientUnits="userSpaceOnUse">
<stop stop-color="#290E07"/>
<stop offset="1" stop-color="#633528"/>
</linearGradient>
<linearGradient id="paint9_linear_59_6" x1="14.3899" y1="306.569" x2="35.7986" y2="185.154" gradientUnits="userSpaceOnUse">
<stop stop-color="#290E07"/>
<stop offset="1" stop-color="#633528"/>
</linearGradient>
<linearGradient id="paint10_linear_59_6" x1="59.2693" y1="265.247" x2="59.2693" y2="260.94" gradientUnits="userSpaceOnUse">
<stop stop-color="#68440F"/>
<stop offset="1" stop-color="#B47415"/>
</linearGradient>
<linearGradient id="paint11_linear_59_6" x1="52.9065" y1="264.125" x2="52.9065" y2="259.818" gradientUnits="userSpaceOnUse">
<stop stop-color="#68440F"/>
<stop offset="1" stop-color="#B47415"/>
</linearGradient>
<linearGradient id="paint12_linear_59_6" x1="68.4746" y1="187.635" x2="69.9704" y2="179.152" gradientUnits="userSpaceOnUse">
<stop stop-color="#602E20"/>
<stop offset="1" stop-color="#733C2D"/>
</linearGradient>
</defs>
</svg>
