<svg width="564" height="225" viewBox="0 0 564 225" fill="none" xmlns="http://www.w3.org/2000/svg">
<rect x="564" y="80" width="564" height="80" transform="rotate(-180 564 80)" fill="#D9D9D9"/>
<path d="M543.42 51.0822C543.147 54.9786 539.906 58 536 58C532.094 58 528.853 54.9786 528.58 51.0822L525 0H547L543.42 51.0822Z" fill="url(#paint0_linear_55_1108)"/>
<path d="M494.42 51.0822C494.147 54.9786 490.906 58 487 58C483.094 58 479.853 54.9786 479.58 51.0822L476 0H498L494.42 51.0822Z" fill="url(#paint1_linear_55_1108)"/>
<path d="M445.42 51.0822C445.147 54.9786 441.906 58 438 58C434.094 58 430.853 54.9786 430.58 51.0822L427 0H449L445.42 51.0822Z" fill="url(#paint2_linear_55_1108)"/>
<path d="M396.42 51.0822C396.147 54.9786 392.906 58 389 58C385.094 58 381.853 54.9786 381.58 51.0822L378 0H400L396.42 51.0822Z" fill="url(#paint3_linear_55_1108)"/>
<path d="M347.42 51.0822C347.147 54.9786 343.906 58 340 58C336.094 58 332.853 54.9786 332.58 51.0822L329 0H351L347.42 51.0822Z" fill="url(#paint4_linear_55_1108)"/>
<path d="M298.42 51.0822C298.147 54.9786 294.906 58 291 58C287.094 58 283.853 54.9786 283.58 51.0822L280 0H302L298.42 51.0822Z" fill="url(#paint5_linear_55_1108)"/>
<path d="M249.42 51.0822C249.147 54.9786 245.906 58 242 58C238.094 58 234.853 54.9786 234.58 51.0822L231 0H253L249.42 51.0822Z" fill="url(#paint6_linear_55_1108)"/>
<path d="M200.42 51.0822C200.147 54.9786 196.906 58 193 58C189.094 58 185.853 54.9786 185.58 51.0822L182 0H204L200.42 51.0822Z" fill="url(#paint7_linear_55_1108)"/>
<path d="M151.42 51.0822C151.147 54.9786 147.906 58 144 58C140.094 58 136.853 54.9786 136.58 51.0822L133 0H155L151.42 51.0822Z" fill="url(#paint8_linear_55_1108)"/>
<path d="M102.42 51.0822C102.147 54.9786 98.906 58 95 58C91.094 58 87.8534 54.9786 87.5803 51.0822L84 0H106L102.42 51.0822Z" fill="url(#paint9_linear_55_1108)"/>
<path d="M53.4197 51.0822C53.1465 54.9786 49.906 58 46 58C42.094 58 38.8534 54.9786 38.5803 51.0822L35 0H57L53.4197 51.0822Z" fill="url(#paint10_linear_55_1108)"/>
<path d="M530.986 138.781C528.918 145.76 522.507 150.547 515.228 150.547H507.523C504.838 150.547 502.472 148.787 501.7 146.216C501.567 145.772 501.485 145.314 501.456 144.851L498.689 100.977C498.263 94.2206 501.498 87.756 507.16 84.0461C510.623 81.7772 514.738 80.7132 518.867 81.0191L528.676 81.7457C540.988 82.6577 549.123 94.9515 545.148 106.64C544.717 107.908 544.153 109.127 543.464 110.275L536.805 121.372C535.939 122.817 535.258 124.365 534.779 125.98L530.986 138.781Z" fill="url(#paint11_linear_55_1108)"/>
<path d="M530.148 148.038C530.317 148.996 529.984 149.974 529.266 150.63L528.32 151.493C522.888 156.454 515.17 158.032 508.226 155.601L505.745 154.733C504.8 154.402 504.108 153.587 503.934 152.601C503.635 150.907 504.938 149.353 506.659 149.353L511.352 149.353C514.759 149.353 518.141 148.773 521.354 147.637L526.402 145.852C528.058 145.266 529.843 146.308 530.148 148.038Z" fill="url(#paint12_linear_55_1108)"/>
<path d="M523 159.048L516.01 161.047C516.658 158.758 516.667 156.335 516.037 154.04L516.01 153.941L519.949 153.246L520.041 153.879C520.336 155.915 521.394 157.762 523 159.048Z" fill="url(#paint13_linear_55_1108)"/>
<path d="M533.5 81.3587C533.5 82.4949 532.466 83.3505 531.35 83.1379L527.987 82.4974C524.689 81.8693 521.306 81.8422 517.999 82.4173L513.64 83.1752C512.523 83.3696 511.5 82.5093 511.5 81.3749C511.5 80.3656 512.318 79.5475 513.327 79.5475H531.689C532.689 79.5475 533.5 80.3584 533.5 81.3587Z" fill="#54627E"/>
<path d="M543.206 149.511C542.304 150.268 540.97 150.199 540.152 149.352L532.257 141.188C531.401 140.303 530.662 139.312 530.058 138.238L529.58 137.389C528.725 135.869 529.074 133.956 530.41 132.835L531.021 132.322C531.654 131.79 532.526 131.645 533.298 131.942C535.568 132.816 537.201 134.835 537.581 137.238L538.184 141.047C538.385 142.319 539.121 143.444 540.207 144.137L542.971 145.903C544.247 146.718 544.366 148.538 543.206 149.511Z" fill="url(#paint14_linear_55_1108)"/>
<path d="M499.979 136.997C498.82 137.202 497.699 136.475 497.414 135.333L494.659 124.315C494.36 123.121 494.216 121.893 494.23 120.661L494.241 119.687C494.26 117.943 495.519 116.46 497.236 116.157L498.022 116.019C498.836 115.875 499.664 116.185 500.183 116.828C501.713 118.721 502.117 121.285 501.245 123.556L499.862 127.156C499.4 128.359 499.476 129.701 500.069 130.844L501.58 133.755C502.278 135.099 501.471 136.734 499.979 136.997Z" fill="url(#paint15_linear_55_1108)"/>
<path d="M538.279 121.986C539.083 121.844 539.907 122.078 540.516 122.622L541.473 123.477C545.715 127.265 547.615 133.027 546.459 138.596L544.597 147.559C544.435 148.34 543.813 148.944 543.028 149.082C541.725 149.312 540.577 148.204 540.759 146.894L541.963 138.247C542.518 134.267 540.861 130.301 537.64 127.898L537.534 127.819C536.869 127.323 536.413 126.596 536.255 125.781L536.126 125.114C535.844 123.653 536.813 122.244 538.279 121.986Z" fill="url(#paint16_linear_55_1108)"/>
<path d="M547.5 123.685C547.5 124.945 546.125 125.724 545.044 125.077L543.425 124.107C542.581 123.601 541.529 123.596 540.68 124.094L538.995 125.083C537.89 125.731 536.5 124.935 536.5 123.655C536.5 123.077 536.8 122.542 537.293 122.241L539.062 121.161C540.698 120.163 542.742 120.116 544.422 121.037L546.658 122.263C547.177 122.548 547.5 123.093 547.5 123.685Z" fill="url(#paint17_linear_55_1108)"/>
<path d="M524.5 131.881C524.5 132.801 523.754 133.547 522.833 133.547H509.167C508.246 133.547 507.5 132.801 507.5 131.881C507.5 127.278 511.231 123.547 515.833 123.547H516.167C520.769 123.547 524.5 127.278 524.5 131.881Z" fill="#F8F8F8"/>
<path d="M523.5 132.381C523.5 132.473 523.425 132.547 523.333 132.547H517.632C516.212 132.547 514.795 132.648 513.389 132.849L508.871 133.494C508.675 133.522 508.5 133.371 508.5 133.173C508.5 132.275 509.228 131.547 510.125 131.547H522.667C523.127 131.547 523.5 131.921 523.5 132.381Z" fill="#422A07"/>
<path d="M511.015 132.364C511.283 133.883 510.268 135.332 508.749 135.6L499.847 137.17C498.668 137.378 497.543 136.591 497.332 135.412C497.142 134.343 497.77 133.298 498.804 132.965L507.406 130.19C509.02 129.67 510.721 130.695 511.015 132.364Z" fill="url(#paint18_linear_55_1108)"/>
<rect x="520.5" y="124.547" width="9" height="1" transform="rotate(-180 520.5 124.547)" fill="#F8F8F8"/>
<path d="M446.013 106.847C446.004 106.512 445.887 106.192 445.738 105.908C445.581 105.61 445.371 105.318 445.151 105.043C444.937 104.776 444.703 104.511 444.485 104.264L444.464 104.241C444.236 103.983 444.028 103.747 443.857 103.528C443.684 103.305 443.576 103.133 443.526 103.006C443.511 102.966 443.504 102.939 443.502 102.923C443.529 102.903 443.602 102.858 443.774 102.814C444.013 102.753 444.372 102.712 444.894 102.707C446.581 103.481 447.992 103.651 449.25 103.43C450.521 103.206 451.581 102.591 452.555 101.915C452.891 101.683 453.215 101.445 453.536 101.21C455.123 100.048 456.605 98.9626 458.772 98.9626C459.115 98.9626 459.565 99.0816 460.103 99.3344C460.635 99.5843 461.221 99.9494 461.828 100.403C463.042 101.312 464.302 102.548 465.329 103.843C466.363 105.147 467.126 106.465 467.395 107.535C467.529 108.067 467.53 108.494 467.424 108.816C467.326 109.112 467.124 109.361 466.746 109.541C465.688 109.893 463.867 110.014 461.665 109.943C459.466 109.873 456.952 109.614 454.578 109.248C452.201 108.881 449.979 108.408 448.36 107.914C447.548 107.666 446.909 107.42 446.484 107.189C446.27 107.072 446.133 106.973 446.057 106.897C446.034 106.874 446.02 106.857 446.013 106.847ZM443.5 102.902C443.501 102.903 443.501 102.905 443.5 102.908C443.5 102.904 443.5 102.902 443.5 102.902ZM446.005 106.835C446.005 106.834 446.004 106.833 446.004 106.833L446.005 106.835Z" stroke="#D9D9D9"/>
<path d="M449 111.463H392V109.963C392 94.2225 404.76 81.4626 420.5 81.4626C436.24 81.4626 449 94.2225 449 109.963V111.463Z" fill="url(#paint19_linear_55_1108)"/>
<path d="M441.472 131.545C441.578 131.227 441.577 130.886 441.534 130.568C441.489 130.235 441.391 129.888 441.279 129.555C441.169 129.231 441.04 128.902 440.919 128.595L440.907 128.567C440.781 128.246 440.666 127.953 440.581 127.689C440.494 127.42 440.452 127.221 440.449 127.085C440.448 127.042 440.451 127.015 440.454 126.999C440.486 126.989 440.571 126.972 440.747 126.99C440.992 127.014 441.344 127.098 441.836 127.272C443.156 128.577 444.425 129.219 445.682 129.441C446.953 129.666 448.159 129.45 449.306 129.148C449.701 129.045 450.087 128.932 450.469 128.821C452.357 128.272 454.122 127.759 456.158 128.5C456.48 128.617 456.862 128.883 457.281 129.305C457.695 129.721 458.121 130.265 458.536 130.899C459.366 132.168 460.128 133.761 460.65 135.329C461.176 136.907 461.442 138.407 461.329 139.504C461.273 140.051 461.128 140.452 460.918 140.718C460.725 140.963 460.45 141.128 460.033 141.168C458.918 141.136 457.166 140.628 455.12 139.808C453.078 138.989 450.805 137.887 448.699 136.73C446.591 135.572 444.665 134.368 443.312 133.351C442.634 132.84 442.118 132.39 441.797 132.027C441.636 131.845 441.541 131.704 441.496 131.607C441.482 131.577 441.475 131.557 441.472 131.545ZM440.46 126.979C440.46 126.979 440.459 126.981 440.457 126.984C440.459 126.98 440.46 126.979 440.46 126.979ZM441.468 131.531C441.468 131.53 441.468 131.529 441.468 131.529L441.468 131.531Z" stroke="#D9D9D9"/>
<path d="M459 87.4626L382 87.4626C382 83.0444 385.582 79.4626 390 79.4626L451 79.4626C455.418 79.4626 459 83.0444 459 87.4626Z" fill="url(#paint20_linear_55_1108)"/>
<path d="M390.644 139.677C389.694 140.809 388.291 141.463 386.813 141.463L380 141.463C383.782 139.572 386.468 136.028 387.267 131.875L387.416 131.1C388.114 127.467 390.115 124.214 393.042 121.952L395.106 120.357L402.001 126.142L390.644 139.677Z" fill="url(#paint21_linear_55_1108)"/>
<path d="M392 112.463L449 112.463V113.963C449 129.703 436.24 142.463 420.5 142.463C404.76 142.463 392 129.703 392 113.963V112.463Z" fill="url(#paint22_linear_55_1108)"/>
<path d="M434 139.463C434 141.663 432.403 143.539 430.231 143.89L421.67 145.274C420.895 145.399 420.105 145.399 419.33 145.274L410.769 143.89C408.597 143.539 407 141.663 407 139.463H434Z" fill="url(#paint23_linear_55_1108)"/>
<circle cx="420" cy="145.463" r="2" transform="rotate(-180 420 145.463)" fill="url(#paint24_linear_55_1108)"/>
<path d="M373.111 151.319C373.111 147.177 374.573 147.319 377.611 147.319C380.648 147.319 383.611 141.676 383.611 145.818C383.611 149.96 385.148 154.318 382.111 154.318C379.073 154.318 373.111 155.461 373.111 151.319Z" fill="white" fill-opacity="0.47"/>
<path d="M388.111 164.82C388.111 160.678 391.962 155.464 395 155.464C398.038 155.464 402 156.322 402 160.464C402 164.606 398.038 163.964 395 163.964C391.962 163.964 388.111 168.962 388.111 164.82Z" fill="white" fill-opacity="0.47"/>
<path d="M374.5 171.963C374.5 167.821 378.962 169.963 382 169.963C385.038 169.963 388 171.322 388 175.464C388 179.606 384.038 178.964 381 178.964C377.962 178.964 374.5 176.105 374.5 171.963Z" fill="white" fill-opacity="0.47"/>
<path d="M76 139.293L35.5932 154L33.3701 147.892C29.3089 136.734 35.062 124.396 46.22 120.335C57.3781 116.274 69.7157 122.027 73.7769 133.185L76 139.293Z" fill="url(#paint25_linear_55_1108)"/>
<path d="M84.4233 136L44.0166 121.293L46.2397 115.185C50.3009 104.027 62.6385 98.2739 73.7965 102.335C84.9545 106.396 90.7077 118.734 86.6465 129.892L84.4233 136Z" fill="url(#paint26_linear_55_1108)"/>
<path d="M26 109.5C26 107.225 26.8108 102.657 28.2115 98.6546C28.9111 96.6556 29.746 94.8327 30.6774 93.5196C31.6251 92.1835 32.5815 91.4999 33.5 91.4999C35.7546 91.4999 38.9248 92.3006 41.5261 93.6808C42.8237 94.3692 43.9536 95.1883 44.7533 96.0988C45.5515 97.0075 46.0001 97.9817 46.0001 98.9991C46.0001 100.121 46.0948 101.137 46.1765 102.014C46.1823 102.076 46.188 102.137 46.1936 102.198C46.2804 103.135 46.3378 103.868 46.2644 104.447C46.1942 105.001 46.0134 105.342 45.6706 105.572C45.2941 105.825 44.6422 105.999 43.4999 105.999C42.2311 105.999 40.443 106.51 38.5461 107.155C37.5861 107.481 36.578 107.849 35.5702 108.217L35.5323 108.231C34.535 108.595 33.5382 108.959 32.5779 109.287C30.6162 109.957 28.8694 110.454 27.6292 110.512C27.0052 110.541 26.5932 110.453 26.3505 110.298C26.149 110.169 26 109.952 26 109.5Z" stroke="#478F2F"/>
<path d="M84 110H41V103.5C41 91.6258 50.6259 81.9999 62.5 81.9999C74.3741 81.9999 84 91.6258 84 103.5V110Z" fill="url(#paint27_linear_55_1108)"/>
<path d="M71 83.9999H54L51 79.9999H74L71 83.9999Z" fill="url(#paint28_linear_55_1108)"/>
<path d="M83.0322 107.728C76.1644 107.728 69.2967 107.728 62.4289 107.728C60.9437 107.728 59.4586 107.728 57.9734 107.728C55.1751 107.728 52.3849 107.396 49.5856 107.396C48.2564 107.396 46.9271 107.396 45.5979 107.396C44.6288 107.396 43.685 107.728 42.7117 107.728" stroke="#81DC63" stroke-linecap="round"/>
<path d="M82.8105 105.291C79.1939 105.291 75.5611 105.196 71.955 104.934C68.3378 104.672 64.6662 104.848 61.0379 104.848C57.1835 104.848 53.3291 104.848 49.4747 104.848C47.2181 104.848 45.0694 105.291 42.8223 105.291" stroke="#81DC63" stroke-linecap="round"/>
<path d="M80.3735 107.618C80.1531 106.956 79.1689 106.488 78.7243 105.962C78.1118 105.238 78.1038 105.199 77.4258 105.956C76.8367 106.614 75.5468 107.61 74.5581 107.39C74.2316 107.317 73.5759 106.813 73.2842 106.621C72.8108 106.308 72.3206 105.938 71.9057 105.562C71.4787 105.176 71.3181 105.339 70.9334 105.624C70.5141 105.934 70.1724 106.254 69.7149 106.534C69.2052 106.847 68.6359 107.639 68.0164 107.285C67.0839 106.752 66.062 106.284 65.1918 105.685C64.3018 105.073 63.9324 105.817 63.1918 106.288C62.7403 106.576 62.2788 106.574 61.8748 106.891C61.5083 107.179 61.0164 107.337 60.5517 107.279C60.2955 107.247 60.042 106.76 59.8317 106.596C59.4448 106.295 58.8409 105.918 58.5517 105.538C58.4415 105.393 57.9566 105.086 57.8009 105.341C57.3507 106.077 56.9076 106.297 56.0532 106.571C55.6783 106.692 54.0101 107.18 54.0101 106.787C54.0101 106.364 53.3025 105.955 53.0008 105.79C52.5403 105.538 51.8726 104.972 51.3024 105.076C51.1165 105.11 51.0226 105.562 50.9085 105.71C50.5638 106.158 49.6313 106.161 49.1362 106.288C48.9641 106.333 47.5222 106.938 47.4746 106.51C47.4208 106.025 47.2368 105.936 46.81 105.71C46.6194 105.609 46.1608 105.152 45.9484 105.513C45.7262 105.891 45.1225 106.112 44.7053 106.202C44.2423 106.302 43.757 106.561 43.3515 106.793C43.1942 106.883 42.8817 107.064 42.7115 107.064" stroke="#81DC63" stroke-linecap="round"/>
<path d="M93.0947 136.858C92.5411 137.688 91.352 137.771 90.689 137.025L89.6363 135.841C88.5689 134.64 87.1738 133.777 85.6226 133.359L83.2887 132.73L84.29 129.955L92.5828 134.69C93.3493 135.128 93.5844 136.124 93.0947 136.858Z" fill="#EBCB49"/>
<path d="M93.3339 136.109C93.1331 136.645 92.6211 137 92.049 137C91.0723 137 90.4083 136.008 90.7802 135.105L92.9497 129.836C93.2947 128.998 93.2105 128.045 92.724 127.281L91.2026 124.89C90.6817 124.071 91.2697 123 92.24 123C92.7058 123 93.1316 123.263 93.3399 123.68L94.7589 126.518C95.5503 128.101 95.6469 129.941 95.0256 131.598L93.3339 136.109Z" fill="#EBCB49"/>
<path d="M85.7422 128.712C85.4921 127.232 85.0806 125.75 84.3584 124.426C84.0603 123.879 83.5989 123.606 82.9624 123.667C81.3681 123.82 79.8982 124.657 78.3091 124.891C77.7525 124.973 76.1783 125.271 75.713 124.806C75.2692 124.362 75.1653 123.652 75.0518 123.067C74.8214 121.88 74.6385 120.143 73.7048 119.283C73.0999 118.726 72.2417 118.678 71.4638 118.695C70.1472 118.724 68.8248 118.915 67.582 119.356C66.2976 119.812 65.0391 120.434 63.6389 120.336C62.9949 120.291 62.6933 119.478 62.4633 118.989C61.9593 117.917 61.3788 116.754 60.6142 115.842C59.0779 114.009 56.4432 115.2 54.6261 115.768C53.4699 116.13 52.8371 116.234 52.0423 115.315C51.3999 114.573 50.7982 113.878 50.2545 113.062" stroke="#82702C" stroke-linecap="round"/>
<path d="M23.7642 152.423L28.9837 150.09C30.6724 149.335 32.0844 148.074 33.0243 146.481L33.6943 145.345C34.4095 144.133 36.1087 143.992 37.0135 145.071C37.6129 145.785 37.6516 146.815 37.1074 147.572L36.0724 149.012C35.0199 150.477 33.6735 151.706 32.1191 152.621L26.6368 155.847L23.7642 152.423Z" fill="#8D417F"/>
<path d="M27.884 153.775C28.2302 154.744 27.7627 155.816 26.8166 156.221C25.8176 156.649 24.6613 156.177 24.2475 155.172L22.2213 150.252C21.7485 149.103 21.581 147.852 21.735 146.62L21.7881 146.195C21.9281 145.075 22.2817 143.993 22.8298 143.006L23.3524 142.066C24.1124 140.698 25.0906 139.463 26.2485 138.41L30 135L35 131.5L33.6931 135.42C33.2493 136.752 32.2948 137.852 31.0395 138.48C30.3547 138.823 29.7523 139.31 29.274 139.907L27.8819 141.648C26.6637 143.17 26 145.062 26 147.012V147.343C26 148.109 26.1316 148.868 26.389 149.589L27.884 153.775Z" fill="url(#paint29_linear_55_1108)"/>
<path d="M71.9386 133.087C71.2871 133.46 70.5422 133.697 69.8547 133.994C69.3428 134.215 68.838 134.46 68.3143 134.65C68.265 134.668 68.9303 136.24 69.0014 136.44C69.0689 136.63 69.0991 136.734 69.2884 136.606C69.8744 136.21 70.6483 136.068 71.3346 135.957C71.5739 135.918 71.795 135.8 71.8027 136.077C71.8091 136.306 71.9026 136.542 71.9764 136.757C72.1921 137.385 72.2924 137.385 71.7121 137.799C70.3887 138.743 68.9634 139.508 67.5177 140.249C67.07 140.479 66.6195 140.684 66.1473 140.857C65.9767 140.92 65.6445 141.098 65.4451 141.061C65.2483 141.025 65.3553 140.328 65.3432 140.189C65.3213 139.937 65.2495 139.66 65.1129 139.445C64.6758 138.758 65.9488 138.879 66.2266 138.758C66.4297 138.669 66.6509 138.626 66.8118 138.456C66.9711 138.287 66.474 137.832 66.404 137.716C66.3181 137.573 65.377 135.276 64.9392 136.315C64.5631 137.209 63.1522 137.333 62.3569 137.572C61.6868 137.775 61.0302 138.062 60.3447 138.207C60.3236 138.211 59.8607 138.252 60.1144 138.252" stroke="#B36AA5" stroke-linecap="round"/>
<path d="M59.9109 138.456C60.0155 139.084 60.4175 139.693 60.5829 140.313C60.6138 140.429 60.5809 140.382 60.5904 140.291C60.6063 140.14 60.8253 140.019 60.9415 139.951C61.1217 139.846 62.152 139.577 62.2365 139.845C62.4293 140.459 62.7948 141.032 62.9538 141.65C62.9915 141.796 62.8983 141.712 62.8179 141.718C62.4994 141.741 62.0727 142.263 61.8589 142.435C60.4242 143.589 58.6617 144.714 56.8038 145.01C56.2614 145.096 56.3772 144.823 56.3772 144.364C56.3772 143.766 56.1212 143.415 55.9733 142.873C55.8723 142.503 55.849 142.337 56.2413 142.178C56.7201 141.985 57.2405 141.822 57.6684 141.529C57.8547 141.402 58.4763 141.241 58.4763 140.94C58.4763 140.842 58.3042 140.724 58.2498 140.653C58.0319 140.371 57.8834 140.024 57.7439 139.698C57.6508 139.481 57.3627 139.205 57.1247 139.407C56.7436 139.731 56.5511 140.08 56.0601 140.306C54.7859 140.891 53.4235 141.183 52.1489 141.771C52.0116 141.834 51.0968 142.302 51.0087 142.126" stroke="#B36AA5" stroke-linecap="round"/>
<path d="M50.9408 142.261C50.9837 142.519 51.1641 142.776 51.2805 143.009C51.4942 143.436 51.4888 143.327 51.8393 143.13C52.1869 142.934 52.8495 142.748 53.2512 142.737C53.4955 142.73 53.6768 143.63 53.7345 143.806C53.7734 143.924 54.3044 145.097 53.9874 145.176C53.6666 145.256 53.4329 145.317 53.1153 145.47C51.7411 146.135 50.3473 146.76 48.9172 147.298C48.7369 147.365 46.0625 148.523 45.9272 148.279C45.8173 148.082 45.9308 147.646 45.9045 147.422C45.8557 147.007 45.7762 146.629 45.7762 146.207C45.7762 145.93 46.4209 145.778 46.6256 145.659C47.042 145.417 47.4662 145.19 47.8828 144.949C48.0485 144.854 48.6101 144.79 48.3887 144.564C48.1662 144.338 47.9145 144.146 47.7167 143.896C47.6312 143.788 47.533 143.634 47.4071 143.568C47.1579 143.437 46.8288 144.06 46.6596 144.176C45.5764 144.915 44.1366 145.244 42.9107 145.686C42.4774 145.842 42.0156 146.044 41.5629 146.135" stroke="#B36AA5" stroke-linecap="round"/>
<path d="M41.5626 146.135C41.7529 146.516 41.9045 146.909 42.0911 147.29C42.1969 147.506 42.3418 147.277 42.5555 147.147C42.8431 146.972 43.3137 146.659 43.6692 146.679C43.773 146.684 43.7953 147.695 43.8127 147.777C43.8298 147.858 44.2343 148.949 44.1071 148.985C43.9737 149.023 43.9209 149.087 43.8127 149.185C43.2699 149.679 42.583 149.993 41.9326 150.318C41.5879 150.49 38.9803 151.873 38.9803 150.892C38.9803 150.387 38.2502 149.746 38.4819 149.325C38.6923 148.943 39.2338 148.93 39.5617 148.702C39.7996 148.537 39.5888 148.527 39.4635 148.34C39.1383 147.852 39.1212 147.203 38.5423 147.766C38.3665 147.937 36.7379 148.718 36.6698 148.581" stroke="#B36AA5" stroke-linecap="round"/>
<path d="M74.1842 153.115L73.083 150.633C72.5008 149.321 71.5174 148.227 70.2742 147.509C69.2487 146.917 68.0861 146.604 66.902 146.6L63.973 146.591C62.5074 146.587 61.0468 146.764 59.6245 147.118L51.8548 149.052L35.9652 153.742L75.9172 139.2L76.506 141.351C76.9195 142.861 77.0615 144.432 76.9254 145.992C76.7457 148.053 76.0851 150.043 74.9967 151.802L74.1842 153.115Z" fill="url(#paint30_linear_55_1108)"/>
<path d="M71.5091 156C71.5091 154.895 72.4045 154 73.5091 154C74.6136 154 73.5093 154.395 73.5093 155.5C73.5093 156.604 74.6136 158 73.5091 158C72.4045 158 71.5091 157.104 71.5091 156Z" fill="#422A07"/>
<path d="M78.5 154C78.5 152.895 76.8954 152 78 152C79.1046 152 82 154.395 82 155.5C82 156.604 80.1046 157.5 79 157.5C77.8954 157.5 78.5 155.104 78.5 154Z" fill="#422A07"/>
<ellipse cx="177.246" cy="220.386" rx="2.5" ry="4" transform="rotate(160 177.246 220.386)" fill="url(#paint31_linear_55_1108)"/>
<ellipse cx="174.029" cy="219.772" rx="2.5" ry="4" transform="rotate(-160 174.029 219.772)" fill="url(#paint32_linear_55_1108)"/>
<path d="M184.583 217.235C184.671 218.396 183.753 219.386 182.588 219.386L175.746 219.386L169.204 216.692C168.141 216.255 167.665 215.013 168.163 213.977L172.898 204.116L183.731 206.026L184.583 217.235Z" fill="url(#paint33_linear_55_1108)"/>
<path d="M244.75 160.296L234.111 160.296C232.897 160.296 231.726 159.855 230.813 159.055L229.736 158.11C226.613 155.369 224.093 152.01 222.335 148.245L219.891 143.006C216.446 135.624 210.148 129.961 202.443 127.317L197.58 125.648L202 109.5L205.956 110.114C219.316 112.188 229.654 123.085 231.178 136.519C231.858 142.512 234.335 148.218 238.273 152.785L244.75 160.296Z" fill="url(#paint34_linear_55_1108)"/>
<path d="M232.045 184.184L224.64 184.184C223.616 184.184 222.626 183.812 221.856 183.136C219.22 180.823 217.093 177.988 215.609 174.809L215.363 174.283C212.138 167.371 206.241 162.068 199.026 159.592L198.162 159.295L198.162 147L204.143 147.983C213.779 149.567 221.191 157.358 222.292 167.061C222.786 171.421 224.584 175.531 227.449 178.854L232.045 184.184Z" fill="url(#paint35_linear_55_1108)"/>
<path d="M221.07 208.722L215.71 208.722C214.968 208.722 214.252 208.452 213.695 207.963C211.787 206.289 210.247 204.237 209.173 201.936L209.111 201.804C206.723 196.685 202.183 192.893 196.721 191.453L192 190.208L190 177.208L201.814 180.986C208.416 183.097 213.166 188.885 213.947 195.773C214.346 199.29 215.796 202.605 218.108 205.286L221.07 208.722Z" fill="url(#paint36_linear_55_1108)"/>
<path d="M164.997 175.241L155.09 183.598C150.161 187.755 144.025 190.214 137.589 190.61L118.025 191.814C116.592 191.902 115.536 190.497 116.019 189.145L117.499 185C123.703 186.551 130.266 184.733 134.788 180.212L138.481 176.518C142.088 172.911 146.63 170.381 151.595 169.213L161.919 166.784L164.997 175.241Z" fill="url(#paint37_linear_55_1108)"/>
<path d="M121.368 190.403L117.501 185L134.808 164.069C137.57 160.73 139.575 156.831 140.686 152.642L144.119 139.698C144.625 137.789 146.808 136.881 148.519 137.869L150.903 139.246L142.45 160.376C141.487 162.782 140.217 165.053 138.671 167.133L121.368 190.403Z" fill="url(#paint38_linear_55_1108)"/>
<path d="M147 141H139.618C138.875 141 138.391 140.218 138.724 139.553L138.896 139.209C139.28 138.44 139.975 137.873 140.806 137.652L147 136V141Z" fill="url(#paint39_linear_55_1108)"/>
<path d="M202.712 205.714C203.71 209.413 200.347 212.815 196.637 211.859L157.084 201.669C154.34 200.962 152.731 198.117 153.539 195.401L156.474 185.539C158.192 179.766 158.132 173.608 156.303 167.869L146.357 136.676C144.811 131.828 144.524 126.667 145.522 121.677L147.235 113.115C150.04 99.093 162.352 89.0001 176.652 89.0001H178.283C191.917 89.0001 203.836 98.1939 207.299 111.381L209.628 120.252C211.173 126.135 210.893 132.347 208.826 138.067L198.086 167.789C195.995 173.575 195.734 179.863 197.337 185.802L202.712 205.714Z" fill="url(#paint40_linear_55_1108)"/>
<path d="M196 95.0001L186.049 92.0417C180.47 90.3832 174.53 90.3832 168.951 92.0417L159 95.0001V94.0822C159 89.4248 157.916 84.8314 155.833 80.6658L155.5 80.0001H200L199.953 80.0829C197.362 84.6158 196 89.7793 196 95.0001Z" fill="url(#paint41_linear_55_1108)"/>
<rect x="200.264" y="214" width="49.1351" height="2.84567" rx="1.42283" transform="rotate(-165 200.264 214)" fill="#130A3A"/>
<path d="M201 199L183.245 191.737C180.431 190.586 177.459 189.869 174.43 189.611L155.5 188L156.428 184.475C157.465 180.533 157.688 176.421 157.083 172.39L156.5 168.5L159.416 170.444C160.404 171.103 161.658 171.218 162.75 170.75L162.972 170.655C163.925 170.247 165.02 170.347 165.884 170.923L166.158 171.106C166.978 171.652 168.038 171.677 168.883 171.17C169.584 170.749 170.445 170.691 171.198 171.013L172.204 171.445C173.026 171.797 173.961 171.77 174.761 171.37L175.164 171.168C175.978 170.761 176.955 170.864 177.667 171.433C178.461 172.069 179.575 172.117 180.421 171.553L180.895 171.237C181.553 170.798 182.419 170.836 183.037 171.33L183.482 171.685C184.039 172.131 184.854 172.028 185.283 171.457C185.685 170.92 186.437 170.791 186.995 171.163L187.607 171.572C188.417 172.111 189.495 172.005 190.184 171.316L190.25 171.25C190.977 170.523 192.116 170.411 192.971 170.981L193.155 171.103C193.969 171.646 195.031 171.646 195.845 171.103L197.5 170L197.158 179.913C197.053 182.953 197.412 185.992 198.221 188.925L201 199Z" fill="#130A3A"/>
<path d="M189.765 185.064L188.787 180.826L193.24 182.447L189.765 185.064Z" fill="white"/>
<path d="M178.5 184L174.603 178H182.397L178.5 184Z" fill="white"/>
<path d="M164.5 183L161.469 178.5H167.531L164.5 183Z" fill="white"/>
<path d="M210.199 133H145.5L145 129V124L145.5 120.5L146.5 115.5L148 110L151 122L156 110L160 122L165 110L170.5 122L173.5 110L177.5 122L181 110L185.5 122L189.5 110L194 122L197.5 110L201.5 122L207 110L209 117.5L209.878 121.453C210.621 124.793 210.786 128.236 210.367 131.632L210.199 133Z" fill="#130A3A"/>
<rect x="194.829" y="86.0001" width="4" height="4" transform="rotate(135 194.829 86.0001)" fill="#BC5C5C"/>
<rect x="186" y="86.1718" width="4" height="4" transform="rotate(135 186 86.1718)" fill="#BC5C5C"/>
<rect x="177" y="86.1718" width="4" height="4" transform="rotate(135 177 86.1718)" fill="#BC5C5C"/>
<rect x="168" y="86.1718" width="4" height="4" transform="rotate(135 168 86.1718)" fill="#BC5C5C"/>
<path d="M334.271 166.019C334.628 169.437 331.511 172.187 328.164 171.408L312.108 167.669C303.156 165.584 293.844 165.584 284.892 167.669L268.915 171.39C265.546 172.174 262.417 169.383 262.814 165.947L272.5 82L325.5 82L334.271 166.019Z" fill="url(#paint42_linear_55_1108)"/>
<path d="M339.765 87.3458C339.613 88.8674 338.363 90.0437 336.835 90.1025L326.5 90.5L321.144 88.2684C316.731 86.4297 312.11 85.1379 307.383 84.4217L307.194 84.3931C301.104 83.4704 294.906 83.5335 288.836 84.58C285.287 85.192 281.803 86.1365 278.43 87.4012L271.5 90H259.014C257.552 90 256.294 88.9683 256.007 87.5351C255.714 86.0706 256.519 84.6081 257.913 84.0719L273.374 78.1254C274.456 77.7091 275.569 77.3763 276.702 77.1299L284.965 75.3337C293.55 73.4674 302.441 73.5092 311.008 75.4563L320 77.5L337.793 84.1722C339.094 84.6602 339.904 85.9629 339.765 87.3458Z" fill="#7D8F6D"/>
<path d="M329 115L314.5 112.5L299 112L286.992 112.364C284.001 112.455 281.022 112.769 278.079 113.304L268.747 115L271.5 90L284 85.5L284.785 85.3319C288.917 84.4464 293.131 84 297.356 84H299H299.144C303.369 84 307.583 84.4464 311.715 85.3319L312.5 85.5L326.5 90.5L329 115Z" fill="#326568"/>
<path d="M332 123.25L330.835 122.58C324.987 119.217 318.614 116.865 311.984 115.622L310 115.25L308.5 100.75V97.6708C308.5 93.2379 307.997 88.8194 307 84.5L312 85.25L317 86.75L326 90.25L326.585 99.3226C326.861 103.595 327.593 107.826 328.769 111.943L332 123.25Z" fill="#F4DEC4"/>
<path d="M326.822 111.122C326.551 111.935 326.314 112.775 325.942 113.55C325.815 113.814 325.847 113.727 325.78 113.541C325.665 113.218 325.603 112.886 325.576 112.54C325.434 110.694 325.395 108.838 325.173 106.999C325.134 106.674 324.988 105.708 324.988 106.035" stroke="#221611" stroke-linecap="round"/>
<path d="M325.488 105.535H324.488" stroke="#221611" stroke-linecap="round"/>
<path d="M322.819 110.956C322.668 111.392 322.477 111.81 322.319 112.244C322.263 112.398 322.152 112.444 322.152 112.623C322.152 113.049 322.069 111.965 322.069 111.789C322.069 111.268 321.89 110.77 321.772 110.265C321.572 109.406 321.402 108.539 321.188 107.685C321.016 106.994 320.985 106.084 320.985 105.368" stroke="#221611" stroke-linecap="round"/>
<path d="M322.319 105.201C321.704 105.201 321.172 105.211 320.651 104.951" stroke="#221611" stroke-linecap="round"/>
<path d="M315.981 107.453C317.345 105.032 318.455 102.564 319.586 100.031C320.281 98.4726 320.921 96.8959 321.559 95.3141C321.661 95.062 321.735 94.8748 321.735 94.6099" stroke="#221611" stroke-linecap="round"/>
<path d="M318.149 98.1126C317.457 99.2743 316.689 101.097 315.064 101.027C313.844 100.974 313.23 99.8901 312.812 98.8539C311.951 96.7194 312.925 94.1976 314.415 92.5853C314.933 92.0254 315.543 91.4188 316.278 91.1537C316.393 91.1121 316.954 90.9552 317.047 91.1629C317.206 91.5215 316.857 91.7893 316.565 91.8903C316.093 92.0538 315.639 91.7796 315.212 91.6077C313.779 91.0301 312.53 90.4402 310.977 90.4402" stroke="#221611" stroke-linecap="round"/>
<defs>
<linearGradient id="paint0_linear_55_1108" x1="536" y1="58" x2="536" y2="0" gradientUnits="userSpaceOnUse">
<stop stop-color="#D9D9D9"/>
<stop offset="1" stop-color="#999999"/>
</linearGradient>
<linearGradient id="paint1_linear_55_1108" x1="487" y1="58" x2="487" y2="0" gradientUnits="userSpaceOnUse">
<stop stop-color="#D9D9D9"/>
<stop offset="1" stop-color="#999999"/>
</linearGradient>
<linearGradient id="paint2_linear_55_1108" x1="438" y1="58" x2="438" y2="0" gradientUnits="userSpaceOnUse">
<stop stop-color="#D9D9D9"/>
<stop offset="1" stop-color="#999999"/>
</linearGradient>
<linearGradient id="paint3_linear_55_1108" x1="389" y1="58" x2="389" y2="0" gradientUnits="userSpaceOnUse">
<stop stop-color="#D9D9D9"/>
<stop offset="1" stop-color="#999999"/>
</linearGradient>
<linearGradient id="paint4_linear_55_1108" x1="340" y1="58" x2="340" y2="0" gradientUnits="userSpaceOnUse">
<stop stop-color="#D9D9D9"/>
<stop offset="1" stop-color="#999999"/>
</linearGradient>
<linearGradient id="paint5_linear_55_1108" x1="291" y1="58" x2="291" y2="0" gradientUnits="userSpaceOnUse">
<stop stop-color="#D9D9D9"/>
<stop offset="1" stop-color="#999999"/>
</linearGradient>
<linearGradient id="paint6_linear_55_1108" x1="242" y1="58" x2="242" y2="0" gradientUnits="userSpaceOnUse">
<stop stop-color="#D9D9D9"/>
<stop offset="1" stop-color="#999999"/>
</linearGradient>
<linearGradient id="paint7_linear_55_1108" x1="193" y1="58" x2="193" y2="0" gradientUnits="userSpaceOnUse">
<stop stop-color="#D9D9D9"/>
<stop offset="1" stop-color="#999999"/>
</linearGradient>
<linearGradient id="paint8_linear_55_1108" x1="144" y1="58" x2="144" y2="0" gradientUnits="userSpaceOnUse">
<stop stop-color="#D9D9D9"/>
<stop offset="1" stop-color="#999999"/>
</linearGradient>
<linearGradient id="paint9_linear_55_1108" x1="95" y1="58" x2="95" y2="0" gradientUnits="userSpaceOnUse">
<stop stop-color="#D9D9D9"/>
<stop offset="1" stop-color="#999999"/>
</linearGradient>
<linearGradient id="paint10_linear_55_1108" x1="46" y1="58" x2="46" y2="0" gradientUnits="userSpaceOnUse">
<stop stop-color="#D9D9D9"/>
<stop offset="1" stop-color="#999999"/>
</linearGradient>
<linearGradient id="paint11_linear_55_1108" x1="525.5" y1="80.5475" x2="525.5" y2="150.547" gradientUnits="userSpaceOnUse">
<stop stop-color="#263141"/>
<stop offset="1" stop-color="#4D688F"/>
</linearGradient>
<linearGradient id="paint12_linear_55_1108" x1="518.399" y1="146.702" x2="522.497" y2="157.938" gradientUnits="userSpaceOnUse">
<stop stop-color="#54627E"/>
<stop offset="1" stop-color="#8096C0"/>
</linearGradient>
<linearGradient id="paint13_linear_55_1108" x1="519.571" y1="160.42" x2="518.355" y2="153.527" gradientUnits="userSpaceOnUse">
<stop stop-color="#54627E"/>
<stop offset="1" stop-color="#7588AF"/>
</linearGradient>
<linearGradient id="paint14_linear_55_1108" x1="528.801" y1="134.184" x2="540.277" y2="151.061" gradientUnits="userSpaceOnUse">
<stop stop-color="#3C4F6B"/>
<stop offset="1" stop-color="#698EC4"/>
</linearGradient>
<linearGradient id="paint15_linear_55_1108" x1="495.168" y1="116.522" x2="496.668" y2="136.875" gradientUnits="userSpaceOnUse">
<stop stop-color="#3C4F6B"/>
<stop offset="1" stop-color="#698EC4"/>
</linearGradient>
<linearGradient id="paint16_linear_55_1108" x1="538.409" y1="121.963" x2="533.684" y2="145.001" gradientUnits="userSpaceOnUse">
<stop stop-color="#3C4F6B"/>
<stop offset="1" stop-color="#678BBF"/>
</linearGradient>
<linearGradient id="paint17_linear_55_1108" x1="536.5" y1="123.047" x2="547.5" y2="123.047" gradientUnits="userSpaceOnUse">
<stop stop-color="#3D506D"/>
<stop offset="1" stop-color="#6A8CC0"/>
</linearGradient>
<linearGradient id="paint18_linear_55_1108" x1="511.411" y1="135.124" x2="500.976" y2="140.237" gradientUnits="userSpaceOnUse">
<stop stop-color="#3A4D69"/>
<stop offset="1" stop-color="#7298CF"/>
</linearGradient>
<linearGradient id="paint19_linear_55_1108" x1="420.5" y1="111.463" x2="420.5" y2="81.4626" gradientUnits="userSpaceOnUse">
<stop stop-color="#D9D9D9"/>
<stop offset="1" stop-color="#737373"/>
</linearGradient>
<linearGradient id="paint20_linear_55_1108" x1="420.5" y1="87.4626" x2="420.5" y2="79.4626" gradientUnits="userSpaceOnUse">
<stop stop-color="#D9D9D9"/>
<stop offset="1" stop-color="#737373"/>
</linearGradient>
<linearGradient id="paint21_linear_55_1108" x1="395.24" y1="134.199" x2="390.29" y2="126.727" gradientUnits="userSpaceOnUse">
<stop stop-color="#D9D9D9"/>
<stop offset="1" stop-color="#A5A5A5"/>
</linearGradient>
<linearGradient id="paint22_linear_55_1108" x1="420.5" y1="142.463" x2="420.5" y2="112.463" gradientUnits="userSpaceOnUse">
<stop stop-color="white"/>
<stop offset="1" stop-color="#BBBBBB"/>
</linearGradient>
<linearGradient id="paint23_linear_55_1108" x1="420.5" y1="145.463" x2="420.5" y2="139.463" gradientUnits="userSpaceOnUse">
<stop stop-color="white"/>
<stop offset="1" stop-color="#BDBDBD"/>
</linearGradient>
<linearGradient id="paint24_linear_55_1108" x1="420" y1="143.463" x2="420" y2="147.463" gradientUnits="userSpaceOnUse">
<stop stop-color="#FF0000"/>
<stop offset="1" stop-color="#990000"/>
</linearGradient>
<linearGradient id="paint25_linear_55_1108" x1="55.7966" y1="146.647" x2="46.22" y2="120.335" gradientUnits="userSpaceOnUse">
<stop stop-color="#A34B93"/>
<stop offset="1" stop-color="#3D1C37"/>
</linearGradient>
<linearGradient id="paint26_linear_55_1108" x1="64.2199" y1="128.646" x2="73.7965" y2="102.335" gradientUnits="userSpaceOnUse">
<stop stop-color="#FBD84E"/>
<stop offset="1" stop-color="#95802E"/>
</linearGradient>
<linearGradient id="paint27_linear_55_1108" x1="62.5" y1="110" x2="62.5" y2="81.9999" gradientUnits="userSpaceOnUse">
<stop stop-color="#5EBD3E"/>
<stop offset="1" stop-color="#2B571D"/>
</linearGradient>
<linearGradient id="paint28_linear_55_1108" x1="62.5" y1="79.9999" x2="62.5" y2="83.9999" gradientUnits="userSpaceOnUse">
<stop stop-color="#478F2F"/>
<stop offset="1" stop-color="#306120"/>
</linearGradient>
<linearGradient id="paint29_linear_55_1108" x1="28.25" y1="157" x2="28.25" y2="131.5" gradientUnits="userSpaceOnUse">
<stop stop-color="#8D417F"/>
<stop offset="1" stop-color="#592950"/>
</linearGradient>
<linearGradient id="paint30_linear_55_1108" x1="78.0519" y1="145.065" x2="38.0999" y2="159.607" gradientUnits="userSpaceOnUse">
<stop stop-color="#422A07"/>
<stop offset="1" stop-color="#A86B12"/>
</linearGradient>
<linearGradient id="paint31_linear_55_1108" x1="177.246" y1="216.386" x2="177.246" y2="224.386" gradientUnits="userSpaceOnUse">
<stop stop-color="#DD6D6D"/>
<stop offset="1" stop-color="#773B3B"/>
</linearGradient>
<linearGradient id="paint32_linear_55_1108" x1="174.029" y1="215.772" x2="174.029" y2="223.772" gradientUnits="userSpaceOnUse">
<stop stop-color="#DD6D6D"/>
<stop offset="1" stop-color="#773B3B"/>
</linearGradient>
<linearGradient id="paint33_linear_55_1108" x1="185.881" y1="212.947" x2="168.826" y2="208.442" gradientUnits="userSpaceOnUse">
<stop stop-color="white"/>
<stop offset="1" stop-color="#A5A5A5"/>
</linearGradient>
<linearGradient id="paint34_linear_55_1108" x1="249.023" y1="156.023" x2="202.25" y2="109.25" gradientUnits="userSpaceOnUse">
<stop stop-color="#D9D9D9"/>
<stop offset="1" stop-color="#B1B1B1"/>
</linearGradient>
<linearGradient id="paint35_linear_55_1108" x1="235.115" y1="181.115" x2="199.581" y2="145.581" gradientUnits="userSpaceOnUse">
<stop stop-color="#D9D9D9"/>
<stop offset="1" stop-color="#B1B1B1"/>
</linearGradient>
<linearGradient id="paint36_linear_55_1108" x1="222.396" y1="207.396" x2="191.104" y2="176.104" gradientUnits="userSpaceOnUse">
<stop stop-color="#D9D9D9"/>
<stop offset="1" stop-color="#B1B1B1"/>
</linearGradient>
<linearGradient id="paint37_linear_55_1108" x1="128.821" y1="178.831" x2="137.451" y2="171.117" gradientUnits="userSpaceOnUse">
<stop stop-color="#D9D9D9"/>
<stop offset="1" stop-color="#B8B8B8"/>
</linearGradient>
<linearGradient id="paint38_linear_55_1108" x1="119.526" y1="189.34" x2="149.062" y2="138.183" gradientUnits="userSpaceOnUse">
<stop stop-color="#D9D9D9"/>
<stop offset="1" stop-color="#A8A8A8"/>
</linearGradient>
<linearGradient id="paint39_linear_55_1108" x1="138" y1="138.5" x2="147" y2="138.5" gradientUnits="userSpaceOnUse">
<stop stop-color="#D9D9D9"/>
<stop offset="1" stop-color="#ACACAC"/>
</linearGradient>
<linearGradient id="paint40_linear_55_1108" x1="178" y1="214" x2="178" y2="89.0001" gradientUnits="userSpaceOnUse">
<stop stop-color="white"/>
<stop offset="1" stop-color="#555555"/>
</linearGradient>
<linearGradient id="paint41_linear_55_1108" x1="177.75" y1="80.0001" x2="177.75" y2="95.0001" gradientUnits="userSpaceOnUse">
<stop stop-color="#D9D9D9"/>
<stop offset="1" stop-color="#5C5C5C"/>
</linearGradient>
<linearGradient id="paint42_linear_55_1108" x1="298.5" y1="173" x2="298.5" y2="82" gradientUnits="userSpaceOnUse">
<stop stop-color="#77966D"/>
<stop offset="1" stop-color="#3E4F38"/>
</linearGradient>
</defs>
</svg>
