<svg width="544" height="136" viewBox="0 0 544 136" fill="none" xmlns="http://www.w3.org/2000/svg">
<g filter="url(#filter0_d_59_7)">
<line x1="80.4977" y1="73.3365" x2="57.1633" y2="82.6722" stroke="black"/>
<path d="M164.638 78.5843L164.128 81.4745L140.223 77.2594L140.731 69.8795L164.638 78.5843Z" fill="#D9D9D9"/>
<path d="M143.163 31.8198L142.653 34.71L121.254 33.0443C119.836 32.9339 118.793 31.6687 118.955 30.2555C119.119 28.8182 120.461 27.8168 121.885 28.068L143.163 31.8198Z" fill="#D9D9D9"/>
<rect x="179.078" y="78.4841" width="2.99291" height="14.9645" transform="rotate(90 179.078 78.4841)" fill="#D9D9D9"/>
<path d="M87.7246 30.4375C82.9338 30.8567 78.8995 29.4759 78.7138 27.3535C78.5281 25.2311 82.2613 23.1708 87.0522 22.7517C91.843 22.3326 96.025 23.8635 97.7085 25.734C95.4638 28.5399 92.5154 30.0184 87.7246 30.4375Z" fill="black"/>
<rect x="1" y="36.9575" width="211" height="5.98582" rx="2.99291" fill="#68440F"/>
<rect x="1" y="65.0159" width="211" height="5.98582" rx="2.99291" fill="#68440F"/>
<rect x="20.8281" y="40.7271" width="3.74113" height="29.555" transform="rotate(-10 20.8281 40.7271)" fill="#68440F"/>
<rect x="41.5718" y="39.5762" width="3.74113" height="29.555" transform="rotate(10 41.5718 39.5762)" fill="#68440F"/>
<rect x="78.2349" y="37.3315" width="3.74113" height="29.555" transform="rotate(10 78.2349 37.3315)" fill="#68440F"/>
<rect x="114.898" y="36.9575" width="3.74113" height="29.555" transform="rotate(10 114.898 36.9575)" fill="#68440F"/>
<rect x="151.562" y="36.9575" width="3.74113" height="29.555" transform="rotate(10 151.562 36.9575)" fill="#68440F"/>
<rect x="188.225" y="36.9575" width="3.74113" height="29.555" transform="rotate(10 188.225 36.9575)" fill="#68440F"/>
<rect x="57.3901" y="40.6804" width="3.74113" height="29.555" transform="rotate(-10 57.3901 40.6804)" fill="#68440F"/>
<rect x="94.0532" y="39.5581" width="3.74113" height="29.555" transform="rotate(-10 94.0532 39.5581)" fill="#68440F"/>
<rect x="130.716" y="41.8027" width="3.74113" height="29.555" transform="rotate(-10 130.716 41.8027)" fill="#68440F"/>
<rect x="167.38" y="39.5581" width="3.74113" height="29.555" transform="rotate(-10 167.38 39.5581)" fill="#68440F"/>
<path d="M138.863 32.1757C141.563 31.8186 144.052 33.6882 144.462 36.3807L150.241 74.3795C150.731 77.601 148.058 80.4229 144.814 80.1079L55.7111 71.4539C51.9052 71.0843 49.9059 66.7529 52.0937 63.6167L78.0312 26.4345C78.6936 25.4851 80.1438 25.6437 80.5853 26.7139C83.6225 34.0768 91.2331 38.4751 99.129 37.4308L138.863 32.1757Z" fill="white"/>
<path d="M136.179 34.9566C139.045 34.5214 141.679 36.6066 141.913 39.4959L144.372 69.8196C144.621 72.8909 142.059 75.4544 138.988 75.2076L60.2983 68.8872C56.4675 68.5795 54.4016 64.2451 56.575 61.0756L76.9628 31.3434C77.8216 30.0909 79.6149 29.9452 80.6646 31.0427C87.1277 37.7995 96.4763 40.9855 105.72 39.5818L136.179 34.9566Z" fill="#A88F2F"/>
<path d="M142.936 31.6673C143.476 31.5928 143.975 31.9677 144.054 32.5072L147.278 54.5407C141.13 55.0617 135.565 50.6979 134.7 44.5885L134.46 42.8977C133.689 37.4533 137.488 32.4186 142.936 31.6673Z" fill="black"/>
<path d="M147.278 54.5408L150.937 78.9316C151.074 79.8451 150.317 80.6446 149.397 80.5576L148.453 80.4683C142.06 79.8635 137.048 74.7133 136.617 68.3062C136.186 61.8843 140.483 56.1003 146.757 54.6605L147.278 54.5408Z" fill="black"/>
<path d="M147.278 54.5407L128.76 61.8359V52.6702L147.278 54.5407Z" fill="black"/>
<path d="M159.324 62.5164C154.179 64.3891 148.547 61.8936 146.745 56.9426C144.943 51.9916 147.653 46.4599 152.799 44.5872C157.944 42.7146 164.418 47.5244 168.236 44.343C170.651 48.2417 164.469 60.6437 159.324 62.5164Z" fill="black"/>
<path d="M50.6777 68.8341C49.7281 69.7838 42.5053 68.736 40.0947 66.3254C37.684 63.9147 41.6087 61.5099 41.7783 59.7783C42.9181 60.3875 41.9863 62.2312 44.397 64.6419C46.6416 66.8864 51.6274 67.8845 50.6777 68.8341Z" fill="black"/>
<path d="M180.762 81.664C177.869 81.664 178.143 80.7623 178.143 79.4193C178.143 78.0763 180.675 76.9875 183.567 76.9875C181.51 77.9228 185.438 80.1675 187.309 79.0452C187.309 80.3882 183.654 81.664 180.762 81.664Z" fill="black"/>
<path d="M147.732 39.7635C145.086 39.2971 142.533 35.0848 142.838 33.3552C143.143 31.6257 145.534 30.6017 148.18 31.0681C150.825 31.5345 154.692 35.2278 154.387 36.9574C150.645 35.2739 145.861 36.7706 147.732 39.7635Z" fill="black"/>
<line x1="182.999" y1="24.704" x2="145.214" y2="39.2944" stroke="black"/>
<path d="M183.743 28.4048C181.905 28.2771 181.793 26.328 182.4 24.7138C181.009 23.6274 180.279 22.4159 181.184 21.3737C182.446 19.9194 187.305 22.3311 188.552 22.4746C187.753 23.5615 185.581 28.5325 183.743 28.4048Z" fill="black"/>
<path d="M182.832 24.4832L181.654 25.8867L181.027 24.1651L182.832 24.4832Z" fill="black"/>
</g>
<g filter="url(#filter1_d_59_7)">
<path d="M320.101 26.664C320.101 45.8376 316.647 102.527 297.484 102.527C278.321 102.527 260.73 92.3842 260.73 73.2105C260.73 54.0368 240.939 34.3788 263.814 21.0064C280.777 11.0898 320.101 7.49032 320.101 26.664Z" fill="url(#paint0_linear_59_7)"/>
</g>
<g filter="url(#filter2_i_59_7)">
<path d="M317.042 29.8279C317.042 47.318 313.878 99.0298 296.333 99.0298C278.788 99.0298 262.682 89.7775 262.682 72.2874C262.682 54.7973 244.562 36.8653 265.506 24.6671C281.037 15.6212 317.042 12.3378 317.042 29.8279Z" fill="url(#paint1_linear_59_7)"/>
</g>
<circle cx="286.005" cy="56.1899" r="2.18572" fill="url(#paint2_linear_59_7)"/>
<path d="M282.079 21.478C282.232 23.9172 282.449 26.3034 282.449 28.7606" stroke="#3D3D3D" stroke-linecap="round"/>
<path d="M284.301 21.3546C285.133 20.6269 286.072 20.2278 287.181 20.3808C287.845 20.4724 287.634 21.4334 287.634 21.91C287.634 22.6521 287.417 23.3651 287.079 24.0153C286.762 24.6247 286.5 25.4724 286.029 25.9765C285.856 26.1625 285.707 26.3779 285.508 26.5388C285.362 26.6571 284.813 26.7857 285.001 26.7857C285.882 26.7857 286.349 26.1572 287.14 25.949C287.897 25.75 288.665 26.1514 289.335 26.4428C289.684 26.5949 289.929 26.7765 290.322 26.7857C290.348 26.7863 290.789 26.7857 290.596 26.7857" stroke="#3D3D3D" stroke-linecap="round"/>
<path d="M289.932 84.844C288.673 84.7601 287.122 84.2256 286.01 85.0909C284.796 86.0347 284.193 87.644 284.261 89.1505C284.321 90.476 284.79 91.7984 285.639 92.7986C286.329 93.611 287.504 94.7234 288.684 94.0878C289.328 93.741 289.315 93.4511 289.315 92.7986C289.315 92.1755 288.723 92.1967 288.259 91.9757C287.456 91.5933 286.832 91.2626 285.927 91.2626C285.726 91.2626 285.503 91.2547 285.489 91.5094C285.486 91.5585 285.489 91.9322 285.489 91.7563" stroke="#3D3D3D" stroke-linecap="round"/>
<path d="M305.408 52.5832C306.277 51.738 308.265 49.408 309.824 50.0459C310.472 50.3108 310.626 51.5338 310.394 52.1032C309.983 53.1064 308.725 53.952 307.849 54.5581C307.572 54.7502 309.18 54.5836 309.488 54.757C310.225 55.1716 310.349 56.3408 310.037 57.0336C309.666 57.8576 309.019 58.8968 308.179 59.3172C307.682 59.5655 307.474 58.9689 307.191 58.6863C306.674 58.1687 305.887 57.876 305.408 57.3971" stroke="#3D3D3D" stroke-linecap="round"/>
<path d="M267.144 54.1879C266.532 53.8381 261.467 53.4213 262.33 54.7639C263.145 56.0314 264.685 57.416 266.095 56.1628C266.326 55.9576 266.641 54.325 266.959 54.325C267.134 54.325 266.379 56.1399 266.349 56.3205C266.245 56.9395 266.432 61.7173 266.157 61.7173" stroke="#3D3D3D" stroke-linecap="round"/>
<path d="M296.521 24.6872C296.742 24.4482 297.385 23.1384 297.385 23.6312C297.385 24.1249 297.385 24.6186 297.385 25.1124C297.385 26.9639 297.385 28.8154 297.385 30.6669C297.385 31.1329 297.324 31.1058 296.885 31.1058C296.81 31.1058 295.935 31.1333 296.336 31.2223C296.779 31.3207 297.389 31.2592 297.81 31.1058C298.067 31.0123 298.636 31.0729 298.743 30.8589" stroke="#3D3D3D" stroke-linecap="round"/>
<path d="M301.088 35.0555C301.939 33.672 304.297 33.8661 305.449 34.6235C306.511 35.3211 306.272 36.5319 306.272 37.6476C306.272 39.9574 304.23 41.9382 302.418 43.0787C301.76 43.4931 302.985 42.9875 303.186 42.8867C303.886 42.5366 304.454 42.1293 305.285 42.2215C306.101 42.3123 306.806 42.8134 307.63 42.9278C308.416 43.0371 309.183 43.0787 309.975 43.0787" stroke="#3D3D3D" stroke-linecap="round"/>
<path d="M304.518 64.0583C303.325 65.374 302.565 67.0628 301.508 68.4951C301.05 69.1155 300.268 70.2882 301.638 69.8734C302.955 69.4746 304.029 69.1641 305.437 69.2494C306.161 69.2933 306.736 69.7363 307.481 69.7363" stroke="#3D3D3D" stroke-linecap="round"/>
<path d="M304.765 66.4038C304.765 68.4197 305.012 70.464 305.012 72.452" stroke="#3D3D3D" stroke-linecap="round"/>
<path d="M296.107 77.6099C296.107 78.9402 296.107 80.2705 296.107 81.6009C296.107 81.8008 295.967 82.8345 296.162 82.9861C296.292 83.0871 297.727 81.2561 298.041 81.0866C298.857 80.6454 299.792 80.8502 300.421 81.5049C301.359 82.4822 302.14 85.2007 300.496 85.9896C299.805 86.3215 299.326 86.2777 299.07 85.5096" stroke="#3D3D3D" stroke-linecap="round"/>
<path d="M296.231 78.3503H300.921" stroke="#3D3D3D" stroke-linecap="round"/>
<path d="M272.575 78.3809C272.575 79.023 272.401 79.9655 272.643 80.5889C272.736 80.8268 272.821 80.9545 272.821 81.2198" stroke="#3D3D3D" stroke-linecap="round"/>
<path d="M273.068 78.8745C273.686 78.8745 274.303 78.8745 274.92 78.8745C275.245 78.8745 275.847 78.7565 276.154 78.9019C276.604 79.1151 275.989 79.7099 275.907 79.8894C275.239 81.3607 275.043 82.9753 275.043 84.5799C275.043 85.0402 275.346 86.8838 274.796 87.0211" stroke="#3D3D3D" stroke-linecap="round"/>
<path d="M270.6 64.9265C269.78 65.0554 266.748 65.9339 267.528 67.3266C268.064 68.2836 269.401 68.1268 270.271 68.5061C272.02 69.2686 271.898 71.9349 270.134 72.648C268.536 73.2937 268.476 71.9564 268.502 70.7553C268.522 69.8375 269.054 68.5613 269.496 67.7655C269.934 66.9778 270.554 66.2636 271.094 65.5437" stroke="#3D3D3D" stroke-linecap="round"/>
<path d="M260.602 41.8444C260.795 41.6021 262.235 39.2308 262.302 39.3346C262.572 39.7493 262.283 40.8915 262.234 41.3507C262.081 42.7669 262.193 44.2613 262.206 45.6846C262.211 46.2122 262.471 46.9336 262.323 47.4538C262.277 47.6155 260.203 47.5224 260.739 47.5224C261.575 47.5224 262.251 47.1488 263.05 47.0423C263.342 47.0034 263.934 47.0286 263.934 47.0286" stroke="#3D3D3D" stroke-linecap="round"/>
<path d="M265.045 40.9805C265.045 42.5942 264.667 44.9532 265.546 46.4184C265.778 46.8046 266.01 47.4121 266.595 47.2207C267.164 47.0347 267.435 46.0366 267.521 45.5201C267.68 44.5635 268.346 40.906 266.581 40.857C266.134 40.8446 265.764 41.1767 265.416 41.3508" stroke="#3D3D3D" stroke-linecap="round"/>
<path d="M267.638 30.4886C267.718 30.1865 268.378 29.0231 268.378 29.1857C268.378 29.6814 268.332 30.2029 268.406 30.6943C268.55 31.6529 268.864 32.5179 268.872 33.5058C268.879 34.3083 268.896 35.1172 268.872 35.9196C268.859 36.348 267.387 36.1665 268.131 36.1665C268.995 36.1665 271.588 36.1665 270.724 36.1665" stroke="#3D3D3D" stroke-linecap="round"/>
<path d="M270.477 30.6123C270.529 30.0586 270.826 29.7806 271.08 29.3368C271.258 29.0252 271.094 30.0545 271.094 30.4134C271.094 32.0432 271.755 33.6789 272.013 35.2959C272.083 35.7408 272.106 36.2091 272.081 36.6605C272.069 36.8811 271.571 36.7839 271.423 36.7839C270.72 36.7839 274.068 36.4811 273.439 36.1668" stroke="#3D3D3D" stroke-linecap="round"/>
<path d="M281.354 56.4611C280.756 55.4779 281.705 54.734 282.745 54.4751C282.795 53.3825 283.147 52.5834 284.003 52.6779C285.198 52.8099 285.726 56.1397 286.103 56.8266C285.262 56.8018 281.953 57.4443 281.354 56.4611Z" fill="black"/>
<path d="M283.514 55.1877L280.913 54.9602L282.411 52.8218L283.514 55.1877Z" fill="black"/>
<path d="M284.225 57.5847L233.721 86.7432" stroke="#FF0000" stroke-linecap="round"/>
<path d="M283.719 58.002L281.967 60.265L280.776 58.1803L283.719 58.002Z" fill="url(#paint3_linear_59_7)"/>
<path d="M280.431 52.2249L223 42.0982" stroke="#FF0000" stroke-linecap="round"/>
<path d="M277.422 54.5043C276.353 53.7921 276.963 52.5917 277.892 51.8396C277.428 50.7109 277.407 49.7364 278.317 49.4284C279.588 48.9984 281.693 52.1172 282.398 52.6341C281.536 53.0055 278.491 55.2165 277.422 54.5043Z" fill="url(#paint4_linear_59_7)"/>
<path d="M278.808 52.1943L276.011 52.8015L276.438 50.4389L278.808 52.1943Z" fill="url(#paint5_linear_59_7)"/>
<g filter="url(#filter3_f_59_7)">
<path d="M332 33.7595L286.113 56.6922" stroke="#5F5F5F" stroke-opacity="0.4" stroke-width="3" stroke-linecap="round"/>
</g>
<g filter="url(#filter4_f_59_7)">
<path d="M315.918 54.3079L281.967 52.8197" stroke="#5F5F5F" stroke-opacity="0.4" stroke-width="3" stroke-linecap="round"/>
</g>
<g filter="url(#filter5_f_59_7)">
<path d="M286.137 58.1802L322.41 94.4536" stroke="#5F5F5F" stroke-opacity="0.28" stroke-width="3" stroke-linecap="round"/>
</g>
<g filter="url(#filter6_f_59_7)">
<path d="M283.754 52.8196L323.065 32.5682" stroke="#5F5F5F" stroke-opacity="0.24" stroke-width="3" stroke-linecap="round"/>
</g>
<path d="M284.35 55.7979L236.104 23.0383" stroke="black" stroke-linecap="round"/>
<path d="M284.162 60.8478C282.885 60.9894 282.581 59.6778 282.809 58.5045C281.728 57.9386 281.086 57.2053 281.585 56.3841C282.282 55.2381 285.899 56.2742 286.772 56.2168C286.35 57.0554 285.439 60.7061 284.162 60.8478Z" fill="url(#paint6_linear_59_7)"/>
<path d="M281.344 51.5039L252.186 0.999996" stroke="black" stroke-linecap="round"/>
<path d="M278.776 51.5798C278.649 50.4358 279.825 50.163 280.876 50.3676C281.383 49.3985 282.04 48.8231 282.776 49.2706C283.803 49.8951 282.874 53.1362 282.926 53.918C282.174 53.5403 278.903 52.7238 278.776 51.5798Z" fill="black"/>
<path d="M281.205 51.4186L278.945 50.1134L281.205 48.8081L281.205 51.4186Z" fill="black"/>
<rect x="391.782" y="22.9377" width="132.565" height="93.7874" rx="5" fill="#5C353B"/>
<g filter="url(#filter7_i_59_7)">
<rect x="398.996" y="31.9558" width="51.4027" height="75.3005" rx="3" fill="url(#paint7_linear_59_7)"/>
</g>
<path d="M398.85 44.8606L414.18 31.7845" stroke="#423A32" stroke-width="3" stroke-linecap="round"/>
<path d="M398.856 69.6548L446.651 31.7791" stroke="#423A32" stroke-width="3" stroke-linecap="round"/>
<path d="M398.855 97.1604L450.258 56.1284" stroke="#423A32" stroke-width="3" stroke-linecap="round"/>
<path d="M416.445 107.077L450.262 81.3755" stroke="#423A32" stroke-width="3" stroke-linecap="round"/>
<path d="M450.394 56.2998L420.191 31.9568" stroke="#423A32" stroke-width="3" stroke-linecap="round"/>
<path d="M450.393 82.8962L399.002 41.8737" stroke="#423A32" stroke-width="3" stroke-linecap="round"/>
<path d="M447.235 107.237L399 69.8212" stroke="#423A32" stroke-width="3" stroke-linecap="round"/>
<path d="M418.38 107.235L398.996 92.8091" stroke="#423A32" stroke-width="3" stroke-linecap="round"/>
<g filter="url(#filter8_i_59_7)">
<rect x="462.719" y="32.1326" width="51.4027" height="75.3005" rx="3" fill="url(#paint8_linear_59_7)"/>
</g>
<path d="M462.573 45.0371L477.904 31.961" stroke="#423A32" stroke-width="3" stroke-linecap="round"/>
<path d="M462.58 69.8315L510.375 31.9559" stroke="#423A32" stroke-width="3" stroke-linecap="round"/>
<path d="M462.579 97.3369L513.981 56.3049" stroke="#423A32" stroke-width="3" stroke-linecap="round"/>
<path d="M480.168 107.253L513.986 81.5521" stroke="#423A32" stroke-width="3" stroke-linecap="round"/>
<path d="M514.117 56.4766L483.914 32.1335" stroke="#423A32" stroke-width="3" stroke-linecap="round"/>
<path d="M514.116 83.073L462.725 42.0505" stroke="#423A32" stroke-width="3" stroke-linecap="round"/>
<path d="M510.958 107.414L462.723 69.9979" stroke="#423A32" stroke-width="3" stroke-linecap="round"/>
<path d="M482.104 107.411L462.72 92.9859" stroke="#423A32" stroke-width="3" stroke-linecap="round"/>
<g filter="url(#filter9_d_59_7)">
<mask id="path-86-inside-1_59_7" fill="white">
<path d="M386.371 13.9197C386.371 12.1766 387.784 10.7634 389.527 10.7634C391.27 10.7634 392.683 12.1766 392.683 13.9197V123.038C392.683 124.781 391.27 126.194 389.527 126.194C387.784 126.194 386.371 124.781 386.371 123.038V13.9197Z"/>
</mask>
<path d="M386.371 13.9197C386.371 12.1766 387.784 10.7634 389.527 10.7634C391.27 10.7634 392.683 12.1766 392.683 13.9197V123.038C392.683 124.781 391.27 126.194 389.527 126.194C387.784 126.194 386.371 124.781 386.371 123.038V13.9197Z" fill="#645B26"/>
<path d="M386.371 10.7634H392.683H386.371ZM392.683 126.038C392.683 127.781 391.27 129.194 389.527 129.194C387.784 129.194 386.371 127.781 386.371 126.038V123.038C386.371 123.124 387.784 123.194 389.527 123.194C391.27 123.194 392.683 123.124 392.683 123.038V126.038ZM386.371 126.194V10.7634V126.194ZM392.683 10.7634V126.194V10.7634Z" fill="#252F05" mask="url(#path-86-inside-1_59_7)"/>
</g>
<g filter="url(#filter10_d_59_7)">
<mask id="path-88-inside-2_59_7" fill="white">
<path d="M386.371 13.9197C386.371 12.1766 387.784 10.7634 389.527 10.7634C391.27 10.7634 392.683 12.1766 392.683 13.9197V116.725C392.683 118.468 391.27 119.881 389.527 119.881C387.784 119.881 386.371 118.468 386.371 116.725V13.9197Z"/>
</mask>
<path d="M386.371 13.9197C386.371 12.1766 387.784 10.7634 389.527 10.7634C391.27 10.7634 392.683 12.1766 392.683 13.9197V116.725C392.683 118.468 391.27 119.881 389.527 119.881C387.784 119.881 386.371 118.468 386.371 116.725V13.9197Z" fill="#645B26"/>
<path d="M386.371 10.7634H392.683H386.371ZM392.683 119.725C392.683 121.468 391.27 122.881 389.527 122.881C387.784 122.881 386.371 121.468 386.371 119.725V116.725C386.371 116.812 387.784 116.881 389.527 116.881C391.27 116.881 392.683 116.812 392.683 116.725V119.725ZM386.371 119.881V10.7634V119.881ZM392.683 10.7634V119.881V10.7634Z" fill="#252F05" mask="url(#path-88-inside-2_59_7)"/>
</g>
<g filter="url(#filter11_d_59_7)">
<mask id="path-90-inside-3_59_7" fill="white">
<path d="M387.834 14.1383C387.773 12.3962 389.136 10.9346 390.878 10.8737C392.62 10.8129 394.082 12.1758 394.143 13.918L397.856 120.266C397.917 122.008 396.554 123.47 394.812 123.53C393.07 123.591 391.608 122.228 391.548 120.486L387.834 14.1383Z"/>
</mask>
<path d="M387.834 14.1383C387.773 12.3962 389.136 10.9346 390.878 10.8737C392.62 10.8129 394.082 12.1758 394.143 13.918L397.856 120.266C397.917 122.008 396.554 123.47 394.812 123.53C393.07 123.591 391.608 122.228 391.548 120.486L387.834 14.1383Z" fill="#645B26"/>
<path d="M387.724 10.9839L394.032 10.7636L387.724 10.9839ZM397.961 123.264C398.022 125.006 396.659 126.468 394.917 126.529C393.175 126.589 391.713 125.226 391.652 123.484L391.548 120.486C391.551 120.572 392.965 120.593 394.707 120.532C396.449 120.471 397.859 120.352 397.856 120.266L397.961 123.264ZM391.658 123.64L387.724 10.9839L391.658 123.64ZM394.032 10.7636L397.966 123.42L394.032 10.7636Z" fill="#252F05" mask="url(#path-90-inside-3_59_7)"/>
</g>
<g filter="url(#filter12_d_59_7)">
<mask id="path-92-inside-4_59_7" fill="white">
<path d="M379.824 13.9178C379.885 12.1757 381.346 10.8127 383.088 10.8736C384.831 10.9344 386.194 12.396 386.133 14.1381L382.419 120.486C382.358 122.228 380.897 123.591 379.154 123.53C377.412 123.469 376.049 122.008 376.11 120.266L379.824 13.9178Z"/>
</mask>
<path d="M379.824 13.9178C379.885 12.1757 381.346 10.8127 383.088 10.8736C384.831 10.9344 386.194 12.396 386.133 14.1381L382.419 120.486C382.358 122.228 380.897 123.591 379.154 123.53C377.412 123.469 376.049 122.008 376.11 120.266L379.824 13.9178Z" fill="#645B26"/>
<path d="M379.934 10.7634L386.243 10.9837L379.934 10.7634ZM382.314 123.484C382.253 125.226 380.792 126.589 379.05 126.528C377.308 126.468 375.945 125.006 376.005 123.264L376.11 120.266C376.107 120.352 377.517 120.471 379.259 120.532C381.001 120.593 382.416 120.572 382.419 120.486L382.314 123.484ZM376 123.42L379.934 10.7634L376 123.42ZM386.243 10.9837L382.309 123.64L386.243 10.9837Z" fill="#252F05" mask="url(#path-92-inside-4_59_7)"/>
</g>
<g filter="url(#filter13_d_59_7)">
<mask id="path-94-inside-5_59_7" fill="white">
<path d="M381.411 13.9197C381.411 12.1766 382.824 10.7634 384.567 10.7634C386.31 10.7634 387.723 12.1766 387.723 13.9197V121.685C387.723 123.428 386.31 124.841 384.567 124.841C382.824 124.841 381.411 123.428 381.411 121.685V13.9197Z"/>
</mask>
<path d="M381.411 13.9197C381.411 12.1766 382.824 10.7634 384.567 10.7634C386.31 10.7634 387.723 12.1766 387.723 13.9197V121.685C387.723 123.428 386.31 124.841 384.567 124.841C382.824 124.841 381.411 123.428 381.411 121.685V13.9197Z" fill="#645B26"/>
<path d="M381.411 10.7634H387.723H381.411ZM387.723 124.685C387.723 126.428 386.31 127.841 384.567 127.841C382.824 127.841 381.411 126.428 381.411 124.685V121.685C381.411 121.771 382.824 121.841 384.567 121.841C386.31 121.841 387.723 121.771 387.723 121.685V124.685ZM381.411 124.841V10.7634V124.841ZM387.723 10.7634V124.841V10.7634Z" fill="#252F05" mask="url(#path-94-inside-5_59_7)"/>
</g>
<g filter="url(#filter14_d_59_7)">
<mask id="path-96-inside-6_59_7" fill="white">
<path d="M528.405 15.2725C528.405 13.5293 529.818 12.1162 531.561 12.1162C533.304 12.1162 534.717 13.5293 534.717 15.2725V124.391C534.717 126.134 533.304 127.547 531.561 127.547C529.818 127.547 528.405 126.134 528.405 124.391V15.2725Z"/>
</mask>
<path d="M528.405 15.2725C528.405 13.5293 529.818 12.1162 531.561 12.1162C533.304 12.1162 534.717 13.5293 534.717 15.2725V124.391C534.717 126.134 533.304 127.547 531.561 127.547C529.818 127.547 528.405 126.134 528.405 124.391V15.2725Z" fill="#645B26"/>
<path d="M528.405 12.1162H534.717H528.405ZM534.717 127.391C534.717 129.134 533.304 130.547 531.561 130.547C529.818 130.547 528.405 129.134 528.405 127.391V124.391C528.405 124.477 529.818 124.547 531.561 124.547C533.304 124.547 534.717 124.477 534.717 124.391V127.391ZM528.405 127.547V12.1162V127.547ZM534.717 12.1162V127.547V12.1162Z" fill="#252F05" mask="url(#path-96-inside-6_59_7)"/>
</g>
<g filter="url(#filter15_d_59_7)">
<mask id="path-98-inside-7_59_7" fill="white">
<path d="M528.405 15.2725C528.405 13.5293 529.818 12.1162 531.561 12.1162C533.304 12.1162 534.717 13.5293 534.717 15.2725V118.078C534.717 119.821 533.304 121.234 531.561 121.234C529.818 121.234 528.405 119.821 528.405 118.078V15.2725Z"/>
</mask>
<path d="M528.405 15.2725C528.405 13.5293 529.818 12.1162 531.561 12.1162C533.304 12.1162 534.717 13.5293 534.717 15.2725V118.078C534.717 119.821 533.304 121.234 531.561 121.234C529.818 121.234 528.405 119.821 528.405 118.078V15.2725Z" fill="#645B26"/>
<path d="M528.405 12.1162H534.717H528.405ZM534.717 121.078C534.717 122.821 533.304 124.234 531.561 124.234C529.818 124.234 528.405 122.821 528.405 121.078V118.078C528.405 118.164 529.818 118.234 531.561 118.234C533.304 118.234 534.717 118.164 534.717 118.078V121.078ZM528.405 121.234V12.1162V121.234ZM534.717 12.1162V121.234V12.1162Z" fill="#252F05" mask="url(#path-98-inside-7_59_7)"/>
</g>
<g filter="url(#filter16_d_59_7)">
<mask id="path-100-inside-8_59_7" fill="white">
<path d="M529.867 15.4908C529.807 13.7487 531.17 12.2871 532.912 12.2263C534.654 12.1654 536.115 13.5284 536.176 15.2705L539.89 121.618C539.951 123.36 538.588 124.822 536.846 124.883C535.104 124.944 533.642 123.581 533.581 121.839L529.867 15.4908Z"/>
</mask>
<path d="M529.867 15.4908C529.807 13.7487 531.17 12.2871 532.912 12.2263C534.654 12.1654 536.115 13.5284 536.176 15.2705L539.89 121.618C539.951 123.36 538.588 124.822 536.846 124.883C535.104 124.944 533.642 123.581 533.581 121.839L529.867 15.4908Z" fill="#645B26"/>
<path d="M529.757 12.3364L536.066 12.1161L529.757 12.3364ZM539.995 124.617C540.056 126.359 538.693 127.82 536.95 127.881C535.208 127.942 533.747 126.579 533.686 124.837L533.581 121.839C533.584 121.925 534.999 121.946 536.741 121.885C538.483 121.824 539.893 121.705 539.89 121.618L539.995 124.617ZM533.691 124.993L529.757 12.3364L533.691 124.993ZM536.066 12.1161L540 124.773L536.066 12.1161Z" fill="#252F05" mask="url(#path-100-inside-8_59_7)"/>
</g>
<g filter="url(#filter17_d_59_7)">
<mask id="path-102-inside-9_59_7" fill="white">
<path d="M521.858 15.2706C521.919 13.5285 523.381 12.1655 525.123 12.2264C526.865 12.2872 528.228 13.7488 528.167 15.4909L524.453 121.839C524.392 123.581 522.931 124.944 521.189 124.883C519.446 124.822 518.084 123.361 518.144 121.618L521.858 15.2706Z"/>
</mask>
<path d="M521.858 15.2706C521.919 13.5285 523.381 12.1655 525.123 12.2264C526.865 12.2872 528.228 13.7488 528.167 15.4909L524.453 121.839C524.392 123.581 522.931 124.944 521.189 124.883C519.446 124.822 518.084 123.361 518.144 121.618L521.858 15.2706Z" fill="#645B26"/>
<path d="M521.968 12.1162L528.277 12.3365L521.968 12.1162ZM524.348 124.837C524.288 126.579 522.826 127.942 521.084 127.881C519.342 127.82 517.979 126.359 518.04 124.617L518.144 121.618C518.141 121.705 519.551 121.824 521.293 121.885C523.035 121.946 524.45 121.925 524.453 121.839L524.348 124.837ZM518.034 124.773L521.968 12.1162L518.034 124.773ZM528.277 12.3365L524.343 124.993L528.277 12.3365Z" fill="#252F05" mask="url(#path-102-inside-9_59_7)"/>
</g>
<g filter="url(#filter18_d_59_7)">
<mask id="path-104-inside-10_59_7" fill="white">
<path d="M523.445 15.2725C523.445 13.5293 524.858 12.1162 526.601 12.1162C528.344 12.1162 529.757 13.5293 529.757 15.2725V123.038C529.757 124.781 528.344 126.194 526.601 126.194C524.858 126.194 523.445 124.781 523.445 123.038V15.2725Z"/>
</mask>
<path d="M523.445 15.2725C523.445 13.5293 524.858 12.1162 526.601 12.1162C528.344 12.1162 529.757 13.5293 529.757 15.2725V123.038C529.757 124.781 528.344 126.194 526.601 126.194C524.858 126.194 523.445 124.781 523.445 123.038V15.2725Z" fill="#645B26"/>
<path d="M523.445 12.1162H529.757H523.445ZM529.757 126.038C529.757 127.781 528.344 129.194 526.601 129.194C524.858 129.194 523.445 127.781 523.445 126.038V123.038C523.445 123.124 524.858 123.194 526.601 123.194C528.344 123.194 529.757 123.124 529.757 123.038V126.038ZM523.445 126.194V12.1162V126.194ZM529.757 12.1162V126.194V12.1162Z" fill="#252F05" mask="url(#path-104-inside-10_59_7)"/>
</g>
<path d="M386.931 13.3982C387.124 10.8938 389.212 8.95996 391.724 8.95996C394.283 8.95996 396.393 10.9649 396.525 13.5207L396.923 21.289C397.069 24.1473 394.791 26.5451 391.929 26.5451H391.319C388.407 26.5451 386.111 24.0656 386.334 21.1616L386.931 13.3982Z" fill="#4C4413"/>
<path d="M401.811 13.3982C402.004 10.8938 404.092 8.95996 406.604 8.95996C409.163 8.95996 411.273 10.9649 411.404 13.5207L411.803 21.289C411.949 24.1473 409.671 26.5451 406.809 26.5451H406.199C403.287 26.5451 400.991 24.0656 401.214 21.1616L401.811 13.3982Z" fill="#4C4413"/>
<path d="M416.691 13.8491C416.883 11.3447 418.971 9.41089 421.483 9.41089C424.042 9.41089 426.153 11.4159 426.284 13.9716L426.682 21.74C426.829 24.5982 424.551 26.996 421.689 26.996H421.079C418.166 26.996 415.87 24.5165 416.093 21.6125L416.691 13.8491Z" fill="#4C4413"/>
<path d="M432.021 13.8491C432.214 11.3447 434.302 9.41089 436.814 9.41089C439.373 9.41089 441.483 11.4159 441.614 13.9716L442.013 21.74C442.159 24.5982 439.881 26.996 437.019 26.996H436.409C433.497 26.996 431.2 24.5165 431.424 21.6125L432.021 13.8491Z" fill="#4C4413"/>
<path d="M447.352 13.3982C447.544 10.8938 449.633 8.95996 452.144 8.95996C454.703 8.95996 456.814 10.9649 456.945 13.5207L457.343 21.289C457.49 24.1473 455.212 26.5451 452.35 26.5451H451.74C448.827 26.5451 446.531 24.0656 446.754 21.1616L447.352 13.3982Z" fill="#4C4413"/>
<path d="M462.232 13.3982C462.424 10.8938 464.512 8.95996 467.024 8.95996C469.583 8.95996 471.694 10.9649 471.825 13.5207L472.223 21.289C472.37 24.1473 470.092 26.5451 467.23 26.5451H466.62C463.707 26.5451 461.411 24.0656 461.634 21.1616L462.232 13.3982Z" fill="#4C4413"/>
<path d="M477.111 13.8491C477.304 11.3447 479.392 9.41089 481.904 9.41089C484.463 9.41089 486.574 11.4159 486.705 13.9716L487.103 21.74C487.25 24.5982 484.972 26.996 482.11 26.996H481.499C478.587 26.996 476.291 24.5165 476.514 21.6125L477.111 13.8491Z" fill="#4C4413"/>
<path d="M492.442 13.8491C492.635 11.3447 494.723 9.41089 497.235 9.41089C499.794 9.41089 501.904 11.4159 502.035 13.9716L502.434 21.74C502.58 24.5982 500.302 26.996 497.44 26.996H496.83C493.918 26.996 491.621 24.5165 491.845 21.6125L492.442 13.8491Z" fill="#4C4413"/>
<path d="M507.773 13.8491C507.965 11.3447 510.053 9.41089 512.565 9.41089C515.124 9.41089 517.235 11.4159 517.366 13.9716L517.764 21.74C517.911 24.5982 515.633 26.996 512.771 26.996H512.161C509.248 26.996 506.952 24.5165 507.175 21.6125L507.773 13.8491Z" fill="#4C4413"/>
<path d="M523.103 13.8491C523.296 11.3447 525.384 9.41089 527.896 9.41089C530.455 9.41089 532.565 11.4159 532.696 13.9716L533.095 21.74C533.241 24.5982 530.963 26.996 528.101 26.996H527.491C524.579 26.996 522.283 24.5165 522.506 21.6125L523.103 13.8491Z" fill="#4C4413"/>
<rect x="381.862" y="9.41089" width="152.855" height="2.70541" rx="1.3527" fill="#7C4D1B"/>
<g filter="url(#filter19_d_59_7)">
<path d="M389.278 6.82957C389.849 6.17764 390.673 5.80371 391.54 5.80371H398.888C401.503 5.80371 403.676 7.81817 403.874 10.4253L404.449 18.0105C404.67 20.9126 402.374 23.3889 399.464 23.3889H388.768C386.27 23.3889 384.311 21.2441 384.537 18.7566L384.583 18.2497C384.722 16.7205 385.03 15.2114 385.499 13.7496L385.68 13.1876C386.433 10.8449 387.658 8.68117 389.278 6.82957Z" fill="#645B26"/>
</g>
<g filter="url(#filter20_d_59_7)">
<path d="M418.12 10.6737C418.415 8.1541 420.55 6.25439 423.087 6.25439H427.719C430.33 6.25439 432.501 8.263 432.704 10.8658L433.295 18.451C433.522 21.3567 431.225 23.8395 428.31 23.8395H422.2C419.208 23.8395 416.886 21.2302 417.234 18.2589L418.12 10.6737Z" fill="#645B26"/>
</g>
<path d="M384.567 22.2615C385.746 21.5249 387.107 21.1343 388.497 21.1343H401.037C402.273 21.1343 403.403 21.8325 403.956 22.9379L405.759 23.3888C405.674 24.5879 404.199 25.1072 403.381 24.2263L402.603 23.3888H389.527L389.245 24.5148C389.064 25.2383 388.184 25.5164 387.62 25.028L385.469 23.1633L384.567 22.2615Z" fill="#252F05"/>
<path d="M414.777 23.3888C416.953 22.2053 419.391 21.5852 421.868 21.5852H430.283C431.425 21.5852 432.512 22.0783 433.264 22.9379L432.409 23.6143L431.339 23.8397L431.3 23.9376C430.987 24.7077 429.876 24.6414 429.657 23.8397H417.257L416.484 24.6126C415.854 25.2425 414.777 24.7964 414.777 23.9055V23.3888Z" fill="#252F05"/>
<g filter="url(#filter21_d_59_7)">
<path d="M402.511 8.43161C402.8 5.90658 404.937 4 407.479 4H413.175C415.789 4 417.961 6.01337 418.16 8.61971L418.876 18.0085C419.098 20.9113 416.802 23.3887 413.891 23.3887H406.405C403.418 23.3887 401.097 20.7876 401.437 17.8204L402.511 8.43161Z" fill="#645B26"/>
</g>
<path d="M401.25 22.2615C402.288 21.5281 403.526 21.1343 404.797 21.1343H415.747C416.921 21.1343 418.04 21.6247 418.836 22.487L417.934 23.1633L416.807 23.3888H402.844L402.047 23.1633L401.25 22.2615Z" fill="#252F05"/>
<g filter="url(#filter22_d_59_7)">
<path d="M449.695 6.25439H458.407C461.022 6.25439 463.195 8.26885 463.393 10.876L463.968 18.4611C464.189 21.3633 461.893 23.8395 458.983 23.8395H449.11C446.17 23.8395 443.865 21.3149 444.131 18.3869L444.312 16.3997L445.887 9.30913C446.284 7.52429 447.867 6.25439 449.695 6.25439Z" fill="#645B26"/>
</g>
<g filter="url(#filter23_d_59_7)">
<path d="M477.639 11.1247C477.934 8.60503 480.069 6.70532 482.606 6.70532H487.238C489.849 6.70532 492.02 8.71393 492.223 11.3168L492.814 18.9019C493.041 21.8077 490.744 24.2905 487.829 24.2905H481.719C478.727 24.2905 476.405 21.6811 476.753 18.7098L477.639 11.1247Z" fill="#645B26"/>
</g>
<path d="M444.086 22.7125C445.265 21.9758 446.627 21.5852 448.016 21.5852H460.556C461.792 21.5852 462.922 22.2834 463.475 23.3888L462.573 23.8397H448.82L447.91 24.8801C447.543 25.2999 446.903 25.338 446.488 24.9649L444.988 23.6143L444.086 22.7125Z" fill="#252F05"/>
<path d="M476.1 23.1634C477.082 22.4315 478.274 22.0361 479.498 22.0361H489.802C490.944 22.0361 492.031 22.5292 492.783 23.3888L491.928 24.0652L490.949 25.0219C490.433 25.5269 489.568 25.3344 489.314 24.658L489.176 24.2906H477.612L476.856 24.0652L476.1 23.1634Z" fill="#252F05"/>
<g filter="url(#filter24_d_59_7)">
<path d="M462.04 8.44437C462.323 5.91373 464.462 4 467.009 4H472.685C475.302 4 477.477 6.01832 477.671 8.6283L478.405 18.468C478.621 21.3678 476.327 23.8396 473.419 23.8396H465.909C462.927 23.8396 460.608 21.247 460.94 18.284L462.04 8.44437Z" fill="#645B26"/>
</g>
<path d="M460.77 22.7125C461.807 21.979 463.045 21.5852 464.316 21.5852H475.266C476.44 21.5852 477.559 22.0757 478.355 22.9379L477.453 23.8397L477.071 24.3489C476.625 24.9436 475.709 24.861 475.377 24.1961L475.198 23.8397H463.024L462.967 24.0661C462.816 24.6718 462.018 24.8101 461.671 24.2906L460.77 22.7125Z" fill="#252F05"/>
<g filter="url(#filter25_d_59_7)">
<path d="M506.046 11.1247C506.341 8.60503 508.476 6.70532 511.012 6.70532H515.645C518.256 6.70532 520.427 8.71393 520.63 11.3168L521.221 18.9019C521.448 21.8077 519.151 24.2905 516.236 24.2905H510.126C507.134 24.2905 504.812 21.6811 505.159 18.7098L506.046 11.1247Z" fill="#645B26"/>
</g>
<path d="M504.507 23.1634C505.489 22.4315 506.68 22.0361 507.905 22.0361H518.209C519.351 22.0361 520.438 22.5292 521.19 23.3888L520.335 24.0652L519.265 24.2906H506.019L505.263 24.0652L504.507 23.1634Z" fill="#252F05"/>
<g filter="url(#filter26_d_59_7)">
<path d="M518.238 8.50905C518.491 5.95019 520.643 4 523.214 4H527.348C529.982 4 532.164 6.04348 532.337 8.67182L533.014 18.9624C533.204 21.8467 530.915 24.2906 528.025 24.2906H522.199C519.243 24.2906 516.933 21.7408 517.223 18.7996L518.238 8.50905Z" fill="#645B26"/>
</g>
<path d="M516.907 22.487C517.838 22.1883 518.809 22.0361 519.787 22.0361H530.807C531.654 22.0361 532.444 22.4591 532.914 23.1634V24.2906L531.561 25.6433L530.434 24.2906H520.514L518.936 25.6433L517.508 23.6143L516.907 22.487Z" fill="#252F05"/>
<g filter="url(#filter27_d_59_7)">
<path d="M430.608 8.40427C430.909 5.8913 433.041 4 435.572 4H442.392C444.999 4 447.168 6.00277 447.376 8.60127L448.163 18.4409C448.396 21.3502 446.098 23.8396 443.179 23.8396H434.391C431.394 23.8396 429.07 21.2202 429.427 18.2439L430.608 8.40427Z" fill="#645B26"/>
</g>
<path d="M429.207 22.2616C430.138 21.8163 431.157 21.5852 432.19 21.5852H445.799C446.711 21.5852 447.574 22 448.144 22.7125L447.468 23.6143L447.031 24.1758C446.568 24.7715 445.622 24.5718 445.439 23.8397H432.363C432.17 24.6107 431.196 24.8557 430.661 24.2677L429.657 23.1634L429.207 22.7125V22.2616Z" fill="#252F05"/>
<g filter="url(#filter28_d_59_7)">
<path d="M490.137 8.41733C490.432 5.89859 492.567 4 495.103 4H501.903C504.513 4 506.684 6.00783 506.888 8.61008L507.692 18.9006C507.92 21.8069 505.623 24.2906 502.708 24.2906H493.895C490.903 24.2906 488.581 21.6798 488.929 18.7079L490.137 8.41733Z" fill="#645B26"/>
</g>
<path d="M488.631 22.7125C489.563 22.2672 490.582 22.0361 491.615 22.0361H505.224C506.136 22.0361 506.999 22.4509 507.569 23.1634L507.118 24.2906L506.861 24.6338C506.387 25.2657 505.402 25.1245 505.125 24.3849L505.089 24.2906H491.788L491.621 24.6229C491.286 25.2936 490.359 25.3703 489.918 24.7639L489.082 23.6143L488.631 22.7125Z" fill="#252F05"/>
<defs>
<filter id="filter0_d_59_7" x="-7" y="20.9092" width="227" height="78.2273" filterUnits="userSpaceOnUse" color-interpolation-filters="sRGB">
<feFlood flood-opacity="0" result="BackgroundImageFix"/>
<feColorMatrix in="SourceAlpha" type="matrix" values="0 0 0 0 0 0 0 0 0 0 0 0 0 0 0 0 0 0 127 0" result="hardAlpha"/>
<feOffset dy="8"/>
<feGaussianBlur stdDeviation="4"/>
<feComposite in2="hardAlpha" operator="out"/>
<feColorMatrix type="matrix" values="0 0 0 0 0 0 0 0 0 0 0 0 0 0 0 0 0 0 0.25 0"/>
<feBlend mode="normal" in2="BackgroundImageFix" result="effect1_dropShadow_59_7"/>
<feBlend mode="normal" in="SourceGraphic" in2="effect1_dropShadow_59_7" result="shape"/>
</filter>
<filter id="filter1_d_59_7" x="244.781" y="8.9126" width="83.3203" height="105.615" filterUnits="userSpaceOnUse" color-interpolation-filters="sRGB">
<feFlood flood-opacity="0" result="BackgroundImageFix"/>
<feColorMatrix in="SourceAlpha" type="matrix" values="0 0 0 0 0 0 0 0 0 0 0 0 0 0 0 0 0 0 127 0" result="hardAlpha"/>
<feOffset dy="4"/>
<feGaussianBlur stdDeviation="4"/>
<feComposite in2="hardAlpha" operator="out"/>
<feColorMatrix type="matrix" values="0 0 0 0 0 0 0 0 0 0 0 0 0 0 0 0 0 0 0.25 0"/>
<feBlend mode="normal" in2="BackgroundImageFix" result="effect1_dropShadow_59_7"/>
<feBlend mode="normal" in="SourceGraphic" in2="effect1_dropShadow_59_7" result="shape"/>
</filter>
<filter id="filter2_i_59_7" x="255.404" y="17.2839" width="65.6372" height="85.7458" filterUnits="userSpaceOnUse" color-interpolation-filters="sRGB">
<feFlood flood-opacity="0" result="BackgroundImageFix"/>
<feBlend mode="normal" in="SourceGraphic" in2="BackgroundImageFix" result="shape"/>
<feColorMatrix in="SourceAlpha" type="matrix" values="0 0 0 0 0 0 0 0 0 0 0 0 0 0 0 0 0 0 127 0" result="hardAlpha"/>
<feOffset dx="4" dy="4"/>
<feGaussianBlur stdDeviation="4"/>
<feComposite in2="hardAlpha" operator="arithmetic" k2="-1" k3="1"/>
<feColorMatrix type="matrix" values="0 0 0 0 0 0 0 0 0 0 0 0 0 0 0 0 0 0 0.25 0"/>
<feBlend mode="normal" in2="shape" result="effect1_innerShadow_59_7"/>
</filter>
<filter id="filter3_f_59_7" x="280.613" y="28.2593" width="56.8877" height="33.9331" filterUnits="userSpaceOnUse" color-interpolation-filters="sRGB">
<feFlood flood-opacity="0" result="BackgroundImageFix"/>
<feBlend mode="normal" in="SourceGraphic" in2="BackgroundImageFix" result="shape"/>
<feGaussianBlur stdDeviation="2" result="effect1_foregroundBlur_59_7"/>
</filter>
<filter id="filter4_f_59_7" x="276.467" y="47.3198" width="44.9507" height="12.488" filterUnits="userSpaceOnUse" color-interpolation-filters="sRGB">
<feFlood flood-opacity="0" result="BackgroundImageFix"/>
<feBlend mode="normal" in="SourceGraphic" in2="BackgroundImageFix" result="shape"/>
<feGaussianBlur stdDeviation="2" result="effect1_foregroundBlur_59_7"/>
</filter>
<filter id="filter5_f_59_7" x="280.637" y="52.6802" width="47.2734" height="47.2734" filterUnits="userSpaceOnUse" color-interpolation-filters="sRGB">
<feFlood flood-opacity="0" result="BackgroundImageFix"/>
<feBlend mode="normal" in="SourceGraphic" in2="BackgroundImageFix" result="shape"/>
<feGaussianBlur stdDeviation="2" result="effect1_foregroundBlur_59_7"/>
</filter>
<filter id="filter6_f_59_7" x="278.253" y="27.0679" width="50.3125" height="31.252" filterUnits="userSpaceOnUse" color-interpolation-filters="sRGB">
<feFlood flood-opacity="0" result="BackgroundImageFix"/>
<feBlend mode="normal" in="SourceGraphic" in2="BackgroundImageFix" result="shape"/>
<feGaussianBlur stdDeviation="2" result="effect1_foregroundBlur_59_7"/>
</filter>
<filter id="filter7_i_59_7" x="398.996" y="31.9558" width="51.4028" height="79.3005" filterUnits="userSpaceOnUse" color-interpolation-filters="sRGB">
<feFlood flood-opacity="0" result="BackgroundImageFix"/>
<feBlend mode="normal" in="SourceGraphic" in2="BackgroundImageFix" result="shape"/>
<feColorMatrix in="SourceAlpha" type="matrix" values="0 0 0 0 0 0 0 0 0 0 0 0 0 0 0 0 0 0 127 0" result="hardAlpha"/>
<feOffset dy="4"/>
<feGaussianBlur stdDeviation="2"/>
<feComposite in2="hardAlpha" operator="arithmetic" k2="-1" k3="1"/>
<feColorMatrix type="matrix" values="0 0 0 0 0 0 0 0 0 0 0 0 0 0 0 0 0 0 0.25 0"/>
<feBlend mode="normal" in2="shape" result="effect1_innerShadow_59_7"/>
</filter>
<filter id="filter8_i_59_7" x="462.719" y="32.1326" width="51.4028" height="79.3005" filterUnits="userSpaceOnUse" color-interpolation-filters="sRGB">
<feFlood flood-opacity="0" result="BackgroundImageFix"/>
<feBlend mode="normal" in="SourceGraphic" in2="BackgroundImageFix" result="shape"/>
<feColorMatrix in="SourceAlpha" type="matrix" values="0 0 0 0 0 0 0 0 0 0 0 0 0 0 0 0 0 0 127 0" result="hardAlpha"/>
<feOffset dy="4"/>
<feGaussianBlur stdDeviation="2"/>
<feComposite in2="hardAlpha" operator="arithmetic" k2="-1" k3="1"/>
<feColorMatrix type="matrix" values="0 0 0 0 0 0 0 0 0 0 0 0 0 0 0 0 0 0 0.25 0"/>
<feBlend mode="normal" in2="shape" result="effect1_innerShadow_59_7"/>
</filter>
<filter id="filter9_d_59_7" x="382.371" y="10.7634" width="14.3125" height="123.431" filterUnits="userSpaceOnUse" color-interpolation-filters="sRGB">
<feFlood flood-opacity="0" result="BackgroundImageFix"/>
<feColorMatrix in="SourceAlpha" type="matrix" values="0 0 0 0 0 0 0 0 0 0 0 0 0 0 0 0 0 0 127 0" result="hardAlpha"/>
<feOffset dy="4"/>
<feGaussianBlur stdDeviation="2"/>
<feComposite in2="hardAlpha" operator="out"/>
<feColorMatrix type="matrix" values="0 0 0 0 0 0 0 0 0 0 0 0 0 0 0 0 0 0 0.25 0"/>
<feBlend mode="normal" in2="BackgroundImageFix" result="effect1_dropShadow_59_7"/>
<feBlend mode="normal" in="SourceGraphic" in2="effect1_dropShadow_59_7" result="shape"/>
</filter>
<filter id="filter10_d_59_7" x="382.371" y="10.7634" width="14.3125" height="117.118" filterUnits="userSpaceOnUse" color-interpolation-filters="sRGB">
<feFlood flood-opacity="0" result="BackgroundImageFix"/>
<feColorMatrix in="SourceAlpha" type="matrix" values="0 0 0 0 0 0 0 0 0 0 0 0 0 0 0 0 0 0 127 0" result="hardAlpha"/>
<feOffset dy="4"/>
<feGaussianBlur stdDeviation="2"/>
<feComposite in2="hardAlpha" operator="out"/>
<feColorMatrix type="matrix" values="0 0 0 0 0 0 0 0 0 0 0 0 0 0 0 0 0 0 0.25 0"/>
<feBlend mode="normal" in2="BackgroundImageFix" result="effect1_dropShadow_59_7"/>
<feBlend mode="normal" in="SourceGraphic" in2="effect1_dropShadow_59_7" result="shape"/>
</filter>
<filter id="filter11_d_59_7" x="383.832" y="10.8718" width="18.0264" height="120.66" filterUnits="userSpaceOnUse" color-interpolation-filters="sRGB">
<feFlood flood-opacity="0" result="BackgroundImageFix"/>
<feColorMatrix in="SourceAlpha" type="matrix" values="0 0 0 0 0 0 0 0 0 0 0 0 0 0 0 0 0 0 127 0" result="hardAlpha"/>
<feOffset dy="4"/>
<feGaussianBlur stdDeviation="2"/>
<feComposite in2="hardAlpha" operator="out"/>
<feColorMatrix type="matrix" values="0 0 0 0 0 0 0 0 0 0 0 0 0 0 0 0 0 0 0.25 0"/>
<feBlend mode="normal" in2="BackgroundImageFix" result="effect1_dropShadow_59_7"/>
<feBlend mode="normal" in="SourceGraphic" in2="effect1_dropShadow_59_7" result="shape"/>
</filter>
<filter id="filter12_d_59_7" x="372.108" y="10.8716" width="18.0264" height="120.661" filterUnits="userSpaceOnUse" color-interpolation-filters="sRGB">
<feFlood flood-opacity="0" result="BackgroundImageFix"/>
<feColorMatrix in="SourceAlpha" type="matrix" values="0 0 0 0 0 0 0 0 0 0 0 0 0 0 0 0 0 0 127 0" result="hardAlpha"/>
<feOffset dy="4"/>
<feGaussianBlur stdDeviation="2"/>
<feComposite in2="hardAlpha" operator="out"/>
<feColorMatrix type="matrix" values="0 0 0 0 0 0 0 0 0 0 0 0 0 0 0 0 0 0 0.25 0"/>
<feBlend mode="normal" in2="BackgroundImageFix" result="effect1_dropShadow_59_7"/>
<feBlend mode="normal" in="SourceGraphic" in2="effect1_dropShadow_59_7" result="shape"/>
</filter>
<filter id="filter13_d_59_7" x="377.411" y="10.7634" width="14.3125" height="122.078" filterUnits="userSpaceOnUse" color-interpolation-filters="sRGB">
<feFlood flood-opacity="0" result="BackgroundImageFix"/>
<feColorMatrix in="SourceAlpha" type="matrix" values="0 0 0 0 0 0 0 0 0 0 0 0 0 0 0 0 0 0 127 0" result="hardAlpha"/>
<feOffset dy="4"/>
<feGaussianBlur stdDeviation="2"/>
<feComposite in2="hardAlpha" operator="out"/>
<feColorMatrix type="matrix" values="0 0 0 0 0 0 0 0 0 0 0 0 0 0 0 0 0 0 0.25 0"/>
<feBlend mode="normal" in2="BackgroundImageFix" result="effect1_dropShadow_59_7"/>
<feBlend mode="normal" in="SourceGraphic" in2="effect1_dropShadow_59_7" result="shape"/>
</filter>
<filter id="filter14_d_59_7" x="524.405" y="12.1162" width="14.3125" height="123.431" filterUnits="userSpaceOnUse" color-interpolation-filters="sRGB">
<feFlood flood-opacity="0" result="BackgroundImageFix"/>
<feColorMatrix in="SourceAlpha" type="matrix" values="0 0 0 0 0 0 0 0 0 0 0 0 0 0 0 0 0 0 127 0" result="hardAlpha"/>
<feOffset dy="4"/>
<feGaussianBlur stdDeviation="2"/>
<feComposite in2="hardAlpha" operator="out"/>
<feColorMatrix type="matrix" values="0 0 0 0 0 0 0 0 0 0 0 0 0 0 0 0 0 0 0.25 0"/>
<feBlend mode="normal" in2="BackgroundImageFix" result="effect1_dropShadow_59_7"/>
<feBlend mode="normal" in="SourceGraphic" in2="effect1_dropShadow_59_7" result="shape"/>
</filter>
<filter id="filter15_d_59_7" x="524.405" y="12.1162" width="14.3125" height="117.118" filterUnits="userSpaceOnUse" color-interpolation-filters="sRGB">
<feFlood flood-opacity="0" result="BackgroundImageFix"/>
<feColorMatrix in="SourceAlpha" type="matrix" values="0 0 0 0 0 0 0 0 0 0 0 0 0 0 0 0 0 0 127 0" result="hardAlpha"/>
<feOffset dy="4"/>
<feGaussianBlur stdDeviation="2"/>
<feComposite in2="hardAlpha" operator="out"/>
<feColorMatrix type="matrix" values="0 0 0 0 0 0 0 0 0 0 0 0 0 0 0 0 0 0 0.25 0"/>
<feBlend mode="normal" in2="BackgroundImageFix" result="effect1_dropShadow_59_7"/>
<feBlend mode="normal" in="SourceGraphic" in2="effect1_dropShadow_59_7" result="shape"/>
</filter>
<filter id="filter16_d_59_7" x="525.866" y="12.2244" width="18.0264" height="120.66" filterUnits="userSpaceOnUse" color-interpolation-filters="sRGB">
<feFlood flood-opacity="0" result="BackgroundImageFix"/>
<feColorMatrix in="SourceAlpha" type="matrix" values="0 0 0 0 0 0 0 0 0 0 0 0 0 0 0 0 0 0 127 0" result="hardAlpha"/>
<feOffset dy="4"/>
<feGaussianBlur stdDeviation="2"/>
<feComposite in2="hardAlpha" operator="out"/>
<feColorMatrix type="matrix" values="0 0 0 0 0 0 0 0 0 0 0 0 0 0 0 0 0 0 0.25 0"/>
<feBlend mode="normal" in2="BackgroundImageFix" result="effect1_dropShadow_59_7"/>
<feBlend mode="normal" in="SourceGraphic" in2="effect1_dropShadow_59_7" result="shape"/>
</filter>
<filter id="filter17_d_59_7" x="514.143" y="12.2244" width="18.0264" height="120.661" filterUnits="userSpaceOnUse" color-interpolation-filters="sRGB">
<feFlood flood-opacity="0" result="BackgroundImageFix"/>
<feColorMatrix in="SourceAlpha" type="matrix" values="0 0 0 0 0 0 0 0 0 0 0 0 0 0 0 0 0 0 127 0" result="hardAlpha"/>
<feOffset dy="4"/>
<feGaussianBlur stdDeviation="2"/>
<feComposite in2="hardAlpha" operator="out"/>
<feColorMatrix type="matrix" values="0 0 0 0 0 0 0 0 0 0 0 0 0 0 0 0 0 0 0.25 0"/>
<feBlend mode="normal" in2="BackgroundImageFix" result="effect1_dropShadow_59_7"/>
<feBlend mode="normal" in="SourceGraphic" in2="effect1_dropShadow_59_7" result="shape"/>
</filter>
<filter id="filter18_d_59_7" x="519.445" y="12.1162" width="14.3125" height="122.078" filterUnits="userSpaceOnUse" color-interpolation-filters="sRGB">
<feFlood flood-opacity="0" result="BackgroundImageFix"/>
<feColorMatrix in="SourceAlpha" type="matrix" values="0 0 0 0 0 0 0 0 0 0 0 0 0 0 0 0 0 0 127 0" result="hardAlpha"/>
<feOffset dy="4"/>
<feGaussianBlur stdDeviation="2"/>
<feComposite in2="hardAlpha" operator="out"/>
<feColorMatrix type="matrix" values="0 0 0 0 0 0 0 0 0 0 0 0 0 0 0 0 0 0 0.25 0"/>
<feBlend mode="normal" in2="BackgroundImageFix" result="effect1_dropShadow_59_7"/>
<feBlend mode="normal" in="SourceGraphic" in2="effect1_dropShadow_59_7" result="shape"/>
</filter>
<filter id="filter19_d_59_7" x="380.52" y="5.80371" width="27.9443" height="25.5852" filterUnits="userSpaceOnUse" color-interpolation-filters="sRGB">
<feFlood flood-opacity="0" result="BackgroundImageFix"/>
<feColorMatrix in="SourceAlpha" type="matrix" values="0 0 0 0 0 0 0 0 0 0 0 0 0 0 0 0 0 0 127 0" result="hardAlpha"/>
<feOffset dy="4"/>
<feGaussianBlur stdDeviation="2"/>
<feComposite in2="hardAlpha" operator="out"/>
<feColorMatrix type="matrix" values="0 0 0 0 0 0 0 0 0 0 0 0 0 0 0 0 0 0 0.25 0"/>
<feBlend mode="normal" in2="BackgroundImageFix" result="effect1_dropShadow_59_7"/>
<feBlend mode="normal" in="SourceGraphic" in2="effect1_dropShadow_59_7" result="shape"/>
</filter>
<filter id="filter20_d_59_7" x="413.199" y="6.25439" width="24.1113" height="25.5852" filterUnits="userSpaceOnUse" color-interpolation-filters="sRGB">
<feFlood flood-opacity="0" result="BackgroundImageFix"/>
<feColorMatrix in="SourceAlpha" type="matrix" values="0 0 0 0 0 0 0 0 0 0 0 0 0 0 0 0 0 0 127 0" result="hardAlpha"/>
<feOffset dy="4"/>
<feGaussianBlur stdDeviation="2"/>
<feComposite in2="hardAlpha" operator="out"/>
<feColorMatrix type="matrix" values="0 0 0 0 0 0 0 0 0 0 0 0 0 0 0 0 0 0 0.25 0"/>
<feBlend mode="normal" in2="BackgroundImageFix" result="effect1_dropShadow_59_7"/>
<feBlend mode="normal" in="SourceGraphic" in2="effect1_dropShadow_59_7" result="shape"/>
</filter>
<filter id="filter21_d_59_7" x="397.404" y="4" width="25.4873" height="27.3887" filterUnits="userSpaceOnUse" color-interpolation-filters="sRGB">
<feFlood flood-opacity="0" result="BackgroundImageFix"/>
<feColorMatrix in="SourceAlpha" type="matrix" values="0 0 0 0 0 0 0 0 0 0 0 0 0 0 0 0 0 0 127 0" result="hardAlpha"/>
<feOffset dy="4"/>
<feGaussianBlur stdDeviation="2"/>
<feComposite in2="hardAlpha" operator="out"/>
<feColorMatrix type="matrix" values="0 0 0 0 0 0 0 0 0 0 0 0 0 0 0 0 0 0 0.25 0"/>
<feBlend mode="normal" in2="BackgroundImageFix" result="effect1_dropShadow_59_7"/>
<feBlend mode="normal" in="SourceGraphic" in2="effect1_dropShadow_59_7" result="shape"/>
</filter>
<filter id="filter22_d_59_7" x="440.11" y="6.25439" width="27.873" height="25.5852" filterUnits="userSpaceOnUse" color-interpolation-filters="sRGB">
<feFlood flood-opacity="0" result="BackgroundImageFix"/>
<feColorMatrix in="SourceAlpha" type="matrix" values="0 0 0 0 0 0 0 0 0 0 0 0 0 0 0 0 0 0 127 0" result="hardAlpha"/>
<feOffset dy="4"/>
<feGaussianBlur stdDeviation="2"/>
<feComposite in2="hardAlpha" operator="out"/>
<feColorMatrix type="matrix" values="0 0 0 0 0 0 0 0 0 0 0 0 0 0 0 0 0 0 0.25 0"/>
<feBlend mode="normal" in2="BackgroundImageFix" result="effect1_dropShadow_59_7"/>
<feBlend mode="normal" in="SourceGraphic" in2="effect1_dropShadow_59_7" result="shape"/>
</filter>
<filter id="filter23_d_59_7" x="472.718" y="6.70532" width="24.1113" height="25.5852" filterUnits="userSpaceOnUse" color-interpolation-filters="sRGB">
<feFlood flood-opacity="0" result="BackgroundImageFix"/>
<feColorMatrix in="SourceAlpha" type="matrix" values="0 0 0 0 0 0 0 0 0 0 0 0 0 0 0 0 0 0 127 0" result="hardAlpha"/>
<feOffset dy="4"/>
<feGaussianBlur stdDeviation="2"/>
<feComposite in2="hardAlpha" operator="out"/>
<feColorMatrix type="matrix" values="0 0 0 0 0 0 0 0 0 0 0 0 0 0 0 0 0 0 0.25 0"/>
<feBlend mode="normal" in2="BackgroundImageFix" result="effect1_dropShadow_59_7"/>
<feBlend mode="normal" in="SourceGraphic" in2="effect1_dropShadow_59_7" result="shape"/>
</filter>
<filter id="filter24_d_59_7" x="456.908" y="4" width="25.5107" height="27.8396" filterUnits="userSpaceOnUse" color-interpolation-filters="sRGB">
<feFlood flood-opacity="0" result="BackgroundImageFix"/>
<feColorMatrix in="SourceAlpha" type="matrix" values="0 0 0 0 0 0 0 0 0 0 0 0 0 0 0 0 0 0 127 0" result="hardAlpha"/>
<feOffset dy="4"/>
<feGaussianBlur stdDeviation="2"/>
<feComposite in2="hardAlpha" operator="out"/>
<feColorMatrix type="matrix" values="0 0 0 0 0 0 0 0 0 0 0 0 0 0 0 0 0 0 0.25 0"/>
<feBlend mode="normal" in2="BackgroundImageFix" result="effect1_dropShadow_59_7"/>
<feBlend mode="normal" in="SourceGraphic" in2="effect1_dropShadow_59_7" result="shape"/>
</filter>
<filter id="filter25_d_59_7" x="501.125" y="6.70532" width="24.1113" height="25.5852" filterUnits="userSpaceOnUse" color-interpolation-filters="sRGB">
<feFlood flood-opacity="0" result="BackgroundImageFix"/>
<feColorMatrix in="SourceAlpha" type="matrix" values="0 0 0 0 0 0 0 0 0 0 0 0 0 0 0 0 0 0 127 0" result="hardAlpha"/>
<feOffset dy="4"/>
<feGaussianBlur stdDeviation="2"/>
<feComposite in2="hardAlpha" operator="out"/>
<feColorMatrix type="matrix" values="0 0 0 0 0 0 0 0 0 0 0 0 0 0 0 0 0 0 0.25 0"/>
<feBlend mode="normal" in2="BackgroundImageFix" result="effect1_dropShadow_59_7"/>
<feBlend mode="normal" in="SourceGraphic" in2="effect1_dropShadow_59_7" result="shape"/>
</filter>
<filter id="filter26_d_59_7" x="513.198" y="4" width="23.8267" height="28.2905" filterUnits="userSpaceOnUse" color-interpolation-filters="sRGB">
<feFlood flood-opacity="0" result="BackgroundImageFix"/>
<feColorMatrix in="SourceAlpha" type="matrix" values="0 0 0 0 0 0 0 0 0 0 0 0 0 0 0 0 0 0 127 0" result="hardAlpha"/>
<feOffset dy="4"/>
<feGaussianBlur stdDeviation="2"/>
<feComposite in2="hardAlpha" operator="out"/>
<feColorMatrix type="matrix" values="0 0 0 0 0 0 0 0 0 0 0 0 0 0 0 0 0 0 0.25 0"/>
<feBlend mode="normal" in2="BackgroundImageFix" result="effect1_dropShadow_59_7"/>
<feBlend mode="normal" in="SourceGraphic" in2="effect1_dropShadow_59_7" result="shape"/>
</filter>
<filter id="filter27_d_59_7" x="425.391" y="4" width="26.7886" height="27.8396" filterUnits="userSpaceOnUse" color-interpolation-filters="sRGB">
<feFlood flood-opacity="0" result="BackgroundImageFix"/>
<feColorMatrix in="SourceAlpha" type="matrix" values="0 0 0 0 0 0 0 0 0 0 0 0 0 0 0 0 0 0 127 0" result="hardAlpha"/>
<feOffset dy="4"/>
<feGaussianBlur stdDeviation="2"/>
<feComposite in2="hardAlpha" operator="out"/>
<feColorMatrix type="matrix" values="0 0 0 0 0 0 0 0 0 0 0 0 0 0 0 0 0 0 0.25 0"/>
<feBlend mode="normal" in2="BackgroundImageFix" result="effect1_dropShadow_59_7"/>
<feBlend mode="normal" in="SourceGraphic" in2="effect1_dropShadow_59_7" result="shape"/>
</filter>
<filter id="filter28_d_59_7" x="484.895" y="4" width="26.8135" height="28.2905" filterUnits="userSpaceOnUse" color-interpolation-filters="sRGB">
<feFlood flood-opacity="0" result="BackgroundImageFix"/>
<feColorMatrix in="SourceAlpha" type="matrix" values="0 0 0 0 0 0 0 0 0 0 0 0 0 0 0 0 0 0 127 0" result="hardAlpha"/>
<feOffset dy="4"/>
<feGaussianBlur stdDeviation="2"/>
<feComposite in2="hardAlpha" operator="out"/>
<feColorMatrix type="matrix" values="0 0 0 0 0 0 0 0 0 0 0 0 0 0 0 0 0 0 0.25 0"/>
<feBlend mode="normal" in2="BackgroundImageFix" result="effect1_dropShadow_59_7"/>
<feBlend mode="normal" in="SourceGraphic" in2="effect1_dropShadow_59_7" result="shape"/>
</filter>
<linearGradient id="paint0_linear_59_7" x1="252.781" y1="57.7198" x2="320.101" y2="57.7198" gradientUnits="userSpaceOnUse">
<stop stop-color="#D6B42E"/>
<stop offset="1" stop-color="#A88D23"/>
</linearGradient>
<linearGradient id="paint1_linear_59_7" x1="255.404" y1="58.1569" x2="317.042" y2="58.1569" gradientUnits="userSpaceOnUse">
<stop stop-color="#D1F5FF"/>
<stop offset="1" stop-color="#A0BDC5"/>
</linearGradient>
<linearGradient id="paint2_linear_59_7" x1="283.819" y1="56.1899" x2="288.19" y2="56.1899" gradientUnits="userSpaceOnUse">
<stop stop-color="#F63A4A"/>
<stop offset="1" stop-color="#90222B"/>
</linearGradient>
<linearGradient id="paint3_linear_59_7" x1="283.69" y1="57.9508" x2="281.458" y2="59.3656" gradientUnits="userSpaceOnUse">
<stop stop-color="#E50404"/>
<stop offset="1" stop-color="#B50000"/>
</linearGradient>
<linearGradient id="paint4_linear_59_7" x1="282.379" y1="52.7443" x2="277.142" y2="51.8208" gradientUnits="userSpaceOnUse">
<stop stop-color="#FF0000"/>
<stop offset="1" stop-color="#CE0101"/>
</linearGradient>
<linearGradient id="paint5_linear_59_7" x1="278.818" y1="52.1361" x2="276.199" y2="51.7857" gradientUnits="userSpaceOnUse">
<stop stop-color="#E50404"/>
<stop offset="1" stop-color="#B50000"/>
</linearGradient>
<linearGradient id="paint6_linear_59_7" x1="286.828" y1="56.3137" x2="282.222" y2="58.9726" gradientUnits="userSpaceOnUse">
<stop stop-color="#FF0000"/>
<stop offset="1" stop-color="#CE0101"/>
</linearGradient>
<linearGradient id="paint7_linear_59_7" x1="424.697" y1="31.9558" x2="424.697" y2="107.256" gradientUnits="userSpaceOnUse">
<stop stop-color="#C09C92"/>
<stop offset="1" stop-color="#5F4B45"/>
</linearGradient>
<linearGradient id="paint8_linear_59_7" x1="488.421" y1="32.1326" x2="488.421" y2="107.433" gradientUnits="userSpaceOnUse">
<stop stop-color="#C09C92"/>
<stop offset="1" stop-color="#5F4B45"/>
</linearGradient>
</defs>
</svg>
