<svg width="167" height="136" viewBox="0 0 167 136" fill="none" xmlns="http://www.w3.org/2000/svg">
<path d="M37.8918 46.0394L122.992 71.289L103.58 105.402L9.85493 71.2885L37.8918 46.0394Z" fill="#E5CE3B"/>
<path d="M41.9572 49.2645L115.797 71.3471L99.1525 100.952L17.7936 71.3471L41.9572 49.2645Z" fill="#383A69"/>
<path d="M9.85449 71.0989L103.734 105.271L103.734 135.929L10.0489 101.194L9.85449 71.0989Z" fill="#C77B26"/>
<path d="M17.5459 71.3469L41.8607 49.2651L41.8607 61.1744L28.4627 75.3167L17.5459 71.3469Z" fill="#293772"/>
<path d="M41.8614 49.2654L116.046 71.347L109.347 83.0082L41.8614 61.1746L41.8614 49.2654Z" fill="#455CA1"/>
<path d="M103.64 105.09L122.992 71.3469V96.9023L103.64 135.856V105.09Z" fill="#4C2D27"/>
<path d="M123.24 71.2033L147.307 33.3859L146.43 57.5081C146.354 59.5834 145.723 61.6004 144.602 63.3484L136.981 75.231C132.959 81.502 123.24 78.6532 123.24 71.2033Z" fill="#4C2D27"/>
<path d="M68.6564 18.2516L147.058 33.6346L122.992 71.3472L37.8908 46.0398L68.6564 18.2516Z" fill="#D3C853"/>
<path d="M72.626 28.424L134.654 43.3106L119.022 66.1365L50.7922 46.5358L72.626 28.424Z" fill="#31427C"/>
<path d="M46.8228 45.2955L71.1375 21.7251V34.2728C71.1375 38.5566 69.1206 42.5903 65.6936 45.1606C62.2503 47.7431 57.7882 48.5446 53.6614 47.3218L46.8228 45.2955Z" fill="#2A396E"/>
<path d="M71.0584 21.7249L140.112 35.8673L134.654 43.3106L71.0584 29.9126L71.0584 21.7249Z" fill="#495AA4"/>
<path d="M17.5459 83.0083L92.5295 110.549L92.5295 124.578L17.5459 96.4062L17.5459 83.0083Z" fill="#248383"/>
<path d="M95.0434 45.7552C98.0378 42.8904 103.017 44.7028 103.47 48.8222L104.424 57.5076C104.604 59.1434 105.577 60.586 107.026 61.3654L114.722 65.5035C118.372 67.4661 118.187 72.7621 114.409 74.4654L106.443 78.0565C104.943 78.7329 103.872 80.1041 103.578 81.7234L102.021 90.3211C101.282 94.3989 96.1881 95.8596 93.4008 92.7928L87.5239 86.3269C86.4171 85.1091 84.7818 84.514 83.1511 84.7354L74.493 85.911C70.3865 86.4685 67.4232 82.0753 69.4785 78.4767L73.8119 70.8894C74.6281 69.4604 74.6888 67.7213 73.9743 66.2388L70.1808 58.3677C68.3815 54.6345 71.644 50.4587 75.7016 51.3014L84.2566 53.078C85.8679 53.4127 87.5407 52.933 88.7298 51.7954L95.0434 45.7552Z" fill="#DF753A"/>
<path d="M82.5068 59.6599C84.0269 60.2132 85.6279 60.4478 87.1523 61.0026" stroke="#B82527" stroke-width="2" stroke-linecap="round"/>
<path d="M85.0425 60.5828C84.7354 61.4264 84.5374 62.282 84.2899 63.1419C84.1961 63.4679 84.2224 63.7924 84.1053 64.1141C83.9425 64.5614 83.8315 64.9575 83.7975 65.4379" stroke="#B82527" stroke-width="2" stroke-linecap="round"/>
<path d="M86.8399 66.6149C87.4969 65.1782 88.6476 63.9441 89.5083 62.6308C89.5584 62.5543 89.9319 61.9731 89.9859 62.0359C90.0809 62.1467 90.0538 62.4962 90.0501 62.6298C90.0206 63.7089 90.3992 64.8602 90.5724 65.9236C90.6213 66.2244 90.71 67.1442 90.9337 67.3218" stroke="#B82527" stroke-width="2" stroke-linecap="round"/>
<path d="M88.2098 64.7641C88.433 64.8453 90.016 65.425 90.0051 65.3305" stroke="#B82527" stroke-width="2" stroke-linecap="round"/>
<path d="M94.3188 62.0269C93.9324 63.7839 93.5622 65.5063 93.2585 67.2779C93.1618 67.8416 93.1844 68.491 92.9894 69.0267" stroke="#B82527" stroke-width="2" stroke-linecap="round"/>
<path d="M96.1486 64.1724C95.4607 64.5658 94.8823 65.261 94.3162 65.8067C94.0089 66.1029 93.3191 67.1646 93.4651 66.7635" stroke="#B82527" stroke-width="2" stroke-linecap="round"/>
<path d="M94.1499 66.3164C94.961 67.2652 95.2466 68.7433 96.182 69.5796" stroke="#B82527" stroke-width="2" stroke-linecap="round"/>
<path d="M99.6177 63.4275L102.307 64.4064" stroke="#B82527" stroke-width="2" stroke-linecap="round"/>
<path d="M99.7437 63.5603C99.3534 64.6746 99.0573 65.8235 98.8453 66.9849C98.704 67.7588 98.441 68.5308 98.3649 69.3143C98.3258 69.7161 97.9694 70.5489 98.1509 70.9382C98.2746 71.2033 98.9787 71.0267 99.2182 71.1139C99.3569 71.1644 100.144 71.5151 100.126 71.3571" stroke="#B82527" stroke-width="2" stroke-linecap="round"/>
<path d="M99.0439 67.3955L101.503 68.2905" stroke="#B82527" stroke-width="2" stroke-linecap="round"/>
<path d="M81.6297 76.5785C82.0761 75.3519 82.5226 74.1253 82.969 72.8987C83.113 72.5031 83.257 72.1075 83.401 71.7119C83.4517 71.5726 83.4817 71.9976 83.5099 72.1432C83.7575 73.4213 84.4403 74.4936 84.9073 75.7023C84.9664 75.8554 85.0564 76.4104 85.2913 76.4271C85.4136 76.4358 85.5735 75.7847 85.6059 75.6956C85.9449 74.7641 86.5021 73.9314 87.0998 73.1452C87.1168 73.1229 87.5174 72.7105 87.5428 72.765C87.5746 72.8333 87.4422 73.1046 87.4658 73.2156C87.6385 74.028 87.9048 74.8103 88.0884 75.6225C88.2458 76.3189 88.5787 76.982 88.7135 77.6775" stroke="#B82527" stroke-width="2" stroke-linecap="round"/>
<path d="M93.5098 74.406C94.4292 74.752 95.3247 75.1536 96.2481 75.4897" stroke="#B82527" stroke-width="2" stroke-linecap="round"/>
<path d="M93.5098 74.406C93.2151 75.865 92.7143 77.2861 92.4683 78.7551C92.4214 79.0352 92.1966 79.7059 92.6031 79.8194C92.7472 79.8596 92.8326 79.7602 92.9687 79.7446C93.1894 79.7192 93.4309 79.8667 93.6409 79.9167C93.9531 79.991 94.2395 80.0669 94.542 80.177" stroke="#B82527" stroke-width="2" stroke-linecap="round"/>
<path d="M92.8382 77.2072C93.3391 77.3895 93.84 77.5718 94.3409 77.7541C94.5907 77.845 95.0807 78.1393 95.3251 78.0253" stroke="#B82527" stroke-width="2" stroke-linecap="round"/>
<circle cx="59.3196" cy="52.1458" r="24.811" transform="rotate(20 59.3196 52.1458)" fill="#90D3C8"/>
<circle cx="57.1222" cy="29.1672" r="7.93952" transform="rotate(20 57.1222 29.1672)" fill="#90D3C8"/>
<circle cx="44.8678" cy="35.2685" r="7.93952" transform="rotate(20 44.8678 35.2685)" fill="#90D3C8"/>
<circle cx="37.4879" cy="46.84" r="7.93952" transform="rotate(20 37.4879 46.84)" fill="#90D3C8"/>
<circle cx="37.6114" cy="59.5585" r="7.93952" transform="rotate(20 37.6114 59.5585)" fill="#90D3C8"/>
<circle cx="46.2994" cy="69.0575" r="7.93952" transform="rotate(20 46.2994 69.0575)" fill="#90D3C8"/>
<circle cx="70.3478" cy="33.4528" r="7.93952" transform="rotate(20 70.3478 33.4528)" fill="#90D3C8"/>
<circle cx="79.0792" cy="41.3832" r="7.93952" transform="rotate(20 79.0792 41.3832)" fill="#90D3C8"/>
<circle cx="83.4845" cy="52.4921" r="7.93952" transform="rotate(20 83.4845 52.4921)" fill="#90D3C8"/>
<circle cx="79.2418" cy="64.1493" r="7.93952" transform="rotate(20 79.2418 64.1493)" fill="#90D3C8"/>
<circle cx="69.4034" cy="73.7702" r="7.93952" transform="rotate(20 69.4034 73.7702)" fill="#90D3C8"/>
<circle cx="58.2106" cy="75.505" r="7.93952" transform="rotate(20 58.2106 75.505)" fill="#90D3C8"/>
<path d="M80.5696 48.0852C82.3316 48.7266 84.1212 49.2814 85.8855 49.9235" stroke="#702C2E" stroke-width="2" stroke-linecap="round"/>
<path d="M80.6549 48.1162C79.928 50.1133 79.0872 52.0977 78.5925 54.1657C78.3797 55.0551 78.0615 55.9141 77.9618 56.8267C77.9336 57.0845 77.5796 58.0824 77.9205 58.2221C78.5813 58.4931 79.3038 58.6291 79.983 58.8763C80.6857 59.1321 81.3868 59.4407 82.1063 59.6438C82.3115 59.7017 83.0115 59.963 83.1469 59.8348" stroke="#702C2E" stroke-width="2" stroke-linecap="round"/>
<path d="M79.1113 53.1531C80.8489 53.7855 82.5067 54.582 84.2489 55.2161" stroke="#702C2E" stroke-width="2" stroke-linecap="round"/>
<path d="M60.1794 50.1207C60.7185 49.2582 61.1299 48.3255 61.5545 47.4035C62.0224 46.3873 62.6154 45.4903 63.1699 44.527C63.5759 43.8216 63.8299 43.0452 64.3016 42.3754C64.5137 42.0742 64.776 41.8494 64.9481 41.5274" stroke="#702C2E" stroke-width="2" stroke-linecap="round"/>
<path d="M64.9282 41.533C65.04 44.061 64.8059 46.6022 65.0365 49.1298C65.142 50.2859 65.0989 51.4512 65.3453 52.5583" stroke="#702C2E" stroke-width="2" stroke-linecap="round"/>
<path d="M61.7768 47.3234C62.4029 47.5513 63.0632 47.6131 63.6857 47.8251C63.9094 47.9013 64.7665 48.392 64.8843 48.0683" stroke="#702C2E" stroke-width="2" stroke-linecap="round"/>
<path d="M48.3398 56.197L44.9226 65.5857" stroke="#702C2E" stroke-width="2" stroke-linecap="round"/>
<path d="M48.3398 56.197C48.0726 57.5399 48.7577 59.3007 49.1526 60.5715C49.3898 61.3343 49.5073 62.2232 49.6589 63.006" stroke="#702C2E" stroke-width="2" stroke-linecap="round"/>
<path d="M49.6587 63.006C50.6672 61.705 51.4726 60.257 52.5933 59.0391C52.9662 58.6338 53.1129 58.3842 53.2982 57.8752" stroke="#702C2E" stroke-width="2" stroke-linecap="round"/>
<path d="M53.2983 57.8752C52.9459 60.181 53.2669 62.5223 53.1625 64.8368C53.1241 65.6872 53.1686 66.5187 53.2651 67.3564" stroke="#702C2E" stroke-width="2" stroke-linecap="round"/>
<path d="M60.6592 58.9702L66.9183 61.2484" stroke="#702C2E" stroke-width="2" stroke-linecap="round"/>
<path d="M60.4658 59.1531C59.9066 61.0249 59.581 63.0154 59.1335 64.9196C58.7827 66.4121 58.3466 67.9232 58.1154 69.4364" stroke="#702C2E" stroke-width="2" stroke-linecap="round"/>
<path d="M58.1156 69.4362C59.1774 69.8227 60.2392 70.2092 61.301 70.5956C62.0657 70.874 63.182 71.5304 63.9683 71.4399" stroke="#702C2E" stroke-width="2" stroke-linecap="round"/>
<path d="M59.5703 64.3962L64.4882 66.1862" stroke="#702C2E" stroke-width="2" stroke-linecap="round"/>
<path d="M71.7544 44.2412C71.6595 44.6003 71.6662 44.9941 71.5883 45.3606C71.395 46.2704 71.1557 47.1632 70.9753 48.0763C70.7504 49.214 70.3015 50.3021 70.0748 51.449C69.9201 52.2322 69.7332 53.0815 69.5071 53.8488C69.4123 54.1704 69.1969 54.6835 69.279 55.0207" stroke="#702C2E" stroke-width="2" stroke-linecap="round"/>
<path d="M72.0102 44.3344C73.5802 44.6265 76.2191 44.9708 75.4038 47.2106C74.984 48.3641 73.4761 49.6597 72.3065 49.9446C71.8254 50.0618 71.6514 50.0923 71.1927 49.9253C70.9461 49.8356 71.6569 50.1858 71.8388 50.375C72.2165 50.7679 72.4957 51.217 72.839 51.6347C73.4277 52.3509 74.0153 53.1196 74.6501 53.7901C74.9183 54.0734 75.117 54.4013 75.3861 54.6855C75.5241 54.8312 75.766 54.9705 75.789 55.17" stroke="#702C2E" stroke-width="2" stroke-linecap="round"/>
<path d="M49.3009 37.1463C48.4115 36.096 47.9387 34.8401 46.4053 35.0165C45.4175 35.1302 44.885 35.4055 44.1784 36.1117C43.3303 36.9593 43.8011 38.6061 44.4224 39.4212C45.2712 40.5346 46.7547 40.8796 47.6476 41.9593C49.2187 43.8592 47.1241 46.7334 44.8908 45.9205C44.1445 45.6489 43.4711 45.5072 43.2037 44.7017C43.0972 44.3811 42.8598 44.062 42.7348 43.7294C42.6175 43.4174 42.6856 43.0026 42.45 42.7538" stroke="#702C2E" stroke-width="2" stroke-linecap="round"/>
<path d="M54.1216 37.4104C53.2464 39.8882 52.6465 42.5751 52.0666 45.1431C51.7979 46.3327 51.7125 47.5071 51.2932 48.659" stroke="#702C2E" stroke-width="2" stroke-linecap="round"/>
<path d="M52.9214 42.7959L56.1627 43.9757" stroke="#702C2E" stroke-width="2" stroke-linecap="round"/>
<path d="M58.3188 38.0518C57.4168 40.6539 56.668 43.3912 56.0904 46.087C55.8618 47.1542 55.5989 48.3068 55.2263 49.3307" stroke="#702C2E" stroke-width="2" stroke-linecap="round"/>
<path d="M59.228 31.8236C59.4909 31.9697 60.1585 32.4824 60.0252 31.7491C59.9321 31.2367 59.6826 31.1531 59.228 31.1531" stroke="#06482B" stroke-width="2" stroke-linecap="round"/>
<path d="M51.2886 53.1613C51.5514 53.3073 52.2191 53.82 52.0858 53.0868C51.9926 52.5744 51.7432 52.4907 51.2886 52.4907" stroke="#06482B" stroke-width="2" stroke-linecap="round"/>
<path d="M40.0068 58.9874C40.2888 58.9874 40.683 59.0618 40.9381 58.9129C41.0434 58.8515 41.1974 58.5134 41.0052 58.4585C40.5358 58.3243 40.4883 58.7192 40.1409 58.7192" stroke="#06482B" stroke-width="2" stroke-linecap="round"/>
<path d="M75.814 64.62C76.6051 65.499 76.9694 64.3518 76.0822 64.3518" stroke="#06482B" stroke-width="2" stroke-linecap="round"/>
<path d="M56.251 77.0736C57.0421 77.9526 57.4064 76.8054 56.5192 76.8054" stroke="#06482B" stroke-width="2" stroke-linecap="round"/>
<path d="M81 41.2682C81.7911 42.1472 82.1554 41 81.2682 41" stroke="#06482B" stroke-width="2" stroke-linecap="round"/>
<path d="M71.7908 72.1301C71.7908 72.5752 71.7661 73.0271 71.7908 73.4712C71.8184 73.9697 72.408 73.5856 72.5358 73.3371C72.8929 72.6427 72.2391 72.6246 72.059 72.2642" stroke="#06482B" stroke-width="2" stroke-linecap="round"/>
<path d="M69.6449 36.4574C69.2158 36.9401 69.9918 36.905 70.308 36.8523C70.8603 36.7602 70.0063 36.2513 69.9131 36.1892" stroke="#06482B" stroke-width="2" stroke-linecap="round"/>
<path d="M39.3364 52.1481C39.5993 52.2941 40.2669 52.8068 40.1336 52.0736C40.0405 51.5612 39.791 51.4775 39.3364 51.4775" stroke="#06482B" stroke-width="2" stroke-linecap="round"/>
</svg>
