<svg width="104" height="158" viewBox="0 0 104 158" fill="none" xmlns="http://www.w3.org/2000/svg">
<path d="M8.00391 52.477C8.00391 35.9085 21.4354 22.4771 38.0039 22.4771H41.4009C57.9694 22.4771 71.4009 35.9085 71.4009 52.4771V141C71.4009 146.523 66.9237 151 61.4009 151H18.0039C12.4811 151 8.00391 146.523 8.00391 141V52.477Z" fill="url(#paint0_linear_54_576)"/>
<rect x="13.1909" y="9.79761" width="52.4466" height="12.1031" rx="6.05153" fill="url(#paint1_linear_54_576)"/>
<path d="M23.5649 22.189H55.8398" stroke="#705228" stroke-width="5" stroke-linecap="round"/>
<path d="M22.0426 2.40331C21.7872 1.16262 22.7349 0 24.0016 0H55.4033C56.67 0 57.6176 1.16262 57.3622 2.40331L55.8398 9.79771H23.565L22.0426 2.40331Z" fill="#705228"/>
<g filter="url(#filter0_d_54_576)">
<path d="M8.43517 43.5866L15.1024 27.3602L40.015 18.2927L58.2604 25.4517L95.5158 127.81L45.6906 145.945L8.43517 43.5866Z" fill="#C871AA"/>
</g>
<path d="M48.4888 56.2109L51.7589 65.1956" stroke="#460104" stroke-width="2" stroke-linecap="round"/>
<path d="M48.9192 57.9733C48.1731 58.1899 47.3766 58.1905 46.6093 58.2706C45.4722 58.3894 44.3623 58.5526 43.2159 58.5104C41.9959 58.4654 40.5089 58.4302 39.2951 58.6429C38.9559 58.7023 36.5831 58.9106 36.592 58.8329" stroke="#460104" stroke-width="2" stroke-linecap="round"/>
<path d="M41.5951 58.9905C42.011 60.1333 42.4785 61.2722 42.9496 62.3933C43.0421 62.6135 43.3341 63.5147 43.5819 63.5432" stroke="#460104" stroke-width="2" stroke-linecap="round"/>
<path d="M35.9565 58.2948C36.7337 60.43 37.5109 62.5653 38.288 64.7005C38.5772 65.4949 38.8663 66.2893 39.1555 67.0838C39.2298 67.288 39.519 67.7673 39.3567 67.9387" stroke="#460104" stroke-width="2" stroke-linecap="round"/>
<path d="M52.8043 72.2163C52.0588 72.4193 51.1956 72.4829 50.4278 72.4484C48.5192 72.3626 46.5755 72.5805 44.6591 72.5642C43.2492 72.5522 41.6858 72.4692 40.2915 72.7074C40.0595 72.7471 39.3801 72.9158 39.196 72.8299" stroke="#460104" stroke-width="2" stroke-linecap="round"/>
<path d="M38.6367 72.0388L39.3631 74.0345" stroke="#460104" stroke-width="2" stroke-linecap="round"/>
<path d="M54.5986 71.3125C54.4424 71.4926 54.2085 71.6078 54.0101 71.7331C53.5482 72.0249 53.0915 72.3235 52.6391 72.6297C51.6815 73.2779 50.6482 73.8357 49.63 74.3825C48.0568 75.2273 46.5618 76.2095 44.989 77.0504C44.1834 77.481 43.3912 77.9656 42.7053 78.5696C42.5882 78.6728 42.0951 78.9768 42.1045 78.9565" stroke="#460104" stroke-width="2" stroke-linecap="round"/>
<path d="M41.3198 77.9348C41.4473 78.3914 41.4991 78.8689 41.6238 79.3266C41.6603 79.4607 41.8419 79.7388 41.7402 79.8462" stroke="#460104" stroke-width="2" stroke-linecap="round"/>
<path d="M43.8208 72.8958C44.1142 73.7018 44.3863 74.5296 44.6413 75.3496C44.6894 75.5043 45.008 76.3106 44.8991 76.4256" stroke="#460104" stroke-width="2" stroke-linecap="round"/>
<path d="M54.9086 80.8992C53.6256 81.2095 52.2925 81.2862 50.9921 81.5065C49.3588 81.7832 47.7618 82.1836 46.1387 82.5088C45.3707 82.6627 44.5386 82.7498 43.7931 82.9997C43.6534 83.0465 43.5633 83.1318 43.5031 82.9663" stroke="#460104" stroke-width="2" stroke-linecap="round"/>
<path d="M42.912 82.4867C43.3969 83.8189 44.1109 84.7796 45.143 85.7427C46.8871 87.3703 49.6551 88.1787 52.0056 87.8534C53.7914 87.6062 55.2819 86.6901 56.7689 85.7337C57.4182 85.3161 58.0213 84.8984 58.1894 84.1012C58.4937 82.6581 58.2394 81.0619 57.6409 79.7311C57.3025 78.9786 56.7139 77.8447 55.7724 77.7364C55.3168 77.6839 54.7636 77.7297 54.3946 78.0333C54.2702 78.1356 54.0656 78.4095 54.0467 78.5729C54.0372 78.6563 54.0097 78.8643 54.027 78.858" stroke="#460104" stroke-width="2" stroke-linecap="round"/>
<path d="M49.0107 100.266L50.2011 103.537" stroke="#460104" stroke-width="2" stroke-linecap="round"/>
<path d="M50.1244 102.324C51.4224 101.962 52.9042 101.897 54.2391 101.717C56.212 101.45 58.1989 101.319 60.1437 100.885C61.3582 100.615 62.5303 100.271 63.7627 100.076C64.0738 100.027 64.4706 99.8963 64.774 99.9703" stroke="#460104" stroke-width="2" stroke-linecap="round"/>
<path d="M69.1636 110.901C67.3604 111.077 65.5696 111.593 63.7821 111.884C61.6922 112.224 59.5588 112.557 57.4429 112.697C56.6309 112.751 55.848 112.858 55.0525 112.979C54.8357 113.012 54.3115 113.242 54.1429 113.082" stroke="#460104" stroke-width="2" stroke-linecap="round"/>
<path d="M53.3594 112.34L54.3495 115.061" stroke="#460104" stroke-width="2" stroke-linecap="round"/>
<path d="M64.4938 98.635C64.6691 99.1165 65.722 101.166 65.0636 101.611" stroke="#460104" stroke-width="2" stroke-linecap="round"/>
<path d="M64.8569 100.762C63.743 101.405 62.7581 102.368 61.7092 103.117C60.5771 103.925 59.4375 104.685 58.2582 105.423C57.3945 105.963 56.5583 106.551 55.7167 107.124C55.5558 107.233 54.7274 107.74 55.3614 107.401" stroke="#460104" stroke-width="2" stroke-linecap="round"/>
<path d="M55.2791 107.739C55.8067 107.734 56.3667 107.976 56.8571 108.14C57.8498 108.474 58.8574 108.747 59.8615 109.044C61.78 109.611 63.7906 109.938 65.7754 110.166C66.39 110.237 66.9922 110.371 67.6043 110.442C67.8506 110.47 68.3772 110.454 68.5451 110.613" stroke="#460104" stroke-width="2" stroke-linecap="round"/>
<path d="M68.2394 108.362C68.6403 109.464 69.0413 110.565 69.4422 111.667C69.5012 111.829 69.7116 112.645 69.8483 112.5" stroke="#460104" stroke-width="2" stroke-linecap="round"/>
<path d="M70.7241 117.497L73.393 124.83" stroke="#460104" stroke-width="2" stroke-linecap="round"/>
<path d="M71.1454 119.005C70.5925 119.206 69.9673 119.218 69.3905 119.331C68.1826 119.568 66.9712 119.779 65.7634 120.013C64.1789 120.319 62.5917 120.606 61.0137 120.847C59.9748 121.006 58.8715 121.173 57.8846 121.532C57.6848 121.604 56.806 122.037 57.0128 121.593" stroke="#460104" stroke-width="2" stroke-linecap="round"/>
<path d="M56.1924 120.743C57.0826 123.189 58.2033 125.566 59.0868 127.993" stroke="#460104" stroke-width="2" stroke-linecap="round"/>
<path d="M63.7935 120.735C64.2931 121.374 64.8593 121.914 65.3144 122.602C65.6734 123.145 65.9959 123.661 66.2181 124.271C66.5784 125.261 66.7518 126.203 66.7976 127.263C66.8492 128.456 66.7826 129.533 67.1972 130.672C67.3263 131.027 67.4466 131.425 67.6839 131.727C67.7778 131.847 67.8534 131.889 67.9059 132.033" stroke="#460104" stroke-width="2" stroke-linecap="round"/>
<path d="M45.589 48.1812C42.0814 48.7607 38.3314 48.2359 34.8054 47.9877C33.3071 47.8823 30.8361 47.8394 29.6402 46.9606" stroke="#460104" stroke-width="2" stroke-linecap="round"/>
<path d="M44.032 43.9029C45.0017 44.9489 45.331 46.8064 45.8118 48.1272C46.1088 48.9434 46.61 49.8482 46.5073 50.7408C46.3215 52.3556 43.6752 53.5411 42.2672 53.6973C40.6922 53.872 38.3032 53.5664 37.3395 52.1395C36.5397 50.9554 35.5148 49.7887 35.0088 48.3984" stroke="#460104" stroke-width="2" stroke-linecap="round"/>
<path d="M36.0991 51.3933C30.3425 53.7766 24.705 61.3554 27.0406 67.7723" stroke="#460104" stroke-width="2" stroke-linecap="round"/>
<path d="M28.7119 45.1873C29.1887 46.4973 29.4039 47.9639 29.8643 49.229" stroke="#460104" stroke-width="2" stroke-linecap="round"/>
<circle cx="30.023" cy="29.5961" r="4.32252" transform="rotate(70 30.023 29.5961)" fill="#0C9AB2"/>
<path d="M23.5381 21.9241C24.1964 24.9962 26.9442 27.1702 29.0839 29.2188C29.6465 29.7574 30.3918 30.3003 31.1019 30.609C31.6836 30.8619 32.4454 31.3415 33.09 31.3415" stroke="#705228" stroke-width="3" stroke-linecap="round"/>
<path d="M22.5215 22.6577C22.5404 22.7523 22.608 22.8371 22.6587 22.9166C22.7363 23.0383 22.8089 23.1629 22.8867 23.2845C22.9872 23.4418 23.0696 23.6056 23.1846 23.7533C23.3788 24.0026 23.5521 24.2743 23.7969 24.4809C23.9014 24.5691 24.0084 24.6748 24.0985 24.778C24.1907 24.8835 24.3022 24.9671 24.3947 25.0723C24.515 25.2093 24.6342 25.3294 24.7744 25.4466C24.8633 25.5209 24.9574 25.5842 25.0396 25.6664" stroke="#705228" stroke-linecap="round"/>
<path d="M32.0938 30.7119C32.3737 30.7485 32.6528 30.7803 32.9352 30.7803C33.1194 30.7803 33.3037 30.7803 33.4879 30.7803C33.536 30.7803 33.7428 30.7488 33.7463 30.8145C33.7488 30.8636 33.7463 30.9135 33.7463 30.9626C33.7463 31.0562 33.7397 31.1675 33.6893 31.2482C33.6686 31.2813 33.568 31.5479 33.5411 31.5211" stroke="#705228" stroke-linecap="round"/>
<path d="M33.4272 30.7005C33.5448 30.7005 33.6624 30.7005 33.7799 30.7005C33.8152 30.7005 33.9287 30.6811 33.9287 30.7258C33.9287 30.7558 33.9146 30.7692 33.8945 30.7917C33.88 30.8079 33.8917 30.8372 33.8774 30.8486C33.8516 30.8693 33.8623 30.9284 33.8261 30.9284" stroke="#705228" stroke-linecap="round"/>
<defs>
<filter id="filter0_d_54_576" x="0.435059" y="14.2927" width="103.081" height="143.652" filterUnits="userSpaceOnUse" color-interpolation-filters="sRGB">
<feFlood flood-opacity="0" result="BackgroundImageFix"/>
<feColorMatrix in="SourceAlpha" type="matrix" values="0 0 0 0 0 0 0 0 0 0 0 0 0 0 0 0 0 0 127 0" result="hardAlpha"/>
<feOffset dy="4"/>
<feGaussianBlur stdDeviation="4"/>
<feComposite in2="hardAlpha" operator="out"/>
<feColorMatrix type="matrix" values="0 0 0 0 0 0 0 0 0 0 0 0 0 0 0 0 0 0 0.25 0"/>
<feBlend mode="normal" in2="BackgroundImageFix" result="effect1_dropShadow_54_576"/>
<feBlend mode="normal" in="SourceGraphic" in2="effect1_dropShadow_54_576" result="shape"/>
</filter>
<linearGradient id="paint0_linear_54_576" x1="71.4009" y1="86.7385" x2="8.00391" y2="86.7385" gradientUnits="userSpaceOnUse">
<stop stop-color="#096C7D"/>
<stop offset="1" stop-color="#10C4E3"/>
</linearGradient>
<linearGradient id="paint1_linear_54_576" x1="65.6375" y1="15.8491" x2="13.1909" y2="15.8491" gradientUnits="userSpaceOnUse">
<stop stop-color="#096C7D"/>
<stop offset="1" stop-color="#10C4E3"/>
</linearGradient>
</defs>
</svg>
