<svg width="129" height="168" viewBox="0 0 129 168" fill="none" xmlns="http://www.w3.org/2000/svg">
<rect x="4.37305" y="4.48145" width="120.254" height="4.10806" fill="white"/>
<circle cx="8.66784" cy="4.29479" r="4.29479" fill="white"/>
<circle cx="17.2572" cy="4.29479" r="4.29479" fill="white"/>
<circle cx="25.847" cy="4.29479" r="4.29479" fill="white"/>
<circle cx="34.4364" cy="4.29479" r="4.29479" fill="white"/>
<circle cx="43.0257" cy="4.29479" r="4.29479" fill="white"/>
<circle cx="51.6156" cy="4.29479" r="4.29479" fill="white"/>
<circle cx="60.2049" cy="4.29479" r="4.29479" fill="white"/>
<circle cx="68.7948" cy="4.29479" r="4.29479" fill="white"/>
<circle cx="77.3846" cy="4.29479" r="4.29479" fill="white"/>
<circle cx="85.974" cy="4.29479" r="4.29479" fill="white"/>
<circle cx="94.5638" cy="4.29479" r="4.29479" fill="white"/>
<circle cx="103.153" cy="4.29479" r="4.29479" fill="white"/>
<circle cx="111.743" cy="4.29479" r="4.29479" fill="white"/>
<circle cx="120.332" cy="4.29479" r="4.29479" fill="white"/>
<rect x="124.627" y="163.172" width="120.254" height="4.10806" transform="rotate(-180 124.627 163.172)" fill="white"/>
<circle cx="120.332" cy="163.358" r="4.29479" transform="rotate(-180 120.332 163.358)" fill="white"/>
<circle cx="111.743" cy="163.358" r="4.29479" transform="rotate(-180 111.743 163.358)" fill="white"/>
<circle cx="103.153" cy="163.358" r="4.29479" transform="rotate(-180 103.153 163.358)" fill="white"/>
<circle cx="94.5636" cy="163.358" r="4.29479" transform="rotate(-180 94.5636 163.358)" fill="white"/>
<circle cx="85.9743" cy="163.358" r="4.29479" transform="rotate(-180 85.9743 163.358)" fill="white"/>
<circle cx="77.3844" cy="163.358" r="4.29479" transform="rotate(-180 77.3844 163.358)" fill="white"/>
<circle cx="68.7951" cy="163.358" r="4.29479" transform="rotate(-180 68.7951 163.358)" fill="white"/>
<circle cx="60.2052" cy="163.358" r="4.29479" transform="rotate(-180 60.2052 163.358)" fill="white"/>
<circle cx="51.6154" cy="163.358" r="4.29479" transform="rotate(-180 51.6154 163.358)" fill="white"/>
<circle cx="43.026" cy="163.358" r="4.29479" transform="rotate(-180 43.026 163.358)" fill="white"/>
<circle cx="34.4362" cy="163.358" r="4.29479" transform="rotate(-180 34.4362 163.358)" fill="white"/>
<circle cx="25.8468" cy="163.358" r="4.29479" transform="rotate(-180 25.8468 163.358)" fill="white"/>
<circle cx="17.2575" cy="163.358" r="4.29479" transform="rotate(-180 17.2575 163.358)" fill="white"/>
<circle cx="8.66761" cy="163.358" r="4.29479" transform="rotate(-180 8.66761 163.358)" fill="white"/>
<rect x="4.37305" y="161.25" width="154.691" height="4.37288" transform="rotate(-90 4.37305 161.25)" fill="white"/>
<circle cx="4.29479" cy="122.518" r="4.29479" transform="rotate(-90 4.29479 122.518)" fill="white"/>
<circle cx="4.29479" cy="113.929" r="4.29479" transform="rotate(-90 4.29479 113.929)" fill="white"/>
<circle cx="4.29479" cy="105.339" r="4.29479" transform="rotate(-90 4.29479 105.339)" fill="white"/>
<circle cx="4.29479" cy="96.7496" r="4.29479" transform="rotate(-90 4.29479 96.7496)" fill="white"/>
<circle cx="4.29479" cy="156.877" r="4.29479" transform="rotate(-90 4.29479 156.877)" fill="white"/>
<circle cx="4.29479" cy="148.287" r="4.29479" transform="rotate(-90 4.29479 148.287)" fill="white"/>
<circle cx="4.29479" cy="139.698" r="4.29479" transform="rotate(-90 4.29479 139.698)" fill="white"/>
<circle cx="4.29479" cy="131.108" r="4.29479" transform="rotate(-90 4.29479 131.108)" fill="white"/>
<circle cx="4.29479" cy="88.16" r="4.29479" transform="rotate(-90 4.29479 88.16)" fill="white"/>
<circle cx="4.29479" cy="79.5704" r="4.29479" transform="rotate(-90 4.29479 79.5704)" fill="white"/>
<circle cx="4.29479" cy="70.9808" r="4.29479" transform="rotate(-90 4.29479 70.9808)" fill="white"/>
<circle cx="4.29479" cy="62.3915" r="4.29479" transform="rotate(-90 4.29479 62.3915)" fill="white"/>
<circle cx="4.29479" cy="53.8016" r="4.29479" transform="rotate(-90 4.29479 53.8016)" fill="white"/>
<circle cx="4.29479" cy="45.2123" r="4.29479" transform="rotate(-90 4.29479 45.2123)" fill="white"/>
<circle cx="4.29479" cy="36.6227" r="4.29479" transform="rotate(-90 4.29479 36.6227)" fill="white"/>
<circle cx="4.29479" cy="28.0331" r="4.29479" transform="rotate(-90 4.29479 28.0331)" fill="white"/>
<circle cx="4.29479" cy="19.4432" r="4.29479" transform="rotate(-90 4.29479 19.4432)" fill="white"/>
<circle cx="4.29479" cy="10.8536" r="4.29479" transform="rotate(-90 4.29479 10.8536)" fill="white"/>
<rect x="124.627" y="6.55933" width="154.691" height="4.37288" transform="rotate(90 124.627 6.55933)" fill="white"/>
<circle cx="124.705" cy="45.2909" r="4.29479" transform="rotate(90 124.705 45.2909)" fill="white"/>
<circle cx="124.705" cy="53.8805" r="4.29479" transform="rotate(90 124.705 53.8805)" fill="white"/>
<circle cx="124.705" cy="62.4701" r="4.29479" transform="rotate(90 124.705 62.4701)" fill="white"/>
<circle cx="124.705" cy="71.0597" r="4.29479" transform="rotate(90 124.705 71.0597)" fill="white"/>
<circle cx="124.705" cy="10.9322" r="4.29479" transform="rotate(90 124.705 10.9322)" fill="white"/>
<circle cx="124.705" cy="19.5218" r="4.29479" transform="rotate(90 124.705 19.5218)" fill="white"/>
<circle cx="124.705" cy="28.1114" r="4.29479" transform="rotate(90 124.705 28.1114)" fill="white"/>
<circle cx="124.705" cy="36.701" r="4.29479" transform="rotate(90 124.705 36.701)" fill="white"/>
<circle cx="124.705" cy="79.6493" r="4.29479" transform="rotate(90 124.705 79.6493)" fill="white"/>
<circle cx="124.705" cy="88.2389" r="4.29479" transform="rotate(90 124.705 88.2389)" fill="white"/>
<circle cx="124.705" cy="96.8285" r="4.29479" transform="rotate(90 124.705 96.8285)" fill="white"/>
<circle cx="124.705" cy="105.418" r="4.29479" transform="rotate(90 124.705 105.418)" fill="white"/>
<circle cx="124.705" cy="114.008" r="4.29479" transform="rotate(90 124.705 114.008)" fill="white"/>
<circle cx="124.705" cy="122.597" r="4.29479" transform="rotate(90 124.705 122.597)" fill="white"/>
<circle cx="124.705" cy="131.187" r="4.29479" transform="rotate(90 124.705 131.187)" fill="white"/>
<circle cx="124.705" cy="139.776" r="4.29479" transform="rotate(90 124.705 139.776)" fill="white"/>
<circle cx="124.705" cy="148.366" r="4.29479" transform="rotate(90 124.705 148.366)" fill="white"/>
<circle cx="124.705" cy="156.955" r="4.29479" transform="rotate(90 124.705 156.955)" fill="white"/>
<path d="M8.73488 8.5H120.5L120.252 159H8.73486L8.73488 8.5Z" fill="#E4827F"/>
<path d="M9 8.5H37V36H9V8.5Z" fill="black"/>
<path d="M65 8.5H93V36H65V8.5Z" fill="#9E1823"/>
<path d="M37 36H65V63.5H37V36Z" fill="black"/>
<path d="M93 36H120.5V63.5H93V36Z" fill="#9E1823"/>
<path d="M9 63H37V90.5H9V63Z" fill="black"/>
<path d="M65 63H93V90.5H65V63Z" fill="#9E1823"/>
<path d="M37 90H65V117.5H37V90Z" fill="black"/>
<path d="M93 90H121V117.5H93V90Z" fill="#9E1823"/>
<path d="M9 117H37V144.5H9V117Z" fill="black"/>
<path d="M65 117H92.5V144.5H65V117Z" fill="#9E1823"/>
<path d="M37 145H65V159H37V145Z" fill="black"/>
<path d="M93 145H120V159H93V145Z" fill="#9E1823"/>
<rect x="18.9019" y="35.0076" width="71" height="111" rx="5" transform="rotate(-10 18.9019 35.0076)" fill="white"/>
<rect x="22.7246" y="39.4106" width="65" height="102" rx="5" transform="rotate(-10 22.7246 39.4106)" fill="black"/>
</svg>
