<svg width="130" height="130" viewBox="0 0 130 130" fill="none" xmlns="http://www.w3.org/2000/svg">
<rect x="6.50781" y="4.44629" width="119.309" height="4.07576" fill="white"/>
<circle cx="10.7688" cy="4.26102" r="4.26102" fill="white"/>
<circle cx="19.2908" cy="4.26102" r="4.26102" fill="white"/>
<circle cx="27.8128" cy="4.26102" r="4.26102" fill="white"/>
<circle cx="4.26102" cy="4.26102" r="4.26102" fill="white"/>
<circle cx="4.26102" cy="125.739" r="4.26102" fill="white"/>
<circle cx="125.739" cy="125.739" r="4.26102" fill="white"/>
<circle cx="125.739" cy="5.34574" r="4.26102" fill="white"/>
<circle cx="36.3352" cy="4.26102" r="4.26102" fill="white"/>
<circle cx="44.8572" cy="4.26102" r="4.26102" fill="white"/>
<circle cx="53.3787" cy="4.26102" r="4.26102" fill="white"/>
<circle cx="61.9012" cy="4.26102" r="4.26102" fill="white"/>
<circle cx="70.4231" cy="4.26102" r="4.26102" fill="white"/>
<circle cx="78.9451" cy="4.26102" r="4.26102" fill="white"/>
<circle cx="87.4671" cy="4.26102" r="4.26102" fill="white"/>
<circle cx="95.9895" cy="4.26102" r="4.26102" fill="white"/>
<circle cx="104.511" cy="4.26102" r="4.26102" fill="white"/>
<circle cx="113.033" cy="4.26102" r="4.26102" fill="white"/>
<circle cx="121.555" cy="4.26102" r="4.26102" fill="white"/>
<rect x="125.554" y="6.50781" width="119.309" height="4.07576" transform="rotate(90 125.554 6.50781)" fill="white"/>
<circle cx="125.739" cy="10.7688" r="4.26102" transform="rotate(90 125.739 10.7688)" fill="white"/>
<circle cx="125.739" cy="19.2911" r="4.26102" transform="rotate(90 125.739 19.2911)" fill="white"/>
<circle cx="125.739" cy="27.813" r="4.26102" transform="rotate(90 125.739 27.813)" fill="white"/>
<circle cx="125.739" cy="36.335" r="4.26102" transform="rotate(90 125.739 36.335)" fill="white"/>
<circle cx="125.739" cy="44.8572" r="4.26102" transform="rotate(90 125.739 44.8572)" fill="white"/>
<circle cx="125.739" cy="53.3792" r="4.26102" transform="rotate(90 125.739 53.3792)" fill="white"/>
<circle cx="125.739" cy="61.9012" r="4.26102" transform="rotate(90 125.739 61.9012)" fill="white"/>
<circle cx="125.739" cy="70.4231" r="4.26102" transform="rotate(90 125.739 70.4231)" fill="white"/>
<circle cx="125.739" cy="78.9454" r="4.26102" transform="rotate(90 125.739 78.9454)" fill="white"/>
<circle cx="125.739" cy="87.4673" r="4.26102" transform="rotate(90 125.739 87.4673)" fill="white"/>
<circle cx="125.739" cy="95.9893" r="4.26102" transform="rotate(90 125.739 95.9893)" fill="white"/>
<circle cx="125.739" cy="104.512" r="4.26102" transform="rotate(90 125.739 104.512)" fill="white"/>
<circle cx="125.739" cy="113.033" r="4.26102" transform="rotate(90 125.739 113.033)" fill="white"/>
<circle cx="125.739" cy="121.555" r="4.26102" transform="rotate(90 125.739 121.555)" fill="white"/>
<rect x="125.816" y="125.554" width="119.309" height="4.07576" transform="rotate(-180 125.816 125.554)" fill="white"/>
<circle cx="121.555" cy="125.739" r="4.26102" transform="rotate(-180 121.555 125.739)" fill="white"/>
<circle cx="113.033" cy="125.739" r="4.26102" transform="rotate(-180 113.033 125.739)" fill="white"/>
<circle cx="104.511" cy="125.739" r="4.26102" transform="rotate(-180 104.511 125.739)" fill="white"/>
<circle cx="95.989" cy="125.739" r="4.26102" transform="rotate(-180 95.989 125.739)" fill="white"/>
<circle cx="87.4675" cy="125.739" r="4.26102" transform="rotate(-180 87.4675 125.739)" fill="white"/>
<circle cx="78.945" cy="125.739" r="4.26102" transform="rotate(-180 78.945 125.739)" fill="white"/>
<circle cx="70.4231" cy="125.739" r="4.26102" transform="rotate(-180 70.4231 125.739)" fill="white"/>
<circle cx="61.9011" cy="125.739" r="4.26102" transform="rotate(-180 61.9011 125.739)" fill="white"/>
<circle cx="53.3791" cy="125.739" r="4.26102" transform="rotate(-180 53.3791 125.739)" fill="white"/>
<circle cx="44.8567" cy="125.739" r="4.26102" transform="rotate(-180 44.8567 125.739)" fill="white"/>
<circle cx="36.3352" cy="125.739" r="4.26102" transform="rotate(-180 36.3352 125.739)" fill="white"/>
<circle cx="27.8132" cy="125.739" r="4.26102" transform="rotate(-180 27.8132 125.739)" fill="white"/>
<circle cx="19.2907" cy="125.739" r="4.26102" transform="rotate(-180 19.2907 125.739)" fill="white"/>
<circle cx="10.7688" cy="125.739" r="4.26102" transform="rotate(-180 10.7688 125.739)" fill="white"/>
<rect x="4.44629" y="125.816" width="119.309" height="4.07576" transform="rotate(-90 4.44629 125.816)" fill="white"/>
<circle cx="4.26102" cy="121.555" r="4.26102" transform="rotate(-90 4.26102 121.555)" fill="white"/>
<circle cx="4.26102" cy="113.033" r="4.26102" transform="rotate(-90 4.26102 113.033)" fill="white"/>
<circle cx="4.26102" cy="104.511" r="4.26102" transform="rotate(-90 4.26102 104.511)" fill="white"/>
<circle cx="4.26102" cy="95.9892" r="4.26102" transform="rotate(-90 4.26102 95.9892)" fill="white"/>
<circle cx="4.26102" cy="87.4672" r="4.26102" transform="rotate(-90 4.26102 87.4672)" fill="white"/>
<circle cx="4.26102" cy="78.945" r="4.26102" transform="rotate(-90 4.26102 78.945)" fill="white"/>
<circle cx="4.26102" cy="70.4231" r="4.26102" transform="rotate(-90 4.26102 70.4231)" fill="white"/>
<circle cx="4.26102" cy="61.9011" r="4.26102" transform="rotate(-90 4.26102 61.9011)" fill="white"/>
<circle cx="4.26102" cy="53.3791" r="4.26102" transform="rotate(-90 4.26102 53.3791)" fill="white"/>
<circle cx="4.26102" cy="44.8569" r="4.26102" transform="rotate(-90 4.26102 44.8569)" fill="white"/>
<circle cx="4.26102" cy="36.3349" r="4.26102" transform="rotate(-90 4.26102 36.3349)" fill="white"/>
<circle cx="4.26102" cy="27.813" r="4.26102" transform="rotate(-90 4.26102 27.813)" fill="white"/>
<circle cx="4.26102" cy="19.2907" r="4.26102" transform="rotate(-90 4.26102 19.2907)" fill="white"/>
<circle cx="4.26102" cy="10.7688" r="4.26102" transform="rotate(-90 4.26102 10.7688)" fill="white"/>
<rect x="9" y="9" width="112" height="112" fill="black"/>
<path d="M35 37L45.5 52H64H81.5L94 37V77C94 88.0457 85.0457 97 74 97H55C43.9543 97 35 88.0457 35 77V52V37Z" fill="#9E1823"/>
<path d="M91 44.5L94 43V46L91 44.5Z" fill="black"/>
<path d="M40 70H52C53.6569 70 55 71.3431 55 73V79H49C44.0294 79 40 74.9706 40 70V70Z" fill="black"/>
<path d="M46 70H51L48.5 75L46 70Z" fill="white"/>
<path d="M72 72C72 70.8954 72.8954 70 74 70H87V70C87 74.9706 82.9706 79 78 79H72V72Z" fill="black"/>
<path d="M78 70L80.5 73L78 76L76 73L78 70Z" fill="white"/>
<path d="M49 104C49 98.4772 53.4772 94 59 94H69C74.5228 94 79 98.4772 79 104V122H49V104Z" fill="#9E1823"/>
</svg>
