<svg width="129" height="168" viewBox="0 0 129 168" fill="none" xmlns="http://www.w3.org/2000/svg">
<rect x="4.37305" y="4.48145" width="120.254" height="4.10806" fill="white"/>
<circle cx="8.66784" cy="4.29479" r="4.29479" fill="white"/>
<circle cx="17.2572" cy="4.29479" r="4.29479" fill="white"/>
<circle cx="25.847" cy="4.29479" r="4.29479" fill="white"/>
<circle cx="34.4364" cy="4.29479" r="4.29479" fill="white"/>
<circle cx="43.0257" cy="4.29479" r="4.29479" fill="white"/>
<circle cx="51.6156" cy="4.29479" r="4.29479" fill="white"/>
<circle cx="60.2049" cy="4.29479" r="4.29479" fill="white"/>
<circle cx="68.7948" cy="4.29479" r="4.29479" fill="white"/>
<circle cx="77.3846" cy="4.29479" r="4.29479" fill="white"/>
<circle cx="85.974" cy="4.29479" r="4.29479" fill="white"/>
<circle cx="94.5638" cy="4.29479" r="4.29479" fill="white"/>
<circle cx="103.153" cy="4.29479" r="4.29479" fill="white"/>
<circle cx="111.743" cy="4.29479" r="4.29479" fill="white"/>
<circle cx="120.332" cy="4.29479" r="4.29479" fill="white"/>
<rect x="124.627" y="163.172" width="120.254" height="4.10806" transform="rotate(-180 124.627 163.172)" fill="white"/>
<circle cx="120.332" cy="163.358" r="4.29479" transform="rotate(-180 120.332 163.358)" fill="white"/>
<circle cx="111.743" cy="163.358" r="4.29479" transform="rotate(-180 111.743 163.358)" fill="white"/>
<circle cx="103.153" cy="163.358" r="4.29479" transform="rotate(-180 103.153 163.358)" fill="white"/>
<circle cx="94.5636" cy="163.358" r="4.29479" transform="rotate(-180 94.5636 163.358)" fill="white"/>
<circle cx="85.9743" cy="163.358" r="4.29479" transform="rotate(-180 85.9743 163.358)" fill="white"/>
<circle cx="77.3844" cy="163.358" r="4.29479" transform="rotate(-180 77.3844 163.358)" fill="white"/>
<circle cx="68.7951" cy="163.358" r="4.29479" transform="rotate(-180 68.7951 163.358)" fill="white"/>
<circle cx="60.2052" cy="163.358" r="4.29479" transform="rotate(-180 60.2052 163.358)" fill="white"/>
<circle cx="51.6154" cy="163.358" r="4.29479" transform="rotate(-180 51.6154 163.358)" fill="white"/>
<circle cx="43.026" cy="163.358" r="4.29479" transform="rotate(-180 43.026 163.358)" fill="white"/>
<circle cx="34.4362" cy="163.358" r="4.29479" transform="rotate(-180 34.4362 163.358)" fill="white"/>
<circle cx="25.8468" cy="163.358" r="4.29479" transform="rotate(-180 25.8468 163.358)" fill="white"/>
<circle cx="17.2575" cy="163.358" r="4.29479" transform="rotate(-180 17.2575 163.358)" fill="white"/>
<circle cx="8.66761" cy="163.358" r="4.29479" transform="rotate(-180 8.66761 163.358)" fill="white"/>
<rect x="4.37305" y="161.25" width="154.691" height="4.37288" transform="rotate(-90 4.37305 161.25)" fill="white"/>
<circle cx="4.29479" cy="122.518" r="4.29479" transform="rotate(-90 4.29479 122.518)" fill="white"/>
<circle cx="4.29479" cy="113.929" r="4.29479" transform="rotate(-90 4.29479 113.929)" fill="white"/>
<circle cx="4.29479" cy="105.339" r="4.29479" transform="rotate(-90 4.29479 105.339)" fill="white"/>
<circle cx="4.29479" cy="96.7496" r="4.29479" transform="rotate(-90 4.29479 96.7496)" fill="white"/>
<circle cx="4.29479" cy="156.877" r="4.29479" transform="rotate(-90 4.29479 156.877)" fill="white"/>
<circle cx="4.29479" cy="148.287" r="4.29479" transform="rotate(-90 4.29479 148.287)" fill="white"/>
<circle cx="4.29479" cy="139.698" r="4.29479" transform="rotate(-90 4.29479 139.698)" fill="white"/>
<circle cx="4.29479" cy="131.108" r="4.29479" transform="rotate(-90 4.29479 131.108)" fill="white"/>
<circle cx="4.29479" cy="88.16" r="4.29479" transform="rotate(-90 4.29479 88.16)" fill="white"/>
<circle cx="4.29479" cy="79.5704" r="4.29479" transform="rotate(-90 4.29479 79.5704)" fill="white"/>
<circle cx="4.29479" cy="70.9808" r="4.29479" transform="rotate(-90 4.29479 70.9808)" fill="white"/>
<circle cx="4.29479" cy="62.3915" r="4.29479" transform="rotate(-90 4.29479 62.3915)" fill="white"/>
<circle cx="4.29479" cy="53.8016" r="4.29479" transform="rotate(-90 4.29479 53.8016)" fill="white"/>
<circle cx="4.29479" cy="45.2123" r="4.29479" transform="rotate(-90 4.29479 45.2123)" fill="white"/>
<circle cx="4.29479" cy="36.6227" r="4.29479" transform="rotate(-90 4.29479 36.6227)" fill="white"/>
<circle cx="4.29479" cy="28.0331" r="4.29479" transform="rotate(-90 4.29479 28.0331)" fill="white"/>
<circle cx="4.29479" cy="19.4432" r="4.29479" transform="rotate(-90 4.29479 19.4432)" fill="white"/>
<circle cx="4.29479" cy="10.8536" r="4.29479" transform="rotate(-90 4.29479 10.8536)" fill="white"/>
<rect x="124.627" y="6.55933" width="154.691" height="4.37288" transform="rotate(90 124.627 6.55933)" fill="white"/>
<circle cx="124.705" cy="45.2909" r="4.29479" transform="rotate(90 124.705 45.2909)" fill="white"/>
<circle cx="124.705" cy="53.8805" r="4.29479" transform="rotate(90 124.705 53.8805)" fill="white"/>
<circle cx="124.705" cy="62.4701" r="4.29479" transform="rotate(90 124.705 62.4701)" fill="white"/>
<circle cx="124.705" cy="71.0597" r="4.29479" transform="rotate(90 124.705 71.0597)" fill="white"/>
<circle cx="124.705" cy="10.9322" r="4.29479" transform="rotate(90 124.705 10.9322)" fill="white"/>
<circle cx="124.705" cy="19.5218" r="4.29479" transform="rotate(90 124.705 19.5218)" fill="white"/>
<circle cx="124.705" cy="28.1114" r="4.29479" transform="rotate(90 124.705 28.1114)" fill="white"/>
<circle cx="124.705" cy="36.701" r="4.29479" transform="rotate(90 124.705 36.701)" fill="white"/>
<circle cx="124.705" cy="79.6493" r="4.29479" transform="rotate(90 124.705 79.6493)" fill="white"/>
<circle cx="124.705" cy="88.2389" r="4.29479" transform="rotate(90 124.705 88.2389)" fill="white"/>
<circle cx="124.705" cy="96.8285" r="4.29479" transform="rotate(90 124.705 96.8285)" fill="white"/>
<circle cx="124.705" cy="105.418" r="4.29479" transform="rotate(90 124.705 105.418)" fill="white"/>
<circle cx="124.705" cy="114.008" r="4.29479" transform="rotate(90 124.705 114.008)" fill="white"/>
<circle cx="124.705" cy="122.597" r="4.29479" transform="rotate(90 124.705 122.597)" fill="white"/>
<circle cx="124.705" cy="131.187" r="4.29479" transform="rotate(90 124.705 131.187)" fill="white"/>
<circle cx="124.705" cy="139.776" r="4.29479" transform="rotate(90 124.705 139.776)" fill="white"/>
<circle cx="124.705" cy="148.366" r="4.29479" transform="rotate(90 124.705 148.366)" fill="white"/>
<circle cx="124.705" cy="156.955" r="4.29479" transform="rotate(90 124.705 156.955)" fill="white"/>
<rect x="9" y="9" width="111" height="150" fill="#9E1823"/>
<rect x="9" y="127" width="111" height="32" fill="black"/>
<rect x="29" y="103" width="69" height="37" rx="2" fill="#F4F4F4"/>
<path d="M68.8655 125.464C67.7988 127.898 65.1344 127.086 63.2686 125.464C61.1363 126.816 59.1586 127.208 58.204 125.464C56.8719 123.03 62.469 117.622 63.2686 116C64.3348 117.622 69.9322 123.03 68.8655 125.464Z" fill="url(#paint0_linear_59_378)"/>
<path d="M63.5 124L65.6651 128.5H61.3349L63.5 124Z" fill="#D50101"/>
<rect x="98" y="135" width="4" height="3" fill="#D9D9D9"/>
<line x1="102" y1="136.5" x2="120" y2="136.5" stroke="#D9D9D9"/>
<path d="M62.3388 47.4776C63.1311 46.296 64.8689 46.296 65.6612 47.4776L77.5008 65.1362C78.3917 66.465 77.4394 68.25 75.8396 68.25H52.1604C50.5606 68.25 49.6083 66.465 50.4992 65.1362L62.3388 47.4776Z" fill="white"/>
<rect x="63" y="52" width="2" height="10" fill="#9E1823"/>
<circle cx="64" cy="65" r="1" fill="#9E1823"/>
<path d="M40.2544 84.3636C40.2544 85.1307 40.1159 85.7936 39.8389 86.3523C39.5619 86.911 39.1819 87.3419 38.699 87.6449C38.216 87.9479 37.6644 88.0994 37.0441 88.0994C36.4239 88.0994 35.8722 87.9479 35.3893 87.6449C34.9063 87.3419 34.5264 86.911 34.2494 86.3523C33.9724 85.7936 33.8339 85.1307 33.8339 84.3636C33.8339 83.5966 33.9724 82.9337 34.2494 82.375C34.5264 81.8163 34.9063 81.3854 35.3893 81.0824C35.8722 80.7794 36.4239 80.6278 37.0441 80.6278C37.6644 80.6278 38.216 80.7794 38.699 81.0824C39.1819 81.3854 39.5619 81.8163 39.8389 82.375C40.1159 82.9337 40.2544 83.5966 40.2544 84.3636ZM39.4021 84.3636C39.4021 83.7339 39.2967 83.2024 39.086 82.7692C38.8777 82.3359 38.5948 82.008 38.2373 81.7855C37.8822 81.563 37.4845 81.4517 37.0441 81.4517C36.6038 81.4517 36.2049 81.563 35.8474 81.7855C35.4923 82.008 35.2094 82.3359 34.9987 82.7692C34.7903 83.2024 34.6862 83.7339 34.6862 84.3636C34.6862 84.9934 34.7903 85.5249 34.9987 85.9581C35.2094 86.3913 35.4923 86.7192 35.8474 86.9418C36.2049 87.1643 36.6038 87.2756 37.0441 87.2756C37.4845 87.2756 37.8822 87.1643 38.2373 86.9418C38.5948 86.7192 38.8777 86.3913 39.086 85.9581C39.2967 85.5249 39.4021 84.9934 39.4021 84.3636ZM42.4596 84.7188V88H41.6215V82.5455H42.4312V83.3977H42.5022C42.6301 83.1207 42.8242 82.8982 43.0846 82.7301C43.345 82.5597 43.6812 82.4744 44.0931 82.4744C44.4624 82.4744 44.7856 82.5502 45.0626 82.7017C45.3396 82.8509 45.555 83.0781 45.7089 83.3835C45.8628 83.6866 45.9397 84.0701 45.9397 84.5341V88H45.1017V84.5909C45.1017 84.1624 44.9904 83.8286 44.7678 83.5895C44.5453 83.348 44.2399 83.2273 43.8517 83.2273C43.5841 83.2273 43.345 83.2853 43.1343 83.4013C42.926 83.5173 42.7615 83.6866 42.6407 83.9091C42.52 84.1316 42.4596 84.4015 42.4596 84.7188ZM48.3092 80.7273V88H47.4711V80.7273H48.3092ZM50.384 90.0455C50.2419 90.0455 50.1153 90.0336 50.004 90.0099C49.8927 89.9886 49.8158 89.9673 49.7732 89.946L49.9862 89.2074C50.1898 89.2595 50.3698 89.2784 50.526 89.2642C50.6823 89.25 50.8208 89.1802 50.9415 89.0547C51.0646 88.9316 51.1771 88.7315 51.2789 88.4545L51.4351 88.0284L49.4181 82.5455H50.3271L51.8328 86.892H51.8896L53.3953 82.5455H54.3044L51.9891 88.7955C51.8849 89.0772 51.7559 89.3104 51.602 89.495C51.4481 89.6821 51.2694 89.8205 51.0658 89.9105C50.8646 90.0005 50.6373 90.0455 50.384 90.0455ZM60.5811 88H58.3367V80.7273H60.6805C61.386 80.7273 61.9897 80.8729 62.4916 81.1641C62.9935 81.4529 63.3782 81.8684 63.6457 82.4105C63.9132 82.9503 64.047 83.5966 64.047 84.3494C64.047 85.107 63.912 85.7592 63.6421 86.3061C63.3722 86.8506 62.9793 87.2696 62.4632 87.5632C61.9471 87.8544 61.3197 88 60.5811 88ZM59.2174 87.2188H60.5242C61.1256 87.2188 61.6239 87.1027 62.0193 86.8707C62.4146 86.6387 62.7094 86.3085 62.9035 85.88C63.0976 85.4515 63.1947 84.9413 63.1947 84.3494C63.1947 83.7623 63.0988 83.2569 62.907 82.8331C62.7153 82.407 62.4288 82.0803 62.0477 81.853C61.6665 81.6233 61.1919 81.5085 60.6237 81.5085H59.2174V87.2188ZM67.6975 88.1136C67.172 88.1136 66.7186 87.9976 66.3374 87.7656C65.9587 87.5312 65.6663 87.2045 65.4603 86.7855C65.2567 86.3641 65.1549 85.8741 65.1549 85.3153C65.1549 84.7566 65.2567 84.2642 65.4603 83.8381C65.6663 83.4096 65.9527 83.0758 66.3197 82.8366C66.689 82.5952 67.1199 82.4744 67.6123 82.4744C67.8964 82.4744 68.1769 82.5218 68.4539 82.6165C68.7309 82.7112 68.983 82.8651 69.2103 83.0781C69.4376 83.2888 69.6187 83.5682 69.7536 83.9162C69.8886 84.2642 69.9561 84.6927 69.9561 85.2017V85.5568H65.7515V84.8324H69.1038C69.1038 84.5246 69.0422 84.25 68.9191 84.0085C68.7984 83.767 68.6256 83.5765 68.4007 83.4368C68.1781 83.2971 67.9153 83.2273 67.6123 83.2273C67.2785 83.2273 66.9897 83.3101 66.7458 83.4759C66.5044 83.6392 66.3185 83.8523 66.1883 84.1151C66.0581 84.3778 65.993 84.6596 65.993 84.9602V85.4432C65.993 85.8551 66.064 86.2043 66.2061 86.4908C66.3505 86.7749 66.5505 86.9915 66.8062 87.1406C67.0619 87.2874 67.359 87.3608 67.6975 87.3608C67.9177 87.3608 68.1166 87.33 68.2941 87.2685C68.474 87.2045 68.6291 87.1098 68.7593 86.9844C68.8895 86.8565 68.9901 86.6979 69.0612 86.5085L69.8708 86.7358C69.7856 87.0104 69.6424 87.2519 69.4411 87.4602C69.2399 87.6662 68.9913 87.8272 68.6954 87.9432C68.3995 88.0568 68.0669 88.1136 67.6975 88.1136ZM75.0945 83.767L74.3417 83.9801C74.2944 83.8546 74.2245 83.7327 74.1322 83.6143C74.0422 83.4936 73.9191 83.3942 73.7629 83.3161C73.6066 83.2379 73.4066 83.1989 73.1627 83.1989C72.8289 83.1989 72.5508 83.2758 72.3282 83.4297C72.108 83.5812 71.998 83.7741 71.998 84.0085C71.998 84.2169 72.0737 84.3814 72.2252 84.5021C72.3767 84.6229 72.6135 84.7235 72.9355 84.804L73.7451 85.0028C74.2328 85.1212 74.5962 85.3023 74.8353 85.5462C75.0744 85.7876 75.194 86.099 75.194 86.4801C75.194 86.7926 75.104 87.072 74.9241 87.3182C74.7465 87.5644 74.498 87.7585 74.1784 87.9006C73.8588 88.0426 73.4871 88.1136 73.0633 88.1136C72.507 88.1136 72.0465 87.9929 71.6819 87.7514C71.3173 87.5099 71.0865 87.1572 70.9894 86.6932L71.7849 86.4943C71.8606 86.7879 72.0039 87.008 72.2146 87.1548C72.4276 87.3016 72.7058 87.375 73.0491 87.375C73.4397 87.375 73.7499 87.2921 73.9795 87.1264C74.2115 86.9583 74.3275 86.7571 74.3275 86.5227C74.3275 86.3333 74.2612 86.1747 74.1286 86.0469C73.9961 85.9167 73.7925 85.8196 73.5178 85.7557L72.6088 85.5426C72.1092 85.4242 71.7423 85.2408 71.5079 84.9922C71.2759 84.7412 71.1599 84.4276 71.1599 84.0511C71.1599 83.7434 71.2463 83.4711 71.4191 83.2344C71.5943 82.9976 71.8322 82.8118 72.1329 82.6768C72.4359 82.5419 72.7792 82.4744 73.1627 82.4744C73.7025 82.4744 74.1263 82.5928 74.434 82.8295C74.7442 83.0663 74.9643 83.3788 75.0945 83.767ZM77.2368 86.0114L77.2226 84.9744H77.393L79.7794 82.5455H80.8163L78.2737 85.1165H78.2027L77.2368 86.0114ZM76.4555 88V80.7273H77.2936V88H76.4555ZM79.9214 88L77.7907 85.3011L78.3873 84.7188L80.9868 88H79.9214ZM84.2671 82.5455V83.2557H81.4404V82.5455H84.2671ZM82.2643 81.2386H83.1024V86.4375C83.1024 86.6742 83.1367 86.8518 83.2053 86.9702C83.2764 87.0862 83.3663 87.1643 83.4752 87.2045C83.5865 87.2424 83.7037 87.2614 83.8268 87.2614C83.9191 87.2614 83.9949 87.2566 84.0541 87.2472C84.1133 87.2353 84.1606 87.2259 84.1961 87.2188L84.3666 87.9716C84.3097 87.9929 84.2304 88.0142 84.1286 88.0355C84.0268 88.0592 83.8978 88.071 83.7416 88.071C83.5048 88.071 83.2728 88.0201 83.0455 87.9183C82.8206 87.8165 82.6336 87.6615 82.4845 87.4531C82.3377 87.2448 82.2643 86.982 82.2643 86.6648V81.2386ZM87.6851 88.1136C87.1927 88.1136 86.7606 87.9964 86.3889 87.7621C86.0196 87.5277 85.7308 87.1998 85.5225 86.7784C85.3165 86.357 85.2135 85.8646 85.2135 85.3011C85.2135 84.733 85.3165 84.237 85.5225 83.8132C85.7308 83.3894 86.0196 83.0604 86.3889 82.826C86.7606 82.5916 87.1927 82.4744 87.6851 82.4744C88.1775 82.4744 88.6084 82.5916 88.9777 82.826C89.3494 83.0604 89.6382 83.3894 89.8442 83.8132C90.0525 84.237 90.1567 84.733 90.1567 85.3011C90.1567 85.8646 90.0525 86.357 89.8442 86.7784C89.6382 87.1998 89.3494 87.5277 88.9777 87.7621C88.6084 87.9964 88.1775 88.1136 87.6851 88.1136ZM87.6851 87.3608C88.0592 87.3608 88.3669 87.2649 88.6084 87.0732C88.8499 86.8814 89.0286 86.6293 89.1446 86.3168C89.2606 86.0043 89.3186 85.6657 89.3186 85.3011C89.3186 84.9366 89.2606 84.5968 89.1446 84.282C89.0286 83.9671 88.8499 83.7126 88.6084 83.5185C88.3669 83.3243 88.0592 83.2273 87.6851 83.2273C87.311 83.2273 87.0033 83.3243 86.7618 83.5185C86.5203 83.7126 86.3416 83.9671 86.2256 84.282C86.1096 84.5968 86.0516 84.9366 86.0516 85.3011C86.0516 85.6657 86.1096 86.0043 86.2256 86.3168C86.3416 86.6293 86.5203 86.8814 86.7618 87.0732C87.0033 87.2649 87.311 87.3608 87.6851 87.3608ZM91.436 90.0455V82.5455H92.2456V83.4119H92.3451C92.4066 83.3172 92.4919 83.1965 92.6008 83.0497C92.712 82.9006 92.8706 82.768 93.0766 82.652C93.2849 82.5336 93.5667 82.4744 93.9218 82.4744C94.3811 82.4744 94.7859 82.5893 95.1363 82.8189C95.4867 83.0485 95.7601 83.3741 95.9566 83.7955C96.1531 84.2169 96.2513 84.714 96.2513 85.2869C96.2513 85.8646 96.1531 86.3653 95.9566 86.7891C95.7601 87.2105 95.4878 87.5372 95.1398 87.7692C94.7918 87.9988 94.3905 88.1136 93.936 88.1136C93.5856 88.1136 93.3051 88.0556 93.0944 87.9396C92.8837 87.8213 92.7215 87.6875 92.6079 87.5384C92.4942 87.3868 92.4066 87.2614 92.3451 87.1619H92.2741V90.0455H91.436ZM92.2599 85.2727C92.2599 85.6847 92.3202 86.0481 92.441 86.3629C92.5617 86.6754 92.7381 86.9205 92.9701 87.098C93.2021 87.2732 93.4862 87.3608 93.8224 87.3608C94.1727 87.3608 94.4651 87.2685 94.6995 87.0838C94.9362 86.8968 95.1138 86.6458 95.2322 86.331C95.3529 86.0137 95.4133 85.661 95.4133 85.2727C95.4133 84.8892 95.3541 84.5436 95.2357 84.2358C95.1197 83.9257 94.9433 83.6806 94.7066 83.5007C94.4722 83.3184 94.1775 83.2273 93.8224 83.2273C93.4814 83.2273 93.195 83.3137 92.963 83.4865C92.731 83.657 92.5558 83.8961 92.4374 84.2038C92.319 84.5092 92.2599 84.8655 92.2599 85.2727Z" fill="white"/>
<defs>
<linearGradient id="paint0_linear_59_378" x1="63.5" y1="116" x2="63.5" y2="127" gradientUnits="userSpaceOnUse">
<stop stop-color="#FF0000"/>
<stop offset="1" stop-color="#CE0101"/>
</linearGradient>
</defs>
</svg>
